<?xml version="1.0" standalone="no"?>
<!DOCTYPE svg PUBLIC "-//W3C//DTD SVG 1.1//EN" "http://www.w3.org/Graphics/SVG/1.1/DTD/svg11.dtd" >
<svg xmlns="http://www.w3.org/2000/svg">
<metadata></metadata>
<defs>
<font id="claire_handlight" horiz-adv-x="342" >
<font-face units-per-em="2048" ascent="1462" descent="-586" />
<missing-glyph horiz-adv-x="569" />
<glyph horiz-adv-x="2048" />
<glyph horiz-adv-x="2048" />
<glyph unicode="&#xd;" horiz-adv-x="2048" />
<glyph unicode=" "  horiz-adv-x="569" />
<glyph unicode="&#x09;" horiz-adv-x="569" />
<glyph unicode="&#xa0;" horiz-adv-x="569" />
<glyph unicode="!" horiz-adv-x="530" d="M193 66q0 45 41 50q39 5 68 -23q36 -36 -2 -80l-9 -9q-43 0 -70.5 16t-27.5 46zM199 274q6 93 15 531t40 643q19 21 46 17t40 -23q7 -9 8 -25t-1 -29.5t-6.5 -35.5t-6.5 -33q-3 -25 0 -77.5t0 -82.5q-2 -38 -9.5 -123t-11.5 -155.5t-4 -132.5q0 -45 2.5 -133t2.5 -138.5 t-6.5 -115t-22.5 -111.5q-9 -1 -16.5 -1.5t-15.5 1.5t-12 2.5t-12 4.5t-10 4.5t-11 6.5z" />
<glyph unicode="&#x22;" horiz-adv-x="645" d="M158.5 1338q1.5 45 13.5 73q1 1 6.5 3.5t7.5 3.5t7 3t8.5 2.5t8.5 1t11 0t12 -1.5q9 -49 13 -93.5t3.5 -102t-23 -80.5t-66.5 0q2 31 -0.5 88.5t-1 102.5zM400 1335.5q2 49.5 14 77.5q1 1 6.5 3.5t7.5 3.5t7 3t8.5 2.5t8.5 1t11 0t12 -1.5q8 -49 12.5 -93.5t3.5 -101.5 t-23.5 -80.5t-66.5 -0.5q3 48 0 92.5t-1 94z" />
<glyph unicode="#" horiz-adv-x="1093" d="M37 483q36 27 125.5 51.5t120.5 40.5q17 23 33 49.5t35.5 63t29.5 53.5q-8 -1 -31.5 -8.5t-42.5 -11.5t-39.5 -3.5t-31.5 15.5t-9 45q116 37 209 74q35 45 94.5 147t96.5 148q40 -14 49.5 -37t-5.5 -50.5t-36.5 -54.5t-43.5 -58t-26 -52q33 -4 84.5 8t87.5 29 q14 12 56 90q47 89 76 101q31 12 57 -38q-27 -73 -74 -129q21 -3 67.5 10.5t67.5 14.5q66 -52 13 -73q-16 -6 -109 -22q-46 -7 -68 -16q-35 -14 -58.5 -53.5t-45 -89t-43.5 -72.5q27 -4 72 3t84 15t76 10.5t60 -14.5t25 -57q-43 -10 -176 -20.5t-190 -28.5 q-30 -42 -85 -159.5t-100 -165.5q-43 12 -53 37.5t6 59t39 67t45.5 70.5t24.5 60q-24 3 -44.5 3t-37 -2.5t-32.5 -9.5t-27 -13.5t-23 -19t-19.5 -22t-18.5 -26.5t-16.5 -27.5t-16.5 -30t-17 -30.5q-7 -12 -19 -33.5t-20.5 -36.5t-20 -32t-22 -25t-22 -10.5t-24.5 7.5t-26 32 q13 31 55 94.5t56 108.5q-13 -3 -39 -11.5t-44 -12.5t-38.5 -4.5t-33 12.5t-17.5 40zM399 606q23 -1 81 11t79 14q13 25 55.5 93t61.5 110q-38 -3 -93 -18.5t-73 -18.5q-22 -34 -58 -98.5t-53 -92.5z" />
<glyph unicode="$" horiz-adv-x="933" d="M49 104q24 18 43.5 17t47.5 -13.5t52.5 -27.5t58.5 -25t66 -6q16 132 29.5 397.5t28.5 399.5q-29 13 -77.5 27.5t-84.5 26.5t-73.5 31t-60.5 50t-30 74q-10 67 14 141t69 134.5t105.5 106t122.5 62.5q1 25 -5 70.5t-3 75.5q56 33 84.5 -11.5t28.5 -113.5q21 -8 62.5 -9.5 t73 -2t55.5 -16t22 -50.5q-17 -4 -99.5 1.5t-113.5 -7.5q-6 -127 -1.5 -267t13.5 -239q131 -20 233 -92t155 -188t40 -253q-9 -87 -45.5 -166t-96 -140.5t-148 -95.5t-193.5 -28q-2 -19 1 -45t3 -45.5t-10 -34.5q-21 -10 -41 -5.5t-31.5 11.5t-26.5 21v98q-26 14 -73.5 26 t-84.5 19.5t-69.5 30.5t-40.5 61zM166 1186q-43 -121 16 -181.5t193 -68.5q1 95 -3.5 258t-4.5 201q-3 0 -9 3.5t-12 2.5q-2 -2 -23.5 -20.5t-29.5 -26t-28 -26.5t-31 -32.5t-26 -33t-25 -38.5t-17 -38zM430 37q132 -9 228 68.5t124.5 196t15.5 239t-97.5 207.5t-215.5 92 q0 11 -8 4q-11 -8 -6 -19q-48 -515 -41 -788z" />
<glyph unicode="%" horiz-adv-x="1200" d="M61 43q31 56 69.5 110t100 130.5t82.5 103.5q28 39 117 157t135 187q53 79 148 236t176.5 277t167.5 218q20 0 36 -19.5t25 -23.5q-156 -228 -239 -362q-134 -210 -276.5 -411t-344.5 -474q-6 -8 -20.5 -30t-26 -37.5t-28 -36.5t-31 -32t-30.5 -18t-31.5 -0.5t-29.5 25.5 zM332 946q18 31 53.5 23.5t49.5 -36.5t-5 -61q-41 -16 -67 7.5t-31 66.5zM762 620.5q1 30.5 37 43.5q37 13 65 -26q25 -35 11 -67q-10 -19 -33 -24q-30 -5 -55.5 19t-24.5 54.5z" />
<glyph unicode="&#x26;" horiz-adv-x="929" d="M88 287q-2 60 5 112.5t25.5 97.5t36.5 78.5t52 72.5t56 62t63 62l9 9t8 7.5t9 8.5q-149 504 37 633q59 36 123 34.5t122.5 -33t92.5 -81.5q16 -53 17.5 -106.5t-9 -100t-32 -92.5t-48 -84.5t-60 -76.5t-65 -67t-67.5 -57q41 -91 66 -143t67.5 -124t87.5 -126q23 28 50 95 t36 83q36 6 55.5 -0.5t36.5 -30.5q-16 -27 -51.5 -115t-65.5 -124q24 -50 83 -125t77 -103q-1 -14 -10 -20.5t-27 -10t-24 -6.5q-25 21 -47.5 46t-52.5 62.5t-42 51.5q-34 -48 -59.5 -79.5t-62 -64.5t-79 -52t-93.5 -25q-86 -11 -159.5 33t-115.5 124t-45 175zM186 342 q-12 -91 13 -166q8 -32 48.5 -81t74.5 -60q40 -11 75 -8.5t67 23t57.5 45.5t48 59.5t38 65t27.5 61.5q-112 150 -246 417q-89 -71 -142.5 -156.5t-60.5 -199.5zM379 1211q-3 -37 2 -89.5t11.5 -87t18 -90t15.5 -80.5q91 58 167.5 177.5t65.5 228.5q-4 41 -29.5 72.5 t-59.5 45t-72.5 6t-65.5 -37.5q-24 -29 -37 -68.5t-16 -76.5z" />
<glyph unicode="'" horiz-adv-x="417" d="M164.5 1295q1.5 45 13.5 73q1 1 5 3t6 2.5t5.5 2.5t6 2.5t6 1.5t7 1.5t8 0.5t9 -0.5t9.5 -1.5q8 -49 12.5 -93.5t3.5 -101.5t-23.5 -80.5t-66.5 -0.5q2 31 -0.5 88.5t-1 102.5z" />
<glyph unicode="(" horiz-adv-x="428" d="M101.5 658q6.5 142 28.5 268t69 230t110 151q17 18 53 6.5t39 -37.5q3 -20 -21 -53.5t-53.5 -69t-35.5 -49.5q-22 -40 -42 -105.5t-26 -101.5q-25 -158 -22.5 -329t41.5 -337.5t104 -255.5q8 -13 25.5 -28.5t29 -26t18.5 -31.5t1 -49q-10 -5 -19.5 -7t-18 -2t-17.5 4 t-15.5 7.5t-16 12.5t-14 13.5t-13.5 16t-12 16t-11.5 16.5t-10.5 15q-69 86 -103 191.5t-56 269.5q-18 123 -11.5 265z" />
<glyph unicode=")" horiz-adv-x="372" d="M10 1245q15 8 29 9.5t26.5 -4t23 -14t20 -23.5t17.5 -29t16 -33.5t14 -34.5t13.5 -35t12.5 -32q75 -186 89 -460.5t-52 -496.5q-72 -218 -135 -231q-34 -6 -61 53q84 133 122 322t26 388.5t-69 374.5q-12 33 -37 82t-40 88t-15 76z" />
<glyph unicode="*" horiz-adv-x="874" d="M53 1221q55 7 132 2t124 2q-5 16 -9.5 27t-12.5 21.5t-12.5 15t-19.5 17.5t-22 19q-39 33 -63 65t-31 74q65 30 119 -24q20 -18 50.5 -64t39.5 -57q4 10 3 90q-1 104 31 115q18 6 46 -11q21 -43 16.5 -111t6.5 -114q22 16 53.5 37t47.5 32t41.5 31t53.5 46q5 5 14 13 t13 12t13 11.5t14 10.5t15 8.5t16.5 6.5t18.5 5t21.5 2.5t24.5 -0.5q2 -3 8.5 -10.5t10.5 -14.5t3 -14q6 3 -10 -10q-89 -74 -274 -215q16 -2 48.5 -3.5t55.5 -4t48.5 -8.5t41.5 -19.5t21 -34.5q-19 -19 -64 -21.5t-89 2.5t-89 -3q30 -47 103.5 -108t90.5 -78 q18 -12 11 -52.5t-33 -66.5q-29 11 -50 32.5t-41.5 50.5t-37.5 44q-21 21 -53 67.5t-60 69.5q-17 -72 -11 -134t5 -140t-24 -125q-42 -8 -65.5 20.5t-23.5 67.5q3 51 12 132.5t11 98.5q-47 -34 -115 -96.5t-108 -93.5q-49 16 -49 41q2 26 26 59q8 6 22 22.5t15 20.5 q7 7 27 16t28 17q25 21 65.5 58t57.5 52q-21 7 -60.5 9t-91.5 2t-81 2q-19 1 -24.5 28.5t-0.5 57.5z" />
<glyph unicode="+" horiz-adv-x="1228" d="M165 494.5q-9 22.5 5 54.5q62 3 200.5 7t202.5 7l-6 168q0 3 -1.5 22.5t-2 41.5t-0.5 51t4 53t10.5 44.5t20 29.5t31.5 4q16 -3 24.5 -15t10 -30.5t0.5 -35.5t-3 -38t-2 -29q-2 -85 9 -262l172 6q3 0 22 1.5t41 2t50 0.5t52.5 -3.5t45 -10t30 -20t4.5 -31.5 q-5 -15 -17 -23.5t-30 -10.5t-34 -1.5t-36.5 2.5t-29.5 2q-103 3 -264 -8q12 -247 10 -387q-9 -11 -22 -18.5t-32.5 -12t-37.5 5.5q-2 116 -14 408q-222 -14 -383 -12q-21 15 -30 37.5z" />
<glyph unicode="," horiz-adv-x="569" d="M190 44q-5 39 28 75q38 40 78 16q5 -3 9 -6q24 -19 37.5 -64t10 -95.5t-17.5 -96t-46.5 -70t-75.5 -12.5q0 20 11.5 46.5t23 47.5t18 52.5t-3.5 62.5q-65 -3 -72 44z" />
<glyph unicode="-" horiz-adv-x="720" d="M226 523q-23 23 1 67q49 -3 92.5 -0.5t93 0.5t79.5 -12q1 -4 5 -13t5.5 -13.5t3 -15.5t-1.5 -20q-51 -9 -94.5 -13t-102 -3.5t-81.5 23.5z" />
<glyph unicode="." horiz-adv-x="483" d="M176 27q-15 82 34 104q36 15 73 -11q26 -20 28 -50q0 -29 -23 -51t-56 -21.5t-56 29.5z" />
<glyph unicode="/" horiz-adv-x="681" d="M-14 31q-5 30 5.5 55.5t36 59.5t31.5 44q14 24 25.5 51.5t25.5 63.5t23 57q24 56 81.5 167t84.5 171q17 35 37 105t31 98q29 75 87 189.5t85 179.5q5 13 14.5 41.5t17 46t19 37t28 28.5t37.5 7q23 -3 33 -12.5t6.5 -24.5t-9 -27.5t-17 -30t-13.5 -22.5 q-58 -113 -147.5 -337.5t-134.5 -320.5q-36 -77 -93.5 -209t-107 -239t-100.5 -197h-14.5h-15.5t-14 0.5t-14 1.5t-11 3t-10 5.5t-7 8.5z" />
<glyph unicode="0" horiz-adv-x="1138" d="M60 732.5q7 177.5 63 343.5t149 253q121 111 287 111q59 0 143 -33.5t142 -71.5q151 -105 219.5 -310.5t32.5 -459.5q-31 -191 -119.5 -351t-202.5 -208q-89 -37 -186 -32t-187 42t-151 95q-101 97 -149 270.5t-41 351zM157.5 742q-2.5 -151 34 -296t105.5 -229 q211 470 455 1071q-19 9 -58.5 34t-70.5 36.5t-70 11.5q-48 0 -113 -33.5t-102 -70.5q-85 -82 -131.5 -227.5t-49 -296.5zM356 147q219 -147 367 -71q72 36 131 124.5t94.5 200t48 239t0 242t-57.5 209.5t-118 140q-72 -164 -226.5 -528.5t-238.5 -555.5z" />
<glyph unicode="1" horiz-adv-x="1138" d="M303 1210q0 8 11 19.5t30.5 25.5t37.5 25.5t40.5 25.5t30.5 19q16 11 46 33.5t48.5 34.5t43 23.5t47 9t44.5 -18.5q19 -131 23 -284.5t-1.5 -263t-17.5 -286t-16 -264.5q-2 -39 2 -161t-6 -146q-45 -20 -68 -6q-16 134 -13.5 310.5t15.5 330.5t18.5 345.5t-4.5 354.5 q-23 -5 -46 -19.5t-56.5 -43t-48.5 -39.5q-2 -1 -16 -9.5t-26 -15t-29.5 -15.5t-31.5 -12.5t-27 -4t-21 7.5t-9 24z" />
<glyph unicode="2" horiz-adv-x="972" d="M84 1249q0 19 11.5 36.5t37.5 34.5t40 24.5t46 23.5q60 33 118 49t123.5 7.5t117.5 -50.5q118 -97 96 -356q-9 -130 -61.5 -273t-111 -244t-133.5 -228t-108 -199q96 19 300.5 19.5t268.5 6.5q-2 -5 4 -9.5t14.5 -8.5t15.5 -12t7 -19q2 -16 -7.5 -25.5t-30.5 -12.5 t-36.5 -4t-42.5 0t-32 1q-91 8 -193 8q-47 -2 -110.5 -9t-104.5 -12t-85.5 -3t-75.5 16q-7 16 -8 27t6.5 24.5t14.5 23t17 22.5t15 22q40 64 105.5 185t94.5 171q65 107 120.5 261t72.5 286q9 44 4 100t-17.5 105.5t-45.5 85t-80 39.5q-7 3 -23 1t-22.5 -2t-21.5 -4t-21 -5 t-19.5 -6.5t-18 -7t-17 -7t-15.5 -6.5q-17 -9 -39.5 -26.5t-40 -31.5t-38.5 -25t-44 -10t-47 17z" />
<glyph unicode="3" horiz-adv-x="1067" d="M72 1403q22 19 69.5 25t116 6.5t96.5 3.5q83 7 152.5 4.5t167.5 -9t127 -6.5q46 -2 83.5 -12.5t43.5 -28.5q5 -20 -16 -50t-53 -62t-36 -37q-133 -161 -358 -389q105 17 187.5 2t143.5 -53t102 -97.5t62.5 -130.5t24.5 -153q5 -162 -74 -282.5t-227 -151.5 q-79 -19 -182.5 -14t-157.5 36q-113 68 -162 123q-101 119 -82 225q22 13 37.5 14t24.5 -11.5t13.5 -23t9.5 -34.5t8 -33q18 -53 42.5 -83t73.5 -66q5 -4 25 -19.5t34.5 -25t26.5 -13.5q87 -32 213.5 -9.5t192.5 79.5q59 50 82 156t5 218t-71 181q-43 55 -139 80t-191 12 q-7 -1 -34.5 -10t-55.5 -17t-58 -13t-51 1.5t-26 26.5q-4 23 19.5 49.5t64 56.5t49.5 39q218 202 393 439q-44 2 -134 6t-137.5 5.5t-137.5 3t-133 -2.5q-11 -1 -43 -5.5t-47 -4.5t-37 3t-33 16t-14 36z" />
<glyph unicode="4" horiz-adv-x="962" d="M60.5 423q3.5 26 6.5 43t12.5 43t17 42.5t19 42t17.5 41.5q114 308 180 514q2 6 10 31.5t10.5 33l10 30t11.5 32.5t11.5 29.5t13 30.5t12.5 26.5t14.5 28t15.5 24.5q14 1 21.5 1.5t16 -4t12 -8t10 -9.5t10.5 -9q-94 -288 -330 -942q45 -4 74 -4.5t73 4t72 8.5t70.5 11 t68.5 10q17 46 8 147t4 142q16 5 34 0t25.5 -8.5t22.5 -14.5q11 -169 11 -266q29 -2 107 5.5t123 0.5t52 -41q-10 -23 -47.5 -32t-81 -6.5t-87 2.5t-66.5 -5q-4 -50 1.5 -239.5t-8.5 -239.5q-20 -11 -63 0q-19 50 -21.5 137t1 164t-8.5 168q-44 0 -113 -7.5t-121.5 -14 t-116 -4t-112.5 19.5q-6 16 -2.5 42z" />
<glyph unicode="5" horiz-adv-x="1007" d="M98 258q24 9 41 9t27 -7t18 -20.5t12.5 -27.5t12.5 -32t16 -30q49 -69 147 -86t193.5 9t157.5 77q64 72 75.5 175.5t-23 194.5t-97.5 144q-49 40 -120 53.5t-131 7.5t-149.5 -16.5t-144.5 -10.5q-6 9 -10.5 19t-8 18t-5.5 20.5t-3 20t-1.5 22t-0.5 20v22v20.5 q0 196 23 508q71 13 252 20t252 21q22 1 51.5 3t55.5 -13.5t26 -46.5q-12 -17 -30.5 -21.5t-52 -1t-38.5 3.5t-170 -15t-252 -7q-31 -187 -18 -533q81 14 150 19t141 2t133.5 -22.5t107.5 -55.5q83 -67 130.5 -173.5t31.5 -225.5q-17 -101 -77.5 -184t-141.5 -115 q-86 -37 -184 -42t-183 20t-145 92t-68 165z" />
<glyph unicode="6" horiz-adv-x="989" d="M80 563.5q10 145.5 48 285t95 243.5q155 298 266 327q80 24 105 -51q-80 -39 -144 -103t-110 -148t-78 -169t-61 -192q55 21 96.5 33.5t97.5 23.5t110.5 7t104.5 -23q79 -32 177 -122.5t118 -150.5q25 -88 9 -187.5t-56 -164.5q-30 -55 -106.5 -117t-141.5 -73 q-186 -37 -364 102q-94 71 -135 202.5t-31 277zM172 414q7 -140 94.5 -239t204.5 -120q24 -4 45 -5.5t41.5 3.5t35.5 7.5t34.5 15t29 18t29.5 23.5t26 23.5t28 28t26 26.5q6 18 21 58t22 63.5t14.5 59t6 70.5t-10.5 72q-36 56 -92.5 105.5t-130 85t-151.5 35.5t-158 -42 q-14 -6 -60.5 -48t-50.5 -54q-19 -42 -4 -186z" />
<glyph unicode="7" horiz-adv-x="1138" d="M100 1391q12 12 31 17.5t32.5 6t43 -0.5t37.5 -1q15 1 53 6.5t57 5.5q35 -1 100 -11.5t91 -12.5q64 -3 115 0t111.5 1.5t102.5 -11.5q11 -13 13 -30.5t-4 -39t-13.5 -41t-19 -45t-16.5 -41.5q-16 -44 -74 -214.5t-94 -254.5q13 0 41.5 2.5t47.5 3t40 -3t31 -17t8 -36.5 q-17 -17 -49.5 -23t-78.5 -7t-69 -5q-110 -260 -184 -498q-6 -18 -12.5 -55t-16.5 -64.5t-29 -48.5q-21 0 -26 -0.5t-19.5 6t-17.5 7.5q-5 49 7.5 100t41 120t37.5 97q17 46 49.5 155t54.5 163q-25 8 -59 4.5t-69.5 -5t-64 0t-43.5 20.5t-7 55q25 2 86.5 3t109 5.5 t86.5 14.5q43 102 113 305.5t108 296.5q-71 -9 -213.5 6.5t-203.5 15.5q-21 0 -59 -5.5t-67.5 -9t-60.5 -2t-51 17.5t-27 47z" />
<glyph unicode="8" horiz-adv-x="1058" d="M78.5 346.5q-2.5 45.5 13.5 89.5t32.5 77.5t48 68t59.5 60t67.5 53t72 48t72.5 44.5q1 1 2 1q-148 63 -216 183.5t1 253.5q41 79 120 147.5t163 79.5q144 17 250 -52.5t123 -189.5q26 -201 -234 -422q66 -31 115.5 -61.5t101 -76t83.5 -105.5t42 -133q12 -112 -55 -236 t-160 -166q-91 -43 -271.5 -41.5t-262.5 45.5q-56 27 -100 97.5t-58 132.5q-7 57 -9.5 102.5zM167.5 260.5q15.5 -110.5 82.5 -158.5q44 -29 158 -35t176 5q11 2 39.5 4.5t52 6t35.5 9.5q74 25 136 130t58 198q-4 55 -30 101t-54 74t-84 57t-87 41t-97 35q-9 3 -14 5 q-14 -10 -106 -68t-149.5 -108t-88.5 -106q-43 -80 -27.5 -190.5zM276 1055q0 -43 31 -79t67.5 -55t89 -43t71.5 -36q47 32 81.5 58.5t78.5 67t72 87t38 94.5q8 49 -10 100.5t-54 75.5q-9 6 -74 27.5t-69 23.5q-53 8 -112 -21.5t-104.5 -78.5t-75.5 -109.5t-30 -111.5z" />
<glyph unicode="9" horiz-adv-x="790" d="M83 894.5q-4 72.5 11.5 144.5t50 142t82 124.5t112 90.5t134.5 42q28 3 82 0t86 0q9 11 20 10.5t19 -6.5t18.5 -16t14.5 -13q-6 -209 -19 -445t-33 -537t-28 -445q-8 -6 -18.5 -7t-17 0.5t-19.5 5.5t-17 5q-14 111 2.5 332.5t9.5 334.5q-58 -15 -126.5 -19t-136 4.5 t-122 40t-75.5 81.5q-26 58 -30 130.5zM166 922q0 -130 37 -162q33 -39 112 -46.5t152.5 6t124.5 34.5q13 108 17.5 322.5t11.5 295.5q-104 10 -191.5 -23.5t-144 -97t-88 -149t-31.5 -180.5z" />
<glyph unicode=":" horiz-adv-x="569" d="M207 100q28 25 72.5 11.5t44.5 -48.5q3 -38 -34 -51t-66 12t-17 76zM236 786q5 36 38 37q25 1 62 -24q11 -44 6 -68q-50 -42 -84 -8q-26 25 -22 63z" />
<glyph unicode=";" horiz-adv-x="569" d="M182 80q-8 40 40.5 80.5t88.5 11.5q13 -48 13 -104.5t-11.5 -105t-42.5 -76t-75 -15.5q0 31 21.5 77t21.5 77q-7 14 -30.5 25t-25.5 30zM219 874q3 32 27 40.5t52 -4t44 -36.5q5 -46 -27.5 -60t-65.5 6t-30 54z" />
<glyph unicode="&#x3c;" horiz-adv-x="948" d="M78 535q0 13 22.5 36.5t48.5 42.5t57.5 41t37.5 27q337 260 547 399q33 1 47.5 -16t19.5 -51q-80 -54 -171.5 -120.5t-155.5 -115.5t-167.5 -129t-156.5 -121q58 -70 138.5 -137.5t183 -144t157.5 -123.5q2 -2 18 -14.5t21.5 -16.5t19.5 -16.5t20 -19.5t15.5 -20 t13.5 -23t7 -23.5t2 -26.5q-33 -7 -64 8.5t-75.5 59.5t-51.5 49q-42 34 -139.5 113t-171 140t-143.5 122q-5 5 -31 25t-37 32.5t-12 22.5z" />
<glyph unicode="=" horiz-adv-x="1153" d="M134 303.5q-9 22.5 5 54.5q89 3 324.5 12.5t345.5 12.5q3 0 22 1.5t41 2t50.5 0.5t53 -3.5t44.5 -10t30 -20t5 -31.5q-5 -15 -17 -23.5t-30 -10.5t-34 -1.5t-37 2.5t-30 2q-101 3 -350 -12.5t-393 -12.5q-21 15 -30 37.5zM134 686.5q-9 22.5 5 54.5q89 3 324.5 12.5 t345.5 12.5q3 0 22 1.5t41 2t50.5 0.5t53 -3.5t44.5 -10t30 -20t5 -31.5q-5 -15 -17 -23.5t-30 -10.5t-34 -1.5t-37 2.5t-30 2q-101 3 -350 -12.5t-393 -12.5q-21 15 -30 37.5z" />
<glyph unicode="&#x3e;" horiz-adv-x="868" d="M14 -33q16 14 87.5 79t95 86t85.5 75.5t97 83.5t89 73t101.5 79.5t96.5 70.5q-32 51 -79 101t-115.5 105t-113 88t-129.5 93q-5 3 -26 16.5t-33.5 22.5t-32 24t-29 28t-16.5 28.5t-1.5 30t22.5 28.5q407 -217 675 -590q-6 -16 -19 -28t-36 -25.5t-31 -19.5 q-257 -163 -528 -430q-25 -25 -42 -38.5t-39 -22.5t-41.5 1.5t-37.5 40.5z" />
<glyph unicode="?" horiz-adv-x="847" d="M104 1343q37 73 110 111t152.5 38.5t156.5 -27.5t126 -79q55 -59 86 -161t19 -203q-9 -56 -35 -104.5t-61 -83.5t-81.5 -65.5t-93 -54.5t-98.5 -48l-33 -15q-9 -57 2 -187t-8 -202q-28 -5 -74 10q-39 134 -18 437q24 11 61.5 27t64.5 27t62 28.5t60.5 33.5t53 38.5t46 47 t33 56.5t20.5 69q12 74 -6 153t-62 139t-111.5 86.5t-153.5 -3.5q-25 -8 -80 -49q-48 -35 -68 -40q-35 -9 -70 21zM260 57q3 42 45 46q41 5 72 -23q38 -35 2 -76l-8 -8q-47 -4 -80 14t-31 47z" />
<glyph unicode="@" horiz-adv-x="1130" d="M96 778q12 68 33.5 134.5t56 133.5t77 118.5t101.5 87t125 42.5q97 11 191 -12q84 -22 165.5 -89t134.5 -153.5t70 -183t-28 -176.5q-17 -32 -59 -59t-90 -39t-95.5 3.5t-72.5 63.5q-127 -280 -295 -184q-59 32 -89 132t9 200q29 71 109.5 123.5t172.5 29.5q21 -7 61 -33 t56 -53q10 -19 14.5 -53.5t6 -62t16 -53t43.5 -33.5q47 -14 82.5 15.5t50.5 77.5t12 97q-3 120 -84 221q-43 51 -112 88t-150 48t-155 -25q-70 -35 -133 -121t-100 -199t-32 -215q0 -89 63 -212.5t128 -155.5q70 -33 158 -37.5t155 24.5q26 11 86.5 62.5t108.5 54.5 q24 -17 28 -36.5t-9.5 -39t-28.5 -34t-34 -30.5q-6 -5 -9 -7q-72 -57 -184 -73.5t-222 12.5t-172 97q-85 91 -134 230.5t-26 273.5zM405 640q5 -64 48 -108q54 6 90.5 38t52.5 82t21 102t1 110q-62 12 -114.5 -21t-78 -86t-20.5 -117z" />
<glyph unicode="A" horiz-adv-x="856" d="M-8 56q4 22 11 48.5t7 32.5q56 238 181 683t171 630q18 10 32 12h4q12 0 20 -8q10 -8 16 -17.5t10.5 -29.5t6.5 -33.5t5 -37t5 -33.5q36 -115 93.5 -310t105.5 -347t94 -277q16 -84 65 -168q49 -88 49 -183q-16 -16 -29.5 -19.5t-23.5 4t-18 19.5t-14.5 29.5t-11 33 t-9.5 31t-8 21.5q-31 93 -109 284t-98 249q-43 15 -100.5 15t-120.5 -7.5t-84 -7.5q-36 -89 -89 -277t-75 -256q0 -141 -49 -141q-25 0 -33 19q-5 13 -5 27q0 6 1 14zM256 748q36 0 86 5t91 5t89 -10q-6 29 -26 128t-29.5 139t-31.5 105.5t-48 112.5q-14 -96 -65 -248.5 t-66 -236.5z" />
<glyph unicode="B" horiz-adv-x="935" d="M127 258v1192q91 17 181 18h5q87 0 171 -18q86 -18 153.5 -54.5t111.5 -99t52 -143.5q1 -16 1 -33q0 -56 -16 -108q-21 -67 -62.5 -119t-91 -92t-108.5 -70q316 -107 350 -356q2 -22 3 -42q0 -69 -26 -128q-33 -77 -97 -125q-66 -48 -150 -74q-68 -21 -145 -21 q-17 0 -37 1q-98 6 -195 43q0 -17 -16.5 -26.5t-36.5 7.5q-22 22 -33 67t-12.5 80t-1.5 101zM201 1376q12 -81 12 -277v-31v-27q0 -199 14 -279q203 8 339.5 95t160.5 253v16q0 44 -14 82q-17 44 -42.5 71.5t-74.5 47t-87 29t-103 14.5t-100.5 5.5t-99.5 0.5h-5zM227 121 q102 -55 224 -55q33 0 67 4q162 19 223 116q39 78 39 162q0 35 -7 70q-23 121 -101 166q-28 28 -71.5 48t-84 30t-99 15t-95.5 6t-95 1v-563z" />
<glyph unicode="C" horiz-adv-x="917" d="M73 583q-3 48 -3 96q0 139 24 271q32 178 110.5 330t188.5 217q44 9 91 9q50 0 100 -10q100 -20 170.5 -68.5t83.5 -108.5q-27 -5 -42.5 -4t-30 11t-23.5 20t-22.5 23t-27.5 20q-67 45 -141 45q-19 0 -39 -3q-94 -15 -145 -94q-107 -95 -165 -289q-54 -179 -55 -377 q0 -17 1 -33q5 -216 71 -384q32 -53 101 -124t114 -87q24 -9 55 -9q10 0 22 1q45 4 72.5 11.5t62 19.5t46.5 14q7 10 25.5 47.5t36 62.5t32.5 25q38 0 38 -28q0 -25 -31 -74l-22 -33q-22 -31 -23 -37q-32 -23 -76 -43q-45 -22 -98 -36q-40 -11 -83 -11q-13 -1 -26 1 q-56 4 -98 32q-52 23 -118.5 106t-107.5 162q-57 140 -68 329z" />
<glyph unicode="D" horiz-adv-x="909" d="M95 1376q0 24 8 51t26 37q12 4 28 4q37 0 97 -22q84 -31 115 -31q69 -40 130.5 -87.5t123 -110t109 -143t73.5 -169.5q44 -131 44 -275q0 -141 -42 -267q-42 -127 -127 -225q-84 -98 -210 -134q-62 -18 -134 -17q-75 0 -160 19q0 18 -7.5 27.5t-16 10.5t-16 4.5 t-7.5 10.5v510q-13 132 -14 356t-15 347q0 8 -2.5 44t-2.5 60zM176 1368q23 -440 23 -1284q71 -19 134 -19q39 0 73 7q92 19 159 73t111.5 136.5t65.5 178.5q20 90 20 187v13q-2 104 -27 200q-36 195 -183.5 333t-352.5 175h-23z" />
<glyph unicode="E" horiz-adv-x="921" d="M127 408q0 685 18 1052h631q7 0 20 1q12 1 22 1h10h12q12 0 20 -2q7 -2 15 -8q8 -5 8 -14q0 -3 -2 -25q-86 -29 -193 -38q-101 -9 -231 -9h-15q-13 0 -24 1q-120 0 -185 -5q0 -102 -6 -293.5t-6 -302.5q106 -13 335.5 -14t324.5 -15q0 -17 -8 -30t-22.5 -20t-30.5 -11 t-38 -5t-37.5 -1t-37 1t-29.5 1q-65 0 -224 7t-233 7q0 -62 -3.5 -179.5t-3.5 -222.5t7 -210q33 -2 82 -2q94 0 244 8q92 5 164 6q107 0 170 -12q2 -6 2 -12q0 -14 -12 -24q-17 -16 -39 -21t-41 -5q-29 -8 -70 -8t-95 4t-81 4q-99 -12 -147 -16q-31 -3 -72 -3q-24 1 -50 1 q-74 2 -131 18q-27 107 -27 237q0 76 9 159z" />
<glyph unicode="F" horiz-adv-x="933" d="M117 788q0 77 4 210t4 241t-8 209q10 6 20.5 9t23 5.5t21.5 5.5q512 -20 637 -20q30 0 45 -1t33.5 -8.5t30.5 -23.5q-9 -21 -27.5 -34t-46 -17t-48.5 -4.5t-57 1t-49 1.5q-59 0 -162 9t-162 12q-12 1 -25 1q-54 0 -136 -10q4 -141 4 -281.5t-4 -279.5q31 -9 72 -13 q36 -3 65 -3q4 1 8 1q32 0 85.5 1.5t82.5 1.5q18 0 55 4t70 7.5t66.5 3.5t55 -8.5t24.5 -27.5q1 -14 -4 -24t-18 -16t-24 -10t-31 -5.5t-28.5 -2t-28.5 -0.5l-20 1q-219 0 -430 -8q8 -93 8 -240q-1 -37 -1 -77q-1 -91 -1 -164q0 -87 2 -146q0 -10 5.5 -32.5t3.5 -38 t-17 -25.5q-10 -3 -18 -3q-4 0 -8 1q-11 2 -19.5 3t-14.5 8t-10 12t-6 15.5t-3 18t-1 20t0.5 21.5t1 22.5t0.5 22.5q2 36 2 83q0 102 -9 258q-13 228 -13 314z" />
<glyph unicode="G" horiz-adv-x="1155" d="M82 746q28 190 125 352q40 66 98 126.5t119 102.5q36 28 54.5 41.5t58 39.5t69.5 37t69 21q26 7 51 7q13 0 26 -1q37 -6 73 -24q16 -5 25.5 -11t16 -22.5t1.5 -42.5q-24 -5 -57 9t-53 14q-37 0 -82 -16.5t-74.5 -33t-75 -46t-55.5 -35.5q-104 -86 -185.5 -222 t-120.5 -304q-18 -76 -18 -152q0 -90 25 -178q33 -114 131 -202.5t233 -122.5q59 -15 122 -15q80 0 167 24q48 16 78 68t39.5 120t13.5 148q2 43 2 84q0 35 -2 68q-1 30 -1 57q0 39 3 74q-30 4 -61 4t-65.5 -2t-53.5 -2q-8 0 -27 -0.5t-31 -0.5t-29.5 1t-28 4t-20.5 8 t-13 14t0 21q2 11 11 19t25 12.5t32 7t39 3t40 0.5t40.5 -0.5t33.5 -0.5q14 0 46.5 1t51.5 1t43.5 -2.5t39.5 -10t22 -20.5q6 -16 6 -31q0 -4 -1 -9q-2 -19 -10 -56t-8 -56q-2 -34 -5 -132.5t-6.5 -146.5t-17.5 -114.5t-38 -107.5q-13 -26 -47 -61t-58 -42q-79 -27 -167 -27 q-23 0 -47 2q-114 9 -216 45t-155 83q-124 99 -176 270q-34 112 -34 232q0 63 9 129z" />
<glyph unicode="H" horiz-adv-x="1083" d="M137 1421q9 6 21 6.5t19.5 -1t21.5 -6t18 -5.5q12 -50 12 -151q1 -68 -5 -160q-9 -150 -9 -237q0 -45 2 -74q154 -8 316.5 -8t334.5 8q4 67 11 308t22 365q0 11 14 19q7 -2 27 -10.5t33 -8.5q-14 -239 -14 -686q1 -16 1 -32v-288q0 -262 -1 -423q-16 -8 -28 -8 q-21 0 -35 22q-22 36 -21 84v580q-298 -12 -502 -12q-84 0 -152 2q-5 -63 -6 -145q0 -20 1 -39v-87q2 -44 7 -160.5t6 -138.5q0 -10 3.5 -34.5t5.5 -44.5t0 -40.5t-12 -31.5q-9 -9 -25 -9h-6q-12 0 -20.5 6.5t-13.5 20t-8 27.5t-3.5 35.5t-0.5 36.5t0.5 38.5t0.5 34.5 q-23 318 -23 732q0 241 8 515z" />
<glyph unicode="I" horiz-adv-x="483" d="M29 1424q48 27 219 40q35 2 69 4h8q29 0 52 -12q26 -14 29 -45q-6 -12 -22 -15.5t-46 -2t-39 1.5q1 -44 1 -112q0 -178 -8 -524q-4 -183 -3 -323q0 -227 10 -344q18 -2 57 4t61 1t27 -31q-5 -14 -20.5 -21.5t-30 -9.5t-41 -3.5t-37.5 -2.5q-19 -3 -75 -19 q-53 -16 -89 -15h-5q-38 1 -64 28q4 22 26.5 28.5t56.5 7.5t50 7q1 29 1 65q0 83 -4 203q-4 174 -6 290v37q0 107 9 259q10 132 10 263q0 100 -6 201q-15 0 -44.5 -2.5t-50 -3t-43 2t-36 13t-16.5 30.5z" />
<glyph unicode="J" horiz-adv-x="1126" d="M32 206q-6 31 -6 63q0 53 17 108q18 7 42.5 5.5t35.5 -11.5q-10 -43 -10 -84q0 -29 5 -57q12 -66 46 -111q28 -33 82.5 -58t112.5 -27q4 -1 7 -1q54 0 91 35q26 25 43.5 65t26.5 100.5t12.5 101t7 118.5t4.5 102q13 108 13 383v60q-1 195 -1 285v75q-29 1 -59 1 q-88 0 -183 -7q-16 -1 -52.5 -5.5t-56.5 -5.5t-45.5 2t-40.5 16.5t-22 37.5q7 14 23 20.5t30.5 6t39.5 -2.5t36 -2q442 22 646 41q6 0 18 0.5t20.5 0.5h21.5t21 -1t19 -3t16.5 -5.5t12.5 -8.5q6 -5 6 -11q0 -4 -2 -19q-2 -8 -9.5 -14t-20.5 -9.5t-24.5 -6t-31.5 -3t-30 -0.5 h-31h-25q-137 -11 -181 -22q-9 -138 -11 -414t-16.5 -483.5t-58.5 -364.5q-20 -59 -83 -91t-136 -33q-4 -1 -8 -1q-68 0 -135 23q-71 23 -107 67q-52 63 -70 145z" />
<glyph unicode="K" horiz-adv-x="1046" d="M115 1470q12 12 38 12q17 0 40 -5q20 -80 25 -194.5t5 -261t6 -233.5q100 65 206 155.5t175 159.5t178 183q23 12 46 39t39 50.5t46.5 43t69.5 21.5q23 -12 27.5 -29.5t-9 -38t-28 -37t-38 -38t-30.5 -29.5q-136 -145 -366 -348q34 -56 134.5 -233t176 -296.5 t156.5 -224.5q63 -73 63 -114v-6q-2 -28 -45 -28q-10 0 -22 2q-18 3 -50 39.5t-69 88.5t-41 57q-70 100 -193 322.5t-190 316.5q-29 -19 -69.5 -55.5t-79.5 -65.5t-83 -43q7 -128 7 -305v-26q0 -194 -17 -357q-25 -15 -45 -15t-35 15q2 90 2 185q1 83 -1 171 q-4 186 -12.5 420t-10.5 342q-8 166 -8 271q0 52 2 89z" />
<glyph unicode="L" horiz-adv-x="929" d="M110 201.5q0 27.5 0.5 70.5t0.5 54q-1 41 -1 95q0 169 12 470q10 263 10 423q0 83 -3 138q-3 13 10 16q5 -2 17 0q7 1 12 1h6q7 -1 8 -7q9 -10 15.5 -23.5t10.5 -32t6.5 -31.5t3.5 -37.5t1 -34.5v-37v-31q0 -115 -6 -283q-5 -168 -11 -294q-4 -92 -4 -201v-82 q2 -157 15 -285q36 -17 82 -26q45 -8 107 -8q15 0 30 -1q42 -1 71 1q39 2 114.5 8.5t95.5 7.5q31 5 68 5h21q49 -2 72 -24q0 -19 -9 -31.5t-21 -18.5t-33 -8.5t-36 -2.5t-40 1t-35 1q-33 -1 -109 -10t-114 -9q-295 0 -348 72q-7 8 -11.5 31t-6 59.5t-1.5 64z" />
<glyph unicode="M" horiz-adv-x="1388" d="M131 10q-2 20 -2 41q-1 29 3 60q6 54 18 128.5t16 114.5q11 92 48 499.5t73 596.5q31 13 58.5 2t51 -48t34 -58t28.5 -66q2 -3 2.5 -5t1.5 -4.5t2 -4.5q36 -85 99.5 -277t117.5 -301q34 84 133.5 364t165.5 421q11 11 19 13q5 1 14 1h10q10 -2 19 -12.5t17 -29.5 t15 -40.5t13.5 -50t11.5 -52.5t10 -54.5t7.5 -48.5t6 -42t4.5 -29q28 -193 78.5 -581.5t73.5 -548.5q-14 -21 -50 -21q-14 0 -32 3q-38 190 -88 643t-102 692q-55 -104 -147 -368t-95 -271q-2 -4 -10.5 -29t-16.5 -45.5t-21 -39.5t-26 -21q-19 -3 -34.5 6.5t-26.5 30t-19 39 t-16.5 45.5t-13.5 38q-136 394 -228 594q-31 -186 -70.5 -577.5t-58.5 -538.5q-2 -12 -3 -30t-1 -33t-2 -33t-5 -30t-9.5 -25.5t-15.5 -17.5t-23.5 -6t-34.5 7z" />
<glyph unicode="N" horiz-adv-x="1177" d="M133 1466q16 6 33 6q55 0 113 -67q86 -101 168.5 -233.5t187.5 -321.5q44 -80 154 -287t163 -299q-26 612 -39 1188q18 11 44.5 9t43.5 -9q13 -215 29 -668.5t33 -666.5q1 -15 5 -39q6 -31 5 -40q0 -12 -6 -32q-19 -10 -36 -10q-56 0 -100 96q-1 2 -11 25q-11 20 -43 90 t-50 98q-34 57 -95 173.5t-95 174.5q-126 233 -207 367q5 -8 -1 1q-4 6 -25 36q-155 226 -168 237q11 -133 11 -462t-7 -510q0 -130 -4 -183q-1 -14 -1 -40t-1 -44t-5 -37.5t-16 -30t-31 -10.5q-10 1 -17.5 7t-12 18t-7 22.5t-3.5 28t-1.5 27.5t0 29t0.5 24q2 49 9 225 q8 176 10 300q1 69 1 140q0 57 -1 117q0 89 -14 279q-13 177 -13 260v12z" />
<glyph unicode="O" horiz-adv-x="1210" d="M74 545q-8 61 -8 125q0 118 28 247q44 198 127 332q61 98 161 168t230 74h13q203 0 315 -92q60 -54 115 -144q25 -39 50 -91.5t32 -82.5q8 -34 10 -80q1 -31 1 -54v-22q-1 -30 -5.5 -89.5t-5.5 -77.5q-32 -550 -217 -709q-53 -47 -128.5 -66.5t-140.5 -19.5h-21 q-112 0 -204 39q-102 43 -171.5 123t-115 185.5t-65.5 234.5zM170 542q20 -170 94 -298q30 -50 73.5 -91t105.5 -74t134 -41q21 -2 44 -1q54 0 116 12q57 13 103.5 50t77 94t53 119.5t35.5 143.5t20 148.5t12 149.5q2 32 6.5 84t7.5 86q2 22 2 47v27q-2 40 -10 69 q-25 105 -97.5 204.5t-149.5 131.5q-51 19 -109 19h-11q-64 -2 -118.5 -15.5t-101.5 -36.5q-101 -68 -175 -205q-72 -137 -102 -295q-18 -94 -18 -193q0 -66 8 -135z" />
<glyph unicode="P" horiz-adv-x="882" d="M123 594q-1 38 -1 95q0 129 6 351q4 126 4 218q0 143 -9 202q13 -1 28 -1q39 1 98 9q66 10 110 10q11 0 20 -1q132 -12 252.5 -102.5t175.5 -211.5q41 -107 41 -203q0 -48 -10 -94q-32 -136 -134.5 -230.5t-242.5 -119.5q-33 -4 -71 -5q-19 0 -42.5 -0.5t-51.5 0.5 q-56 1 -73 1q0 -70 8.5 -182t11.5 -172q1 -14 0 -31q0 -54 -7 -131q-12 -3 -23 -3q-11 -1 -21 3q-18 6 -28 24t-16 37.5t-7.5 48.5t-1.5 50t1 50t1 40q0 14 -18 348zM213 1378q10 -121 10 -248q0 -128 -3 -278q-2 -90 -2 -167q0 -51 1 -97q38 -4 75 -4q100 0 192 32 q126 44 202 139q71 90 70 205v15q-3 78 -35 152t-84 129.5t-121 93.5q-68 40 -146 46q-17 1 -34 1q-61 0 -125 -19z" />
<glyph unicode="Q" horiz-adv-x="1204" d="M70 639q12 319 123 528q31 60 61 106t75.5 94t95.5 77.5t119 43.5q40 9 84 9q30 0 62 -4q59 -7 122.5 -34.5t105.5 -63.5q130 -115 185 -336q37 -149 37 -307q0 -76 -8 -154q-27 -240 -122 -426q12 -27 38 -51t50.5 -39t47 -41.5t30.5 -58.5q-20 -15 -37 -20 q-7 -1 -14 -1q-10 0 -19 3q-16 7 -26 14t-27 22q-11 8 -31.5 30t-37.5 39t-23 17q-14 0 -45.5 -33t-34.5 -35q-86 -49 -213 -54q-13 -1 -27 -1q-111 0 -209 37q-92 32 -141.5 69.5t-104.5 114.5q-55 73 -67 99q-51 117 -51 291q0 31 2 65zM162 621q-1 -17 -1 -34 q0 -127 47 -251q53 -139 132 -201q50 -40 127.5 -64.5t156.5 -27.5h15q72 0 137 27q71 29 105 90q-17 20 -49 55t-57.5 65t-47.5 58q-9 11 -37.5 42t-43 48t-31.5 47.5t-23 59.5q22 11 42.5 11t35.5 -7t32.5 -22.5t28.5 -29t26.5 -33.5t24.5 -30q15 -17 49.5 -61.5 t59.5 -70.5t51 -40q57 145 81 326q13 94 13 188q0 87 -11 174q-22 181 -95 295q-59 90 -116.5 127.5t-166.5 44.5q-4 0 -19 0.5t-29.5 0.5t-25.5 -1q-66 -10 -132.5 -67.5t-115.5 -138.5t-84 -169.5t-48 -165.5q-29 -169 -31 -245z" />
<glyph unicode="R" horiz-adv-x="933" d="M114 1346q-1 10 -1 22q0 17 2 37q3 34 12 61q55 0 158 21q83 17 137 17q13 0 24 -1q114 -11 204.5 -94t128.5 -199q23 -69 22 -135q0 -45 -10 -88q-11 -43 -37 -84.5t-48 -65.5t-66 -68l-15 -15q53 -11 92 -43t61.5 -72.5t37.5 -100.5t21 -113t9 -126q1 -25 5 -79 q3 -54 5 -84q1 -22 1 -50q1 -10 1 -20q0 -40 -6 -68q-35 -14 -55.5 -8t-27 26.5t-9 48.5t0 59t-0.5 58q-13 333 -68 436q-11 7 -31.5 27.5t-35.5 28.5q-21 2 -45 2q-74 0 -168 -21q-124 -28 -181 -30q-6 -103 -8 -329.5t-4 -303.5q-11 -6 -23 -6q-2 0 -4 -1q-12 0 -28 3 q-18 3 -25 4q-12 153 -12 384.5t4 419.5q1 62 1 130q0 136 -5 295q-1 19 -6 60t-7 65zM213 1374q18 -255 18 -567v-90q90 9 167.5 32.5t144.5 62.5t109.5 101.5t52.5 141.5q2 18 2 36q0 73 -39 155q-49 102 -123 147q-45 25 -107 27h-20q-50 0 -96 -11q-54 -13 -109 -35z " />
<glyph unicode="S" horiz-adv-x="1114" d="M94 264q-5 28 -5 50q0 46 24 67q33 3 50 -12t18 -38t2.5 -47t2.5 -38q11 -44 34.5 -88t51.5 -66q31 -23 81.5 -34.5t82.5 -13t82 -1.5h6q84 1 160 27q78 28 131.5 75t86 110.5t37.5 131.5q1 11 1 23q0 57 -21 116q-25 71 -81 131q-42 44 -123 73t-158 42t-157.5 38 t-120.5 62q-45 38 -77 122q-28 75 -28 144v17q5 80 44 150t102 115q62 44 136 68q53 17 111 17q23 -1 47 -3q83 -10 156 -52q101 -56 101 -109q0 -10 -3 -20q-46 9 -92 33.5t-73 42.5t-79 29q-20 4 -41 4q-34 0 -71 -11q-50 -12 -97 -50t-81 -89q-34 -50 -50 -110 q-13 -48 -12 -93v-22q4 -55 38.5 -103t97.5 -73q45 -18 125.5 -26t95.5 -11q105 -23 196.5 -85.5t150.5 -154.5q60 -90 64 -204v-14q0 -107 -67 -224q-56 -92 -193 -148q-132 -54 -280 -54h-11q-154 2 -253 67q-42 23 -86 97t-56 142z" />
<glyph unicode="T" horiz-adv-x="937" d="M-16 1442q23 15 58.5 21.5t64 6.5t81.5 -2t80 -2q180 0 336 -12q20 -1 57.5 1t69 3.5t63 0.5t49 -13t15.5 -33q0 -35 -68 -42q-28 -3 -62 -3q-48 0 -112 6q-108 10 -110 10v-48q0 -124 7 -390q4 -154 4 -271q0 -129 -5 -212q-1 -16 -5 -55t-5.5 -57t-3 -59t1.5 -61 q0 -12 1 -32.5t1.5 -37.5t1 -38.5t-0.5 -38.5t-3.5 -34t-8.5 -28.5t-14.5 -18.5t-22 -7t-30.5 8q-20 68 -22 164v33q0 76 6 139q1 43 6.5 193t7 222t2.5 195v48q0 95 -3 178q-4 103 -13 202q-62 7 -157 7q-38 0 -81 -1q-8 -1 -34.5 -3.5t-38 -3t-34.5 -0.5t-34 4t-24 11 q-13 8 -17 20q-4 10 -4 24v6z" />
<glyph unicode="U" horiz-adv-x="1167" d="M126 1113v77v122q0 146 1 175q21 10 38 10q57 0 68 -115q2 -24 2 -71q0 -57 -3 -148q-1 -28 -1 -45q1 -34 1 -79t-1 -99q-2 -88 -2 -147q1 -15 1 -27q0 -64 12 -159.5t39 -188.5q6 -22 18.5 -68.5t20.5 -74t20 -62.5t24.5 -60t26.5 -42q43 -47 117 -72q38 -13 75 -13 q34 0 66 11q73 28 130.5 126t84.5 218q95 383 95 784q0 72 -3 144q0 13 -6 54q-4 26 -4 47q0 13 2 24q4 30 21 53q8 1 15 1q12 0 20 -2q16 -4 25 -16.5t16.5 -25.5t10.5 -35.5t5 -38.5q1 -11 1 -26v-18q-1 -28 -1.5 -41.5t-3 -40t-2.5 -34.5q-10 -374 -74 -755 q-53 -293 -172 -412q-62 -65 -160 -85q-39 -8 -79 -8q-58 0 -116 18q-96 30 -149 106q-46 67 -104 283l-6 24q-20 79 -33.5 177t-20.5 172.5t-11 201.5t-4 181z" />
<glyph unicode="V" horiz-adv-x="909" d="M-29 1415q19 7 35 7t27 -5t20.5 -15.5t15.5 -22.5t11.5 -28.5t9 -30t8 -31t8.5 -27.5q11 -34 39.5 -115t40.5 -119q167 -588 240 -872q90 245 219.5 735t161.5 598q28 9 47 9q38 0 42 -36q1 -7 1 -14q0 -49 -30 -110q-4 -12 -6.5 -18.5t-5.5 -16.5t-5 -17 q-20 -71 -68 -263.5t-86 -313.5q-20 -67 -49.5 -181t-57 -209t-59.5 -182q-2 -6 -10.5 -36.5t-16 -49t-20.5 -42t-32 -31.5q-10 -4 -21 -5q-10 0 -22 4q-15 5 -31.5 36t-31 78.5t-25.5 91t-21.5 89.5t-13.5 56q-24 82 -82.5 286.5t-101.5 346.5t-87 276q-3 8 -14 40 t-15.5 47.5t-9.5 41.5q-4 22 -4 42v7z" />
<glyph unicode="W" horiz-adv-x="1579" d="M-12 1464q20 9 34 9q5 0 10 -1q18 -4 33.5 -28t26 -53t20.5 -68.5t17.5 -74t17.5 -69t19 -53.5q145 -592 289 -991q37 60 75.5 138.5t85.5 181.5t72 155q3 7 9 21.5t10.5 27t12 28.5t14.5 27.5t17 24t20.5 17t24 7.5t27.5 -5q36 -15 80 -178q9 -27 35.5 -116t41.5 -133.5 t44 -104t61 -93.5q20 77 80 315t104 396t95 307q10 30 29 100t37.5 120t44.5 93q6 2 13 2.5t12.5 -1t12.5 -5t11.5 -6t12 -7.5t11.5 -7q-39 -140 -118 -378.5t-137.5 -440.5t-88.5 -385q-25 -165 -59 -216q-20 -30 -45 -30q-16 0 -32.5 11.5t-33 32.5t-30.5 43t-29 52.5 t-24.5 50.5t-21 47t-14.5 33q-61 137 -116 352q-62 -89 -160.5 -309.5t-165.5 -312.5q-13 -4 -23 -4h-9q-14 2 -23 5.5t-16.5 13.5t-12 19t-9 24t-7 28t-7.5 30t-10 31q-65 178 -164.5 544t-130.5 470q-24 76 -46.5 170.5t-26.5 142.5z" />
<glyph unicode="X" horiz-adv-x="987" d="M2 1470q17 8 33 8.5t30 -6.5t25.5 -17t23.5 -25.5t21 -29t20 -31.5t19 -28q74 -108 264 -411q46 76 96.5 196.5t101.5 231.5t107 186q28 -3 43 -11.5t19 -19.5t-1 -28t-12.5 -30t-18.5 -32q-3 -5 -5 -8q-26 -48 -67 -152t-62 -149q-7 -14 -33 -61.5t-39 -79.5 q-61 -131 -61 -148q0 -21 15.5 -52.5t32 -55t44.5 -61t35 -46.5q64 -96 166 -261.5t166 -260.5q4 -5 14 -16.5t17 -19.5q6 -8 12 -20q4 -9 4 -19v-5q-2 -12 -11 -24q-13 -6 -27 -6q-1 0 -2 -1q-12 -1 -24 5t-23.5 14.5t-23.5 21.5t-22 25.5t-20.5 29t-19 29.5t-18.5 28.5 t-16 25.5q-56 80 -171.5 272.5t-176.5 273.5q-15 -25 -31.5 -56t-30 -58.5t-32.5 -68.5t-30 -66.5t-32 -74.5t-30 -70.5t-31 -75.5t-29 -70q-5 -12 -12 -34t-13.5 -41t-15 -40.5t-18.5 -35t-22.5 -22.5t-29.5 -6t-37 19q0 9 -6 12q139 408 338 799q-21 33 -130 216t-177 276 q-8 11 -38 45q-30 32 -42 60q-8 18 -9 38q0 11 3 22z" />
<glyph unicode="Y" horiz-adv-x="813" d="M-41 1434q0 14 12 19t33 6.5t29 4.5q70 -93 137 -203.5t149.5 -259.5t124.5 -219q66 85 121 209.5t110 270.5t101 233q6 1 12 1q8 0 14 -2q10 -4 21.5 -12.5t18.5 -11.5q-12 -72 -37 -152.5t-44 -128t-59 -142.5q-26 -58 -92 -191q-16 -30 -43 -71.5t-41.5 -66.5 t-26.5 -72.5t-12 -108.5q0 -209 19 -443q0 -10 6 -37t3 -43t-21 -30q-10 -5 -16 -5q-2 0 -3 1q-7 1 -20.5 5.5t-22.5 4.5q-17 78 -26 188.5t-10 183t-1 199.5q0 11 1.5 34.5t1.5 43t-3 33.5q-4 26 -22.5 59t-48.5 77t-39 60q-20 36 -57.5 99.5t-53.5 91.5q-35 63 -108 187 t-107 188z" />
<glyph unicode="Z" horiz-adv-x="872" d="M-14 43q-1 4 -1 8q0 16 11 41q14 32 40.5 74.5t31.5 52.5q61 108 279.5 529t357.5 636q-90 9 -268.5 10t-239.5 5h-7q-20 0 -30.5 0.5t-28.5 2.5t-28.5 7t-21.5 14t-15 23.5t-3 35.5h13q21 1 59 0q75 0 214 -4q114 -3 196 -3q68 0 114 2q11 0 37.5 0.5t40 0.5t35.5 -1 t33.5 -4.5t24.5 -9t18.5 -14.5t5.5 -22q0 -11 -8.5 -24.5t-17.5 -22.5t-23 -21.5t-17 -15.5q-36 -50 -93 -160t-79 -147q-96 -169 -270.5 -506t-230.5 -440q260 -35 468 -35q71 0 136 4q43 4 73 4q43 0 58 -9q12 -8 12 -21q0 -11 -8 -25q-5 -14 -17 -20t-23 -6t-37.5 2 t-43.5 2q-48 -3 -96 -4h-41h-72q-66 2 -92 2.5t-111.5 4t-91.5 3.5q-18 1 -58.5 2.5t-65.5 3t-54.5 6t-45.5 14.5t-19 25z" />
<glyph unicode="[" horiz-adv-x="493" d="M153.5 6q-0.5 28 9.5 68.5t11 54.5q4 18 0 92t-4 94q-1 66 6 193.5t8 183.5q0 39 -10 113.5t-12 99.5q-3 77 3 203t3 203q0 16 -3 56t-3 61.5t11 45t36 31.5h4v2h6q17 3 27 0q23 -1 77.5 1t91 -0.5t62.5 -12.5q1 -4 5 -12.5t5.5 -13t3 -15.5t-1.5 -20q-156 -31 -229 -13 q-2 -6 -2 -22q-8 -130 1.5 -376.5t8.5 -338.5q-1 -76 0.5 -212.5t0.5 -245t-7 -203.5q129 4 174 -13l4 -8t4.5 -8.5t3.5 -8.5t2.5 -10.5t0 -11.5t-1.5 -14q-208 -33 -263 0q-2 0 -14 4q-18 25 -18.5 53z" />
<glyph unicode="\" horiz-adv-x="681" d="M-6.5 1395q-3.5 15 6.5 24.5t33 12.5q21 2 37.5 -7t28.5 -28.5t19 -37t17 -46t15 -41.5q27 -70 86 -184.5t86 -184.5q16 -36 35 -105t32 -98q27 -60 84.5 -171t81.5 -167q9 -21 23 -57t25.5 -63.5t25.5 -51.5q7 -10 26 -35t27.5 -39t16 -38t3.5 -47q-3 -5 -7 -8.5 t-9.5 -5.5t-10.5 -3t-13.5 -1.5t-13.5 -0.5h-16h-16q-50 90 -100 197t-107.5 239t-93.5 209q-43 91 -132.5 317.5t-149.5 340.5q-2 5 -13.5 22.5t-17 30t-9 27.5z" />
<glyph unicode="]" horiz-adv-x="493" d="M18 8q31 -3 98.5 0t98.5 0q1 16 4 32.5t7.5 37t6.5 31.5q2 44 2 61.5t-2.5 61t-3.5 63.5q-1 66 6.5 193t8.5 184q0 39 -10.5 113t-12.5 100q-3 77 3 202.5t3 202.5q0 11 -4.5 60.5t0.5 60.5q-28 -3 -52 -3.5t-50 1.5t-43 8t-30 16t-12 26.5t11 39.5q49 -3 92.5 -0.5 t92.5 0.5t79 -12l4 -8q1 -2 4.5 -9.5t4.5 -11.5q3 -12 0 -33q-1 -8 -4 -25t-3 -22q-8 -130 2 -375.5t9 -338.5q-1 -68 0 -226t-1 -270.5t-10 -216.5q-5 -1 -11.5 -4t-8.5 -4q-2 -2 -2 -9q-49 -8 -93.5 -12.5t-102 -3.5t-81 23.5t-0.5 66.5z" />
<glyph unicode="^" horiz-adv-x="1228" d="M33 752q226 412 590 675q9 -3 18 -9.5t14 -11.5t12.5 -15.5t10 -15l10 -18t8.5 -16.5q162 -253 430 -528q20 -20 31.5 -33t22.5 -32t11 -33.5t-10.5 -31t-35.5 -30.5q-368 408 -547 652q-51 -32 -101 -79t-105 -115.5t-88 -113t-93 -129.5q-2 -3 -15.5 -25t-22 -33.5 t-24.5 -32t-28.5 -29.5t-28 -16.5t-30.5 -2t-29 22.5z" />
<glyph unicode="_" horiz-adv-x="1024" d="M240 -213q4 16 16.5 23t24.5 6.5t35 -2.5t34 -2q23 1 196.5 20.5t258.5 15.5l5 -6q6 -6 7 -7.5t6 -7.5t6.5 -9t4.5 -8.5t4 -9.5t1.5 -9.5t-0.5 -11t-3 -10.5q-214 -4 -357 -19q-20 -3 -59.5 -9.5t-59 -9.5t-52 -4.5t-38.5 5.5q-13 6 -23.5 21.5t-6.5 33.5z" />
<glyph unicode="`" d="M-44 1491.5q1 23.5 21 46.5q73 -28 165 -117.5t153 -185.5q-4 -5 -11 -21t-15.5 -25.5t-22.5 -10.5q-19 10 -31.5 25.5t-27 38t-29.5 38.5q-19 20 -49 44t-55 42.5t-49 41t-37 41.5t-12 42.5z" />
<glyph unicode="a" horiz-adv-x="811" d="M-4 0q-1 36 24.5 99t28.5 75q38 134 92.5 352.5t106 406.5t108.5 349q41 121 72 168q12 9 24 11h6q10 0 16 -5q10 -7 17.5 -14.5t14.5 -24.5t12 -29t10.5 -33t8 -31t6.5 -30q23 -100 51.5 -306t38.5 -261q3 -13 21 -23t22 -18q2 -16 -13 -27t-12 -28q53 -214 144 -500 q3 -8 8.5 -24.5t9 -26.5t8 -25.5t6 -27.5t1.5 -26t-3 -26q-11 -5 -23 -5q-2 0 -4 -1q-12 0 -26 3q-18 3 -24 3q-117 363 -193 668q-44 5 -90 5q-101 0 -211 -23q-25 -73 -75 -257.5t-81 -271.5q-2 -5 -7.5 -24t-9.5 -29.5t-12.5 -26t-17.5 -21.5t-23.5 -6t-31.5 11zM272 705 q28 1 81 4.5t97.5 5.5t86.5 2q-46 388 -91 559q-32 -79 -61 -173t-62 -216.5t-51 -181.5z" />
<glyph unicode="b" horiz-adv-x="974" d="M109 37q-1 53 -1 116q0 239 15 616q16 411 16 625v62q3 3 9 6t10 6q43 4 85 4q101 0 201 -20q144 -28 224 -88q45 -34 75 -90t37 -120q3 -23 2 -46q0 -40 -7 -78q-12 -60 -53 -110t-104 -72q178 -29 254 -181q49 -98 50 -222q0 -68 -15 -144q-68 -300 -473 -338 q-29 -3 -58 -3q-62 0 -124 12q-88 18 -143 65zM188 68q93 -29 203 -30q37 0 75 4q154 13 245 81q65 49 103 175q29 95 29 182q0 28 -3 55q-10 72 -49.5 125t-100.5 82q-60 30 -137 46q-71 15 -147 15q-6 -1 -14 -1q-84 -2 -173 -9q-2 -49 -13.5 -203t-16.5 -282 q-3 -71 -3 -137q0 -53 2 -103zM219 872q80 0 146 5.5t135.5 23t115.5 45.5q47 30 74 78q22 40 22 90q0 11 -1 23q-4 38 -36 92t-63 80q-108 88 -381 92q-12 -3 -12 -19q4 -78 4 -159.5t-2 -184t-2 -166.5z" />
<glyph unicode="c" horiz-adv-x="952" d="M70 823q13 201 77.5 360.5t184.5 223.5q62 33 132 49q55 13 115 12h33q78 -4 138 -36q47 -26 73 -54q20 -22 20 -52q0 -8 -1 -17q-29 -2 -51 6t-33 19.5t-27 26t-31 21.5q-45 15 -96 15q-23 0 -47 -3q-77 -10 -139 -42q-88 -42 -150 -152t-88 -251q-25 -138 -26 -284v-5 q0 -148 34.5 -283t94.5 -217q69 -94 195 -114q24 -4 47 -3q100 0 188 68q30 27 62.5 95.5t53.5 94.5q35 -17 47 -45q7 -16 7 -32q1 -12 -3 -23q-8 -27 -28 -57t-38 -49.5t-34 -33.5q-122 -99 -256 -99q-16 0 -32 1q-130 14 -220 88t-136 194.5t-62 262.5q-9 83 -9 177 q0 67 5 138z" />
<glyph unicode="d" horiz-adv-x="1034" d="M72 389q-1 77 0 148q0 113 2 207q4 154 10 377.5t8 353.5q8 9 19 12q17 -3 34.5 -15.5t26.5 -15.5q102 -24 175.5 -45t154.5 -53.5t147 -76.5t119 -101q88 -91 133 -233q32 -101 32 -209q0 -43 -5 -87q-7 -67 -48.5 -182.5t-80.5 -185.5q-56 -110 -167 -190.5 t-253 -106.5q-40 -7 -82 -7q-103 0 -211 46q-12 163 -14 364zM159 452q1 -192 19 -378q71 -17 135 -17q93 0 172 35q89 37 172 144.5t131.5 230.5t53.5 221q2 26 2 52q0 97 -29 190q-37 118 -102 194q-152 172 -523 246q-6 -3 -6 -18q-2 -92 -14 -400q-11 -285 -11 -469v-31 z" />
<glyph unicode="e" horiz-adv-x="935" d="M100 -23q-2 66 -2 156q0 219 14 579q12 315 12 524q0 128 -5 216q61 25 152.5 34t236 11t188.5 4q12 0 40 3q28 2 48 3h11q15 1 31 -1q22 -2 33 -14.5t9 -33.5q-9 -12 -22 -19t-32 -9.5t-31 -3.5t-36.5 0t-31.5 1q-31 -1 -122 -3.5t-140.5 -4.5t-119 -9t-116.5 -19 q1 -73 1 -149q0 -229 -7 -484q137 -11 252 -11q79 0 147 5q20 1 63.5 8t68 9t53 -7.5t43.5 -34.5q-14 -14 -36 -21.5t-39.5 -9.5t-50 -3.5t-46.5 -2.5q-147 -15 -304 -15q-71 0 -145 3q-4 -63 -15.5 -206.5t-16.5 -239.5t-5 -199q85 -10 143 -10q15 0 27 1q64 3 175.5 12 t170.5 9q135 0 191 -37q-15 -36 -46 -44q-13 -3 -30 -4q-24 0 -55 6q-54 10 -72 11q-58 0 -182.5 -11t-225 -11t-176.5 22z" />
<glyph unicode="f" horiz-adv-x="882" d="M72 1448q3 5 9 7.5t9 4.5q76 -3 190 -3t254 1.5t195 1.5h23q9 1 15.5 1t10.5 -1q8 0 23.5 -1t24 -4t19.5 -7.5t18.5 -12t13.5 -18.5q-57 -31 -153 -40q-58 -5 -114 -5q-37 0 -72 2q-72 5 -155 5q-20 0 -41 -1q-107 -1 -174 -18q10 -84 12 -174q2 -51 2 -113 q0 -50 -1 -107q-1 -87 -1 -143v-49q35 -4 139.5 -18t161.5 -17q22 0 84 7q44 6 80 6q14 0 27 -1q45 -3 76 -24q-3 -11 -9.5 -19t-17 -14t-19 -10t-24 -6.5t-23 -4t-24.5 -3t-21 -2.5q-20 -2 -45 -2q-72 0 -181 13q-148 17 -204 17q-8 -63 -8 -175q0 -78 4 -179q3 -85 3 -153 q0 -128 -11 -195q-8 -6 -19 -6q-3 -1 -5 -1q-8 0 -14 1q-7 2 -21 6.5t-19 5.5q-4 117 -4 377q0 151 2 351v160q0 410 -16 560z" />
<glyph unicode="g" horiz-adv-x="1185" d="M70 680q10 117 42 227t81 193q28 51 84 113t112 108q61 50 137.5 89t139.5 46q37 5 69 5q49 0 85 -11q58 -19 85 -86q-13 -3 -26 -3q-24 0 -49 11q-40 16 -48 17q-15 1 -31 1q-52 0 -102 -16q-65 -20 -122.5 -62t-99 -82t-87.5 -93q-68 -78 -113.5 -193.5t-59.5 -236.5 q-4 -37 -4 -73q0 -84 22 -166q32 -118 112 -192q13 -12 47.5 -33t50.5 -34q12 -10 40.5 -40.5t45.5 -39.5q70 -39 199 -69q62 -15 110 -15q50 0 84 16q38 18 69.5 86.5t47.5 140t25 148.5q5 54 5 100q0 68 -11 121q-35 -2 -101 -10t-109 -13q-16 -1 -33 -1q-29 0 -62 5 q-51 8 -82 32q3 20 15 31.5t32.5 14t39 2.5t45.5 -2.5t40 -2.5q26 1 103 11q68 10 113 10h13q47 -2 78 -21q15 -84 15 -180q0 -59 -5 -123q-16 -166 -65 -275q-37 -77 -89 -117q-48 -36 -129 -36h-16q-113 4 -230 37.5t-188 78.5q-19 12 -48 43.5t-44 42.5q-12 8 -36 23.5 t-40 27t-28 23.5q-75 75 -107 190q-24 87 -24 176q0 28 2 56z" />
<glyph unicode="h" horiz-adv-x="1042" d="M110 1376q-1 15 -1.5 27t1.5 21q2 18 13 30q38 -3 63 -16q10 -77 10 -182.5t-4 -193.5q-2 -39 -2 -86q0 -57 3 -124q23 5 144.5 30.5t170.5 34.5q50 9 144 19q86 10 161 10h14q19 59 19 221v47v51q0 156 16 201q7 16 12 19q4 2 11 4h4q10 0 17 -4q9 -5 14 -17.5t8 -25 t4 -32.5t1 -33.5t-0.5 -35t-0.5 -30.5q0 -117 -15.5 -341.5t-15.5 -330.5q0 -67 16 -286q9 -121 9 -199q0 -64 -6 -99q-6 -5 -27.5 -2.5t-30.5 2.5q-38 310 -38 580q0 115 7 223q-50 5 -100 5q-55 0 -109 -6q-103 -11 -239.5 -41t-189.5 -38v-41q-1 -133 15 -362 q18 -266 19 -383q-12 -8 -38.5 -8t-30.5 12q-59 388 -59 875q0 221 12 462q1 13 -1 43z" />
<glyph unicode="i" horiz-adv-x="372" d="M116 1123q0 65 5 157.5t16 167.5q12 18 39 18h8q34 -2 45 -20q-2 -88 -9 -277t-9 -281q-3 -93 -5 -288q-1 -51 0 -96q0 -125 5 -199q1 -16 5 -64t5 -68.5t1.5 -56t-3.5 -62.5t-12 -52q-25 -10 -40 -10t-20 10q-15 8 -18.5 22t0.5 37.5t4 30.5q-6 130 -9 372.5t-5 319.5 q0 48 -1.5 161t-1.5 178z" />
<glyph unicode="j" horiz-adv-x="1181" d="M111 230q-8 41 -8 81q0 85 34 166q32 -13 44 -46q9 -25 9 -52q0 -9 -1 -19q-4 -38 -4 -81.5t8 -77.5q7 -26 20.5 -46t34 -42.5t31.5 -38.5q66 -32 126 -32q26 0 52 6q83 21 127 97q20 32 34.5 76.5t22 83.5t13.5 104t7.5 103.5t4.5 118.5t4 114q2 53 2 121q0 197 -19 520 q-29 3 -62 3q-29 0 -62 -3q-69 -4 -130 -12q-25 -4 -48 -4q-34 0 -66 8q-53 12 -76 52q21 14 44 18t57.5 2t45.5 -2q336 15 672 45q9 0 28 1.5t31 1.5q2 1 4 1q10 0 23 -3q14 -2 23 -11t14 -25q-6 -12 -18 -19.5t-22 -9t-29 -3.5t-27 -3q-208 -30 -340 -32q29 -204 35 -448 q1 -59 1 -116q0 -183 -14 -356q-14 -175 -55 -294t-131 -171q-47 -26 -111 -27h-7q-59 0 -112 16q-56 17 -100 46q-86 61 -110 189z" />
<glyph unicode="k" horiz-adv-x="931" d="M96 1446q0 19 22 19q18 0 52 -13q24 -86 30 -218q3 -69 3 -134q0 -60 -3 -116t-2 -116q0 -65 3 -135q79 58 174.5 137t158.5 134.5t171 152.5q9 8 27 29t33 35.5t34.5 27t40.5 10t43 -21.5q1 -14 -7 -27.5t-16.5 -21t-26.5 -20t-24 -17.5q-41 -33 -128 -117.5 t-136 -122.5q17 -43 60.5 -158.5t79.5 -200t75 -157.5q67 -120 110 -190q72 -116 99 -203q-18 -7 -34.5 -7t-29.5 5.5t-25.5 16.5t-21.5 23t-19 28t-16 29t-14 29l-12 24q-200 344 -320 694q-59 -34 -148 -115.5t-122 -105.5q2 -60 10 -153t14 -158q7 -66 9 -158v-34 q0 -70 -9 -118q-9 -1 -18.5 -2t-14 -1t-11.5 0.5t-17 2.5q-12 16 -16 35.5t-3 52.5t1 41q-2 58 -26 332q-19 218 -18 358q0 36 1 66q3 75 3 158q0 181 -16 401z" />
<glyph unicode="l" horiz-adv-x="909" d="M128 504q2 274 10 479q2 65 2 137q0 152 -11 330q-2 10 3 14.5t14.5 4.5t18.5 -1.5t19 -3.5t13 -2q14 -27 20 -64q7 -36 7 -62v-14q0 -24 -2 -60q-2 -50 -1 -70q-1 -41 7 -138q5 -69 6 -114q0 -18 -1 -31q-20 -242 -20 -465q0 -186 14 -358q32 -3 111 -12.5t123 -12.5 q16 -1 37 -1q40 0 102 4q36 2 67 2q51 0 87 -6q58 -9 94 -48q-26 -22 -64 -26q-15 -2 -34 -2q-27 0 -61 4q-57 6 -75 6q-263 10 -377 27q-47 7 -90 16q-19 176 -19 420v47z" />
<glyph unicode="m" horiz-adv-x="1388" d="M104 -12q5 39 41 304t50 415q5 54 17 233t26 290t41 210q29 8 54.5 -0.5t45.5 -32.5t31.5 -43t25.5 -47q17 -28 32.5 -63t32.5 -79t25 -63q46 -102 205 -412q36 42 76 150t69 217.5t61.5 227t51.5 163.5q24 14 39 16h4q12 0 19 -12q8 -14 11.5 -25.5t7.5 -40.5t7 -44 q50 -186 70 -338q7 -62 29 -172.5t30 -165.5q11 -60 32.5 -178t33.5 -186.5t25.5 -160.5t19.5 -163q-18 -10 -33 -12q-2 0 -4 -1q-12 0 -22 8q-12 9 -21.5 22.5t-16.5 35.5t-12.5 42t-9.5 46.5t-6.5 45t-5.5 42t-4 33.5q-71 499 -166 973q-28 -120 -116.5 -350.5 t-135.5 -307.5q-22 -2 -40.5 5.5t-34 25t-24.5 30.5t-23 39.5t-19 34.5q-85 160 -273 580q-19 -58 -32 -139.5t-17 -142.5t-10 -176t-10 -167q-6 -50 -15.5 -165.5t-19.5 -192.5q-3 -15 -8 -60q-21 -177 -52 -230q-19 -33 -45 -33q-17 0 -37 14z" />
<glyph unicode="n" horiz-adv-x="1077" d="M98 -2q15 421 31 661q28 421 37 787q32 8 62.5 -1.5t58 -35.5t43 -44.5t37.5 -49.5h-1q-6 0 214 -366l59 -96q-2 5 -16 30q60 -107 144.5 -287.5t135.5 -308.5q1 35 1 78q0 191 -22 553q-26 442 -28 565q20 10 37 10q24 0 45 -20q14 -172 31 -696t47 -771 q-19 -11 -37 -11h-3q-19 1 -30 6t-25 25.5t-17.5 28t-15.5 33.5l-3 6q-27 59 -108.5 266t-133.5 299q-204 382 -387 637q0 -82 -35 -671t-35 -621q-34 -11 -58 -11q-16 0 -28 5z" />
<glyph unicode="o" horiz-adv-x="1181" d="M56 780q6 122 39.5 240t88 212t138 160.5t184.5 88.5h12q13 3 41 3q20 0 47 -2q66 -4 99 -14q114 -29 228 -128t169 -212q52 -101 52 -240q0 -135 -40 -280q-100 -446 -283 -569q-85 -53 -175 -67q-34 -5 -67 -6q-55 0 -103 14q-78 22 -148.5 70t-122.5 113t-84 140 q-44 107 -63 231q-14 92 -14 184q0 31 2 62zM148 660q6 -172 59 -324q33 -87 120.5 -187t161.5 -114q23 -4 48 -5q61 0 129 24q98 34 147 79q80 76 128.5 196.5t82.5 284.5q46 208 46 308q0 12 -1 22q-7 95 -55.5 174.5t-124.5 161.5q-75 76 -161 106q-55 19 -127 19 q-41 0 -89 -6q-119 -38 -206 -153q-88 -114 -126 -264q-34 -131 -33 -279q0 -21 1 -43z" />
<glyph unicode="p" horiz-adv-x="864" d="M117 344q-1 57 -1 110q0 132 4 240q5 152 13.5 376.5t11.5 354.5q43 54 238 54q132 0 238 -76t153 -186q24 -59 28 -141q1 -18 1 -36q0 -64 -11 -127q-15 -80 -47.5 -152t-76.5 -110q-50 -42 -128 -67q-71 -23 -152 -23h-19q-92 3 -160 45q-2 -26 -2 -80q0 -34 1 -78 q1 -84 1 -122v-23q-1 -11 -1 -25q0 -34 4 -82q4 -52 4 -97v-25q-2 -55 -19 -99h-6q-13 0 -31 3q-22 4 -27 4q-14 164 -16 362zM203 664q93 -25 163 -32q18 -2 37 -2q52 0 103 14q71 20 121 73q52 52 75 146q16 69 16 140q0 24 -2 49q-8 96 -45 183t-96 127q-25 16 -54 25 t-66.5 11.5t-64 2.5t-79 -2t-78.5 -2q1 -31 1 -66q0 -142 -13 -355q-16 -266 -18 -312z" />
<glyph unicode="q" horiz-adv-x="1204" d="M52 775q-1 5 -1 12q0 27 2 81q12 155 78 316t143 211q51 28 128 54.5t139 33.5q28 3 55 3q140 0 256 -91q3 -11 -1.5 -26t1.5 -17q23 -30 73 -83t90 -104.5t64 -107.5q37 -94 49 -221q6 -53 6 -105q0 -71 -10 -139q-34 -212 -141 -408q12 -21 40.5 -46.5t49.5 -52.5 t25 -62q-27 -21 -52.5 -9t-41.5 34.5t-33 44.5t-27 22q-8 0 -48 -39.5t-50 -42.5q-51 -25 -132 -41q-68 -13 -145 -13h-29q-93 3 -157 31q-51 19 -115.5 60.5t-91.5 68.5q-26 26 -45.5 63.5t-29.5 69t-17.5 88t-9.5 87t-6 99.5q0 8 -0.5 12.5t-1 11t-0.5 12.5q-2 27 -8 97.5 t-6 95.5zM154 412q5 -71 27.5 -141.5t54.5 -104.5q20 -24 85.5 -61.5t108.5 -49.5q61 -15 128 -17q11 -1 23 -1q55 0 108 9q65 12 117.5 47.5t76.5 90.5q-30 58 -126 175t-126 198q20 5 34.5 6t29 -7.5t24 -17t20.5 -24t18.5 -28t17 -28t16.5 -24.5q22 -34 73 -91t68 -81 q53 102 85 240q30 129 30 270v18q-2 151 -46 261q-16 37 -41 74.5t-42 58t-54.5 62.5t-48.5 54q-5 5 -13 15q-34 39 -51 54t-49 25q-26 8 -61 8q-11 0 -23 -1q-96 -8 -190 -39.5t-135 -77.5q-151 -176 -151 -605q0 -123 12 -267z" />
<glyph unicode="r" horiz-adv-x="903" d="M98 704q-1 55 -0.5 154t0.5 242q2 286 2 338q112 46 253 47q11 0 23 -1q155 -4 249 -65q80 -50 129 -147q48 -98 56 -202l2 -32q0 -86 -34 -170q-40 -98 -127 -149q17 -54 31.5 -115t30 -136t26.5 -120q10 -40 32.5 -114.5t37 -132.5t18.5 -109q-11 -5 -20 -5q-5 -1 -9 1 q-14 4 -23 6.5t-16.5 13t-12.5 18.5t-9 22.5t-6.5 24.5l-6 24l-5.5 22q-24 81 -72.5 272.5t-73.5 276.5q-40 -12 -111 -44q-72 -32 -132 -50q-52 -15 -108 -15h-19q-7 -34 -7 -118q0 -67 4 -167q9 -187 9 -250v-20q-16 -7 -23 -6.5t-23.5 8.5t-23.5 10q-19 164 -29 371 t-12 317zM183 883q2 -151 14 -254q94 16 176.5 43.5t159.5 71t126.5 110.5t59.5 150q4 32 4 63q0 58 -14 108q-21 77 -69 127q-48 52 -118 82q-68 30 -152 30h-3q-86 0 -183 -25q2 -62 2 -121.5t-2 -117.5q-2 -70 -2 -152q0 -55 1 -115z" />
<glyph unicode="s" horiz-adv-x="1077" d="M42 331q4 35 24 44q39 17 53.5 -8.5t15.5 -80t6 -67.5q38 -114 297 -151q44 -8 87 -8q81 0 161 29q122 45 194 145q62 85 62 187q0 18 -2 36q-4 36 -15.5 66.5t-26 52.5t-38.5 41.5t-45 32.5t-55.5 28t-60 23.5t-67.5 23.5t-69 25q-165 60 -227 92q-212 109 -212 276 q0 46 17 101q39 130 151 207q92 64 221 64q27 0 56 -3q93 -9 162 -47t76 -109q-37 8 -90 41t-92 39q-29 6 -62 6q-37 1 -77 -7q-76 -14 -121 -42q-67 -38 -117 -136q-34 -67 -34 -133q0 -30 7 -61q22 -87 131 -141q56 -30 165 -59t210.5 -63.5t163.5 -82.5q69 -52 105 -140 q28 -69 28 -146q0 -22 -2 -44q-10 -102 -70 -184q-52 -72 -151 -126t-213 -66q-29 -3 -59 -3q-74 0 -155 19q-113 27 -200.5 82.5t-114.5 122.5q-9 21 -15 55q-4 21 -4 41q0 14 2 28z" />
<glyph unicode="t" horiz-adv-x="864" d="M-31 1460q71 8 148 10h49q48 0 86 -2q58 -3 150 -7.5t157 -6.5q11 -1 27 -1q23 0 55 2q46 3 77 3h10q32 0 66 -14t48 -45q-8 -14 -24.5 -20t-30.5 -6t-40 1.5t-36 1.5q-3 0 -107 -2q-35 -1 -58 -1q-48 0 -52 3q8 -120 10 -296q1 -117 1 -207v-83q-1 -114 -5.5 -349.5 t-5.5 -293.5q-1 -14 1 -46.5t-0.5 -56t-13.5 -42.5q-13 -4 -23 -4q-1 0 -3 -1q-9 -1 -15 3q-7 4 -12 8.5t-7.5 12t-4 14.5t-1.5 17.5v18t0.5 17.5t0.5 16q9 249 9 522q0 355 -15 750q-34 12 -91 13h-25q-44 0 -85.5 -2.5t-82.5 -2.5h-23q-52 1 -88.5 19t-45.5 57z" />
<glyph unicode="u" horiz-adv-x="1095" d="M87 1198v37q1 27 1 51q2 40 4 82q4 71 23 102h8q21 0 33 -4q16 -5 21.5 -14t6 -26t-2 -32t-6.5 -38.5t-5 -40.5q-1 -21 -1 -49q0 -92 15 -256q20 -214 21 -232q24 -344 80 -499q13 -42 39.5 -88.5t56.5 -73.5t83.5 -48t120.5 -28q14 -1 27 -1q52 0 99 21q45 20 81.5 93 t57.5 170.5t32.5 185.5t14.5 166q3 60 3 128q0 167 -19 384q-3 24 -10.5 67t-12 71t-3.5 63.5t13 62.5q23 2 37.5 -4.5t21.5 -21.5t10 -27.5t5 -34t4 -31.5q33 -193 42 -419q2 -52 2 -105q0 -175 -23 -355q-30 -234 -105 -356q-44 -70 -136 -102q-60 -20 -126 -20 q-36 0 -72 6q-106 17 -190 79q-58 43 -99 117t-65 177.5t-36.5 193.5t-22.5 217q-2 18 -8 87.5t-7.5 93t-6 82t-5 90t-1.5 79.5z" />
<glyph unicode="v" horiz-adv-x="874" d="M-20 1460q32 -2 55.5 -18t36 -37.5t21 -54.5t11.5 -59t6.5 -62.5t6.5 -54.5q22 -156 55.5 -319.5t90.5 -404t71 -303.5q25 61 63 186.5t47 153.5q29 91 101.5 325.5t113.5 361.5q13 39 33 115.5t37.5 130t40.5 93.5q1 1 5 13.5t13 13.5h2q18 0 34 -14q16 -16 22 -19 q-22 -128 -60.5 -255t-93.5 -280.5t-82 -242.5q-16 -49 -60 -183.5t-65 -197.5q-8 -25 -20.5 -95t-26.5 -110q-13 -33 -20.5 -49.5t-22 -45.5t-28 -43.5t-27.5 -16.5h-4q-22 0 -41 22q-21 24 -36.5 71.5t-24.5 83.5t-19.5 90t-11.5 60q-28 112 -56 246.5t-43 218.5t-45 260 t-41 238q-5 20 -17 58q-12 36 -18 66q-4 20 -4 39q0 10 1 19z" />
<glyph unicode="w" horiz-adv-x="1269" d="M-12 1458q5 21 23 21q20 0 57 -27q13 -71 98 -579t147 -764q77 234 174 618q3 11 12 64.5t20 94.5t26 48q26 10 45 1t34 -36.5t25 -53t17 -49.5q0 -3 1 -4.5t1 -3.5q193 -481 241 -626q43 196 117.5 584.5t91.5 474.5q3 15 9.5 50t12.5 62t13.5 56.5t17.5 47.5t21 21 q11 4 19 4q5 0 9 -2q10 -4 17 -8t10 -16t3 -22q0 -3 1 -6q1 -9 -1 -21q-2 -16 -4 -28t-5 -28q-3 -15 -4 -22q-42 -190 -135.5 -627t-145.5 -666q-30 -4 -54.5 6.5t-41.5 34.5t-26 42t-21 48q-34 83 -103.5 293t-115.5 308q-42 -112 -100.5 -331t-87.5 -308 q-3 -10 -10.5 -35.5t-14 -45t-14.5 -42t-17 -36t-18 -16.5q-7 -2 -13 -2q-13 0 -25 7q-18 10 -31 35t-23.5 49t-19.5 64.5t-13.5 63t-11 63t-7.5 46.5l-75 387q-13 73 -29 210t-29 202q-8 48 -24 127t-27.5 144.5t-15.5 127.5z" />
<glyph unicode="x" horiz-adv-x="765" d="M-10 2q25 89 60 171t95.5 201t81.5 163q3 6 27.5 54t36.5 78.5t12 49.5q0 17 -13 47.5t-35 72.5t-28 56q-86 222 -118 371q-5 25 -20 70.5t-22.5 79.5t-3.5 59q6 12 21 18h6q15 0 27 -9q14 -11 23 -32.5t14.5 -43t12 -52t11.5 -47.5q72 -313 174 -484q36 79 76 158.5 t102.5 200t81.5 157.5q2 3 17 39.5t22.5 50.5t26.5 34.5t41 27.5q10 -15 13 -34t3 -32.5t-9 -37.5t-13 -32.5t-18 -35.5t-15 -29q-29 -69 -93.5 -190t-94.5 -189q-7 -17 -31 -59t-39.5 -77t-15.5 -58q0 -50 73 -182q118 -220 174 -334q2 -4 12 -21t14.5 -25t12.5 -24 t10.5 -27t4 -26t-1.5 -28t-11 -25q-23 0 -40.5 9t-32 30.5t-20.5 33t-17 38.5l-1.5 3t-1 3t-1.5 3q-36 74 -114 225.5t-114 225.5q-28 -56 -134 -282.5t-173 -340.5q-14 3 -31 14t-24 13z" />
<glyph unicode="y" horiz-adv-x="856" d="M-23 1452q22 3 41.5 -2.5t38.5 -23t29 -27.5t30 -37t23 -31q45 -57 97 -129.5t86.5 -124t93.5 -141t84 -127.5q45 84 86.5 212.5t83.5 253.5t90 208q8 3 16 3q14 0 29 -8q24 -12 39 -32q-21 -80 -53.5 -173t-75.5 -207t-64 -173q-6 -17 -42 -97t-42 -132q-7 -50 -10 -108 t-4.5 -130t-3.5 -111q-2 -23 -2 -78q0 -14 1 -30v-12q0 -71 -6 -120q-6 -53 -24 -98q-21 0 -34.5 6t-19.5 14.5t-8 23t-1 26t2.5 29.5t1.5 28q0 3 0.5 118t5.5 177q2 27 7 74t8 81q4 29 4 64v10q-1 41 -7 72q-3 12 -12.5 27t-29.5 39t-25 31q-28 37 -60 87t-69 113.5 t-52 87.5q-70 110 -133 187q-6 7 -43.5 48t-55 70.5t-20.5 61.5z" />
<glyph unicode="z" horiz-adv-x="792" d="M-34 68q1 12 9.5 34t15 36t19.5 39t19 38q29 58 68.5 129.5t64 112.5t78.5 130.5t65 108.5q38 63 74 130t75 148.5t61 128.5t66 146.5t56 126.5q-66 -3 -223.5 -20.5t-253.5 -20.5q-12 0 -40.5 -2t-44 -1t-34.5 5.5t-28 19t-9 38.5q38 17 86 22t111 5t98 3q46 4 142 18 t141 17q4 0 20 2t22 2.5t20 1.5h12.5h9.5q7 -1 19.5 -2t20 -4t16.5 -7.5t16 -11.5t12 -16q-60 -174 -150.5 -363t-170.5 -328.5t-188.5 -331.5t-177.5 -326q53 4 251.5 14t303.5 23q14 2 55.5 8.5t65 7.5t54 -0.5t48 -16.5t23.5 -42q-15 -18 -37 -23.5t-45.5 -4t-54.5 -1.5 q-178 -21 -416 -31q-32 -2 -84 -8.5t-92 -9.5q-20 -2 -38 -2t-34 2q-30 2 -50.5 9t-31.5 15t-13 24q-2 11 -2 21v7z" />
<glyph unicode="{" horiz-adv-x="770" d="M125 725q0 15 57.5 67.5t65.5 73.5q13 34 18 86q2 25 7.5 104.5t10.5 116t16.5 95.5t32 99.5t50.5 70.5q103 99 227 80q54 -10 68 -26t6 -42q-10 -19 -26 -20.5t-39 6.5t-33 8q-65 -4 -120 -59t-77 -125q-17 -56 -25 -144t-11 -154.5t-25.5 -132.5t-67.5 -98 q11 -17 47.5 -57.5t50.5 -71.5q24 -48 32 -123.5t7.5 -145.5t4 -136.5t29.5 -111.5t75 -54q27 -6 55.5 -3t52.5 -4t27 -30q2 -19 -17 -28.5t-48 -9.5t-51.5 2t-37.5 5q-20 5 -53.5 19t-44.5 24q-39 32 -57.5 99t-22.5 145.5t-8 157.5t-24 149.5t-60 106.5q-3 2 -27.5 11.5 t-43 21.5t-21.5 28z" />
<glyph unicode="|" horiz-adv-x="454" d="M169.5 12q-0.5 28 9.5 68.5t11 54.5q4 13 1 92.5t-3 94.5q-1 63 6 187.5t7 188.5q0 34 -10 105.5t-11 107.5q-3 77 3 203t3 203q0 16 -3 56t-3 61.5t11 45t36 31.5q21 8 32 3t16.5 -12t6 -21.5t-1.5 -26.5t-4 -27t-2 -22q-8 -132 3 -376t10 -341q-3 -135 -1 -241t0 -237 t-12 -233q-3 -1 -13 -6t-14 -6.5t-12.5 -5t-13 -4t-11.5 -1.5t-12 0.5t-10 4.5q-18 25 -18.5 53z" />
<glyph unicode="}" horiz-adv-x="681" d="M68 45q20 12 90 17t94 32q21 25 29.5 64.5t8 72.5t-3.5 92.5t-3 90.5q2 133 98 233q-36 25 -105 86q-24 47 -31.5 118.5t-4.5 145.5t5 147.5t-8.5 141.5t-39.5 111q-3 1 -18 3t-19.5 3t-17 3.5t-17.5 5t-14.5 6.5t-14 8.5t-9 11t-7.5 14.5q22 35 66 27.5t87.5 -33 t61.5 -49.5q27 -38 34 -113t3 -157.5t-5 -164.5t17.5 -150t61.5 -97q18 -12 36 -15t34.5 -11t39.5 -36q-13 -16 -42.5 -43.5t-47 -46.5t-33.5 -54t-18 -77q-3 -38 3 -130.5t-3.5 -155t-48.5 -101.5q-28 -28 -62 -43q-27 -11 -61 -17t-67.5 -5t-53.5 17.5t-14 47.5z" />
<glyph unicode="~" horiz-adv-x="1310" d="M168 391q-5 62 31 157q2 8 4 11q17 31 40 58.5t58.5 54.5t74 32t85.5 -10q28 -13 92 -66t86 -69q24 -17 59 -51t60.5 -58t61.5 -43.5t71 -19.5q55 0 112 56t93 128.5t41 128.5q-1 7 1.5 11.5t9 6t11 2t15 0t12.5 -0.5q21 -33 21.5 -73t-17 -80.5t-40 -74.5t-50.5 -67 q-14 -15 -24 -26t-26 -25t-30 -23.5t-32.5 -19t-36.5 -13.5t-40 -4t-45 6q-26 7 -49 17.5t-48.5 29.5t-39.5 30.5t-46 41.5t-44 41q-18 14 -59 41t-58 39q-14 10 -37 33t-40 35t-33 12q-32 0 -73 -37.5t-56 -66.5q-10 -16 -19 -64t-20.5 -86t-28.5 -41q-43 -7 -47 47z" />
<glyph unicode="&#xa1;" horiz-adv-x="530" d="M215 1083q4 6 10 11q43 2 71.5 -13t29.5 -45q2 -45 -40 -51q-38 -7 -68 20q-38 34 -3 78zM215.5 -313q-0.5 19 5 50.5t6.5 41.5q2 25 -3 77.5t-3 82.5q1 33 5.5 131.5t5.5 139t-1 140.5q-1 44 -6.5 133t-7 139t3.5 115.5t19 112.5q20 3 37.5 -1t24 -7.5t24.5 -14.5 q-3 -130 2 -369.5t3 -444.5t-20 -361q-16 -22 -43.5 -18.5t-42.5 22.5q-9 12 -9.5 31z" />
<glyph unicode="&#xa2;" horiz-adv-x="1112" d="M104 594q24 144 79 258t152.5 198.5t227.5 112.5q-3 107 19 172q10 10 20 12t21.5 -6.5t15.5 -12.5t16 -17q-1 -20 -7 -59.5t-5 -69.5l51 -6t55 -7t50.5 -8.5t47.5 -14t36 -21t25.5 -31.5t6.5 -43q-9 2 -54.5 16t-73.5 20.5t-72 7t-78 -13.5q-13 -191 1 -542t11 -480 q92 -9 168 27q18 9 49 32.5t51.5 37.5t47.5 13.5t49 -28.5q-47 -66 -140.5 -111.5t-211.5 -49.5q-15 -24 -9.5 -54.5t3 -66t-24.5 -47.5q-29 -2 -43 14t-15 41t-1.5 53.5t-2.5 52.5q-112 12 -207.5 63.5t-159.5 131.5t-91.5 191t-6.5 235zM197 631q-57 -236 48.5 -397 t323.5 -181q0 436 -26 1010q-93 -35 -177.5 -105t-119.5 -167q-2 -8 -7.5 -39t-11.5 -47q-4 -13 -15.5 -37.5t-14.5 -36.5z" />
<glyph unicode="&#xa3;" horiz-adv-x="1007" d="M90 -6q3 87 30 195t53 219.5t28 212.5q-64 -7 -95 29q-25 28 -3 53q28 31 110 22q3 17 15 82.5t17 90t18 83.5t22 88t26 77t34 77.5t40.5 62.5t50.5 57q46 42 120.5 83.5t133.5 48.5q85 9 156.5 -10.5t85.5 -75.5q-13 -16 -31.5 -19t-35 3t-40.5 13.5t-41 8.5 q-114 3 -218.5 -68t-153.5 -174q-26 -55 -42.5 -119.5t-33 -161t-23.5 -129.5q21 -4 49 -6t69 -2.5t64.5 -0.5t78 1.5t67.5 1.5q7 0 22 1t22.5 1h21t21 -1.5t17.5 -4t16 -6.5t11.5 -10t8.5 -15t3 -20q-11 -13 -29 -21t-44 -10.5t-46.5 -2.5t-56 1.5t-53.5 1.5 q-180 -4 -254 -12q-4 -51 -12 -106t-14.5 -92t-21 -101.5t-19.5 -85.5t-24 -97t-22 -87q90 -6 308 15.5t338 14.5q4 0 18.5 -1t20.5 -1.5t20 -2.5t21 -4t18 -5.5t17 -8.5t12.5 -11.5t9.5 -15t4 -19.5q-22 -18 -51 -22t-77.5 2.5t-62.5 6.5q-77 3 -147.5 -0.5t-183 -15 t-146.5 -14.5q-16 -1 -71.5 -11t-88 -7t-57.5 24z" />
<glyph unicode="&#xa4;" horiz-adv-x="1198" d="M41 274q25 38 59 62.5t58 56.5q-87 168 -71 371t118 344q-18 19 -43.5 41t-36.5 33t-19 27t0 34t31 43q26 -16 49.5 -39.5t34 -36.5t33.5 -43q9 6 22 19q90 75 221 96.5t256 -19.5t191 -137q18 3 37 22t33 40.5t33.5 40t37.5 20.5q25 3 43 -5.5t21 -29.5 q4 -21 -15.5 -43.5t-45.5 -39.5t-50.5 -37.5t-27.5 -36.5q6 -28 34.5 -70t34.5 -59q52 -134 35 -278t-92 -267q24 -24 56.5 -71.5t49.5 -65.5q-4 -5 -11 -19.5t-15 -23t-21 -8.5q-13 7 -16.5 9.5t-5.5 4.5t-1.5 4t-4 9t-13.5 18q-15 19 -71 69q-135 -161 -312 -170 q-133 -4 -254.5 46t-187.5 137q-20 -6 -42.5 -25.5t-38 -36.5t-32 -28t-32 -1.5t-29.5 43.5zM173.5 674q1.5 -121 47.5 -221q9 -16 14.5 -30t12 -24.5t22.5 -29.5q53 -78 160.5 -119t214.5 -33q91 8 170 67t127 148t71 189.5t5.5 201.5t-74.5 174q-9 13 -17.5 27.5t-15.5 24 t-20 24.5q-50 92 -170.5 127t-241.5 -2q-91 -27 -163 -109.5t-108 -188t-34.5 -226.5z" />
<glyph unicode="&#xa5;" horiz-adv-x="866" d="M-39 1425q0 14 12 19t33 7t29 5q70 -93 137 -203.5t149.5 -259.5t124.5 -219q66 85 121 209.5t110 270.5t101 233q15 3 25.5 -1t22 -12.5t18.5 -11.5q-12 -72 -36 -151.5t-44.5 -131t-58.5 -141.5q-7 -14 -93 -190q-14 -28 -49 -82q10 2 33 2q3 0 22 1.5t41 2t50.5 0.5 t53 -3.5t44.5 -10t30 -20t5 -31.5q-5 -15 -17 -23.5t-30 -10.5t-34 -1.5t-37 2.5t-30 2q-90 3 -184 -4q-21 -65 -21 -144v-45q17 1 52.5 2t54.5 2q3 0 22 1.5t41 2t50.5 0.5t53 -3.5t44.5 -10t30 -20t5 -31.5q-5 -15 -17 -23.5t-30 -10.5t-34 -1.5t-37 2.5t-30 2 q-79 2 -202 -6q7 -171 16 -303q0 -10 6 -37t3 -43.5t-21 -30.5q-12 -6 -19 -4.5t-20.5 6.5t-22.5 5q-29 129 -37 399q-158 -12 -293 -10q-21 14 -29.5 37t5.5 55q91 3 317 16v74q0 11 1.5 34t1.5 42t-3 33q-172 -13 -293 -11q-21 14 -29.5 37t5.5 55q124 5 274 15l-67 102 q-21 36 -58.5 100t-52.5 91q-35 64 -108.5 187t-106.5 187z" />
<glyph unicode="&#xa6;" horiz-adv-x="454" d="M175 -101q1 16 3 36.5t2 29.5q6 100 2.5 155.5t3.5 203.5q14 20 38 28t55 -6q1 -95 -1.5 -137.5t-1.5 -147.5q0 -3 1 -36t-0.5 -68t-7 -71t-21.5 -56t-41 -12q-14 5 -22 17t-9.5 30t-0.5 34zM175 904.5q1 16.5 3 37t2 29.5q6 100 2.5 155t3.5 203q14 20 38 28.5t55 -5.5 q1 -95 -1.5 -137.5t-1.5 -147.5q0 -3 1 -36.5t-0.5 -68t-7 -71t-21.5 -56.5t-41 -12q-14 5 -22 17t-9.5 30t-0.5 34.5z" />
<glyph unicode="&#xa7;" horiz-adv-x="1138" d="M183 673q8 93 39.5 174.5t88 144.5t123.5 83q-7 31 -42 78.5t-44 75.5q-25 73 -19 141.5t29 128.5t68 104t99 69t121.5 23.5t135.5 -32.5q145 -66 129 -147q-43 0 -109 45.5t-114 52.5q-68 10 -124.5 -17t-88.5 -78.5t-46 -113.5t-1 -128t51 -116q11 -15 24 -27t34 -29.5 t28 -23.5q19 -17 53.5 -38t45.5 -29q18 -14 56.5 -59t61.5 -66q48 -45 71.5 -70t50 -68.5t38.5 -91.5q25 -99 -13.5 -206.5t-103.5 -188.5q-11 -4 -64.5 -31.5t-90.5 -31.5q60 -44 102 -124.5t50.5 -177t-34.5 -192.5q-22 -46 -63.5 -95t-67.5 -72t-79 -68q-55 -20 -130 -24 q-100 -5 -96 44l2 10q4 17 33.5 21t70 5.5t58.5 10.5q44 20 88.5 67.5t76 111.5t46 132.5t-2 138t-67.5 120.5q-48 48 -161 102.5t-154 95.5q-29 29 -76.5 95t-58.5 98q-32 80 -24 173zM287 530q16 -66 109 -159.5t163 -100.5q64 -7 121.5 16.5t94.5 67.5t62 101.5t25 118 t-18 116.5q-20 54 -87.5 128t-141.5 126t-111 51q-75 -4 -134.5 -82.5t-82 -186.5t-0.5 -196z" />
<glyph unicode="&#xa8;" d="M-61 1284q-15 82 34 104q36 15 73 -11q26 -20 28 -50q0 -29 -23 -51t-56 -21.5t-56 29.5zM264 1296q-15 82 34 104q36 15 73 -11q26 -20 28 -50q0 -29 -23 -51t-56 -21.5t-56 29.5z" />
<glyph unicode="&#xa9;" horiz-adv-x="948" d="M54 611.5q-21 99.5 18 211.5q17 51 52.5 106.5t85 107t115.5 85t134 33.5h12q24 -1 37 1.5t32.5 -1.5t28.5 -4.5t26 -7.5t25 -9.5t24.5 -12t24.5 -14t25.5 -15.5t28.5 -17q59 -34 97.5 -71.5t62 -87t23 -114.5t-24.5 -145q-44 -150 -144 -244t-260 -112q-103 -10 -195 28 t-149.5 110.5t-78.5 172zM121 627q4 -64 49 -126t92 -89q56 -33 130.5 -36t143.5 20t130.5 67.5t93.5 101.5q24 42 49.5 132t21.5 132q-3 64 -58 123.5t-133.5 94t-150.5 34.5q-80 0 -147 -43q-81 -55 -154.5 -180.5t-66.5 -230.5zM256 713q-8 85 59 177q60 82 129 101 q86 23 124 -75q4 -9 7 -19q-25 -17 -49 -6t-30 37q-67 -29 -116 -88.5t-38 -126.5q7 -47 53.5 -61t97.5 3.5t76 51.5q37 -37 37 -93q-62 -41 -138.5 -44t-137 35t-74.5 108z" />
<glyph unicode="&#xaa;" horiz-adv-x="509" d="M35 1059.5q2 43.5 28 78.5t66.5 62.5t89 32t96.5 -11.5q2 20 -13 67t-17 58q-34 3 -60 -7.5t-41 -26t-39 -28.5t-53 -14q-12 18 -24 33q28 65 101.5 98t158.5 6q88 -187 98 -266q2 -18 -3.5 -56t-2.5 -57q3 -12 23.5 -44t13.5 -54q-7 -5 -13.5 -8t-13.5 -2.5t-12.5 0.5 t-12.5 4.5t-10.5 6t-10.5 9t-9 9t-9 9.5l-8 9q-33 -21 -95 -29t-121.5 2t-80.5 39q-28 37 -26 80.5zM123 1022q47 -20 118 -11t99 38q-8 11 -3.5 37.5t3.5 41.5q-26 22 -66 25t-75 -10t-58 -45.5t-18 -75.5z" />
<glyph unicode="&#xab;" horiz-adv-x="796" />
<glyph unicode="&#xac;" horiz-adv-x="1228" d="M78 733q162 -3 311 0t331.5 9t319.5 8q6 0 22.5 3t26 3.5t22.5 -4t22 -15.5q13 -35 5.5 -182.5t-5.5 -181.5q0 -6 3 -22t4 -29.5t1 -28t-5.5 -24.5t-15.5 -13q-26 -9 -42.5 3.5t-22.5 45t-7 53.5t-1 57v13q0 34 5 111.5t1 111.5q-260 3 -545 0q-65 -1 -113 2t-84 3 t-108 -7q-68 -6 -89 0q-43 16 -36 84z" />
<glyph unicode="&#xad;" horiz-adv-x="720" d="M93 543.5q-9 22.5 5 54.5q96 3 137.5 2t147.5 2q3 0 22 1.5t41 2t50.5 0.5t53 -3.5t44.5 -10t30 -20t5 -31.5q-5 -15 -17 -23.5t-30 -10.5t-34 -1.5t-37 2.5t-30 2q-101 3 -157.5 -2t-200.5 -2q-21 15 -30 37.5z" />
<glyph unicode="&#xae;" horiz-adv-x="894" d="M47.5 752q5.5 68 30.5 131.5t66 111t102.5 74.5t134.5 25q26 0 95.5 -17.5t101.5 -32.5q52 -25 102 -64t94 -94.5t69 -116t20.5 -134t-46.5 -143.5q-35 -59 -123 -113t-166 -72q-124 -29 -244.5 20.5t-177.5 151.5q-35 61 -49.5 133t-9 140zM131.5 654q6.5 -87 48.5 -156 q40 -65 121 -93t165 -17.5t160.5 51.5t110.5 102q41 80 36 154t-51 137.5t-108.5 108t-137.5 65t-138 8.5q-66 -12 -116.5 -68t-73.5 -130.5t-16.5 -161.5zM295 768q22 19 33 63t22 60q24 32 56.5 39t59 -6.5t42 -45.5t8.5 -73q-3 -14 -21.5 -37.5t-27.5 -42.5q9 -13 28 -25 t37 -20.5t36 -22t23 -29.5t-1 -44q-29 0 -53.5 13.5t-39 29t-40.5 27.5t-58 10q-8 -8 -3 -31.5t-3 -36.5q-29 -3 -47.5 8t-26 32t-11 42.5t-6 48.5t-7.5 41zM399 762q2 7 24 38.5t13 53.5q-21 -21 -36.5 -49t-0.5 -43z" />
<glyph unicode="&#xaf;" d="M-61 1321q69 36 200 48.5t236 -5.5q2 -6 7 -17.5t8.5 -19t3 -18t-6.5 -19.5q-28 -8 -41.5 -7.5t-43 4.5t-50.5 3q-32 -1 -79 -11t-81.5 -16.5t-69 -8t-55.5 14.5t-28 52z" />
<glyph unicode="&#xb0;" horiz-adv-x="819" d="M162 1163q15 79 73.5 137.5t149.5 61.5q40 1 98.5 -25t107.5 -72.5t54 -95.5q7 -81 -61.5 -167.5t-143.5 -98.5q-81 -13 -152 22.5t-105.5 101t-20.5 136.5zM255 1128.5q-9 -53.5 11 -100.5q109 -67 180 -33q38 20 74.5 85.5t30.5 101.5q-6 43 -64.5 76t-113.5 24 q-41 -8 -75 -54t-43 -99.5z" />
<glyph unicode="&#xb1;" horiz-adv-x="1228" d="M72 68q108 12 239 17t208.5 5.5t259 -2t241.5 -2.5q19 0 36 -1t35.5 -4.5t31 -8.5t21.5 -13.5t8 -20t-9 -26.5q-9 -15 -85.5 -18t-192 1.5t-117.5 4.5q-92 0 -410 -6q-15 0 -50 -2.5t-59 -4t-55.5 1t-51.5 10t-34.5 25t-15.5 44.5zM158.5 693q0.5 10 5.5 20 q277 -17 409 -13q19 36 9.5 70.5t-22.5 76t-5 56.5q9 20 27.5 23.5t40.5 -11.5q43 -28 43 -215q37 -17 91 -11t112 11.5t106 8.5t74 -19t14 -72q-40 -8 -86.5 -12t-91.5 -4.5t-100 -1t-113 -0.5q-16 -25 -16 -71t8 -91t2.5 -81.5t-31.5 -41.5t-40 15.5t-15.5 55t-1 75t3 76 t-1.5 57.5q-49 8 -190 12t-208 19q-2 5 -7 15l-8.5 17t-6 16.5t-2 19.5z" />
<glyph unicode="&#xb2;" horiz-adv-x="512" d="M43 702q6 54 32.5 113t61 111.5t69 106t62 115t35.5 120.5q4 32 -2 52.5t-15.5 28t-26.5 17.5t-26 18q-34 2 -58 -8t-35 -23t-21 -23.5t-24 -9t-36 20.5q7 50 48.5 81.5t91.5 37.5t98.5 -8t69.5 -45q40 -63 2 -231q-23 -91 -109 -241t-100 -198q21 -8 79 -8t112 1.5 t98.5 -9t46.5 -37.5q3 -28 -27 -42.5t-75.5 -15t-83 2.5t-62.5 8q-22 3 -56 3h-58.5t-48 4t-34.5 18t-8 40z" />
<glyph unicode="&#xb3;" horiz-adv-x="651" d="M61 1430q50 12 160 11.5t201 -11.5q59 -7 116.5 -28.5t63.5 -45.5q3 -21 -20.5 -47t-63.5 -57t-45 -35q-82 -85 -123 -144q124 8 185 -93q53 -86 34 -199q-20 -114 -101 -169q-71 -48 -169 -30q-18 14 -58 34.5t-67 42.5t-39 54q30 13 57.5 10.5t49 -17t44 -28t42 -22.5 t44 -1t50.5 37q32 35 48 101.5t2 127t-62 72.5q-38 8 -72.5 3.5t-61 -13t-50.5 3.5t-42 53q31 52 82 103t106 102t87 96q-38 10 -96 10t-107 -3t-95 0t-72.5 22.5t-27.5 59.5z" />
<glyph unicode="&#xb4;" d="M63 1174q20 76 96.5 178.5t164.5 175.5q6 -4 22.5 -8.5t27 -11.5t13.5 -21q-8 -20 -21.5 -35t-34 -32.5t-34.5 -33.5q-16 -19 -33 -46t-30.5 -51t-29 -49t-30.5 -42t-32 -28.5t-37 -10.5t-42 15z" />
<glyph unicode="&#xb6;" horiz-adv-x="1138" d="M150.5 970.5q-25.5 129.5 27.5 266.5q13 29 65 90.5t79 75.5q17 11 37 19t49 14.5t47 10t57.5 7.5t51.5 5t58.5 4t51.5 3q60 6 137.5 1.5t122.5 -27.5q-10 -1034 12 -1592q1 -20 5 -71.5t5 -80t-4 -70.5t-18 -75q-17 -3 -29.5 -4t-20.5 5t-13.5 12.5t-7.5 18.5t-3 22 t0 24t2 25t2.5 24t1.5 21q3 84 -5.5 361t-6.5 348v245q-14 237 -25 707q-29 6 -72.5 7t-79 -1t-77.5 0q-29 -418 18 -1599q5 -113 2 -137q-7 -55 -42 -55q-5 0 -9 1q-21 3 -33 21.5t-15 49t-2.5 58t3 63.5t2.5 50q0 107 -14 405t-23 443q-9 3 -38 13t-42 15t-38.5 15t-41 18 t-35 20t-34.5 25q-82 69 -107.5 198.5z" />
<glyph unicode="&#xb7;" horiz-adv-x="569" d="M219 606q-15 82 34 104q36 15 73 -11q26 -20 28 -50q0 -29 -23 -51t-56 -21.5t-56 29.5z" />
<glyph unicode="&#xb8;" d="M98 -197q3 19 3 105t16 117q19 3 30.5 -1t24.5 -15.5t18 -14.5q-9 -52 -6 -117q62 4 104.5 -29.5t55 -81t-2.5 -100t-58 -84.5q-68 -15 -120.5 5.5t-58.5 74.5q13 6 19 19q26 3 42 -17t32 -20q43 0 64 50.5t3 96.5q-32 9 -45.5 5.5t-35.5 -15.5t-36 -14q-8 3 -15.5 7.5 t-11.5 8t-11 10.5t-11 10z" />
<glyph unicode="&#xb9;" horiz-adv-x="524" d="M61 1233q0 15 108 113t132 102q17 6 38 4t30 -10q12 -76 13 -736l1 -108q-25 -3 -34 -0.5t-24 11.5t-24 12q-9 120 -9 342.5t-5 336.5q-19 5 -39.5 -12t-36.5 -40t-40 -41.5t-48 -16.5q-26 0 -43.5 11t-18.5 32z" />
<glyph unicode="&#xba;" horiz-adv-x="434" d="M18.5 1239q14.5 68 57.5 126.5t100 72.5q10 8 37 7.5t37 -7.5q79 -62 121.5 -123.5t34.5 -143.5q-6 -58 -55.5 -104t-113.5 -59t-128 8q-61 25 -83 90t-7.5 133zM78 1153q5 -45 37.5 -64t72 -13t76 22.5t49.5 36.5q23 32 19 73.5t-21 78t-49.5 58t-66.5 13.5 q-40 -10 -81.5 -85t-35.5 -120z" />
<glyph unicode="&#xbb;" horiz-adv-x="796" />
<glyph unicode="&#xbc;" horiz-adv-x="1357" d="M148 1011.5q0 113.5 3 248.5t3 188q12 17 38 16t41 -14q6 -26 4.5 -200.5t-1.5 -200.5q3 -213 -9 -371q-23 -3 -38 2t-22.5 13.5t-10.5 25t-3 29.5t0.5 35t0.5 34q-6 81 -6 194.5zM331 8.5q3 20.5 8.5 36t14.5 37.5t11 29q18 54 59 186t72.5 225t64.5 180q11 31 41.5 112 t45.5 122t38 106.5t41.5 122.5t34.5 113q8 25 21.5 73t25 85t22.5 59q14 27 41 22t41 -26q-41 -178 -111.5 -378.5t-152.5 -414.5t-127 -362q-10 -32 -28 -96t-29.5 -102.5t-29.5 -93t-36 -99.5q-29 -1 -45.5 8t-21 22t-1.5 33.5zM793 420q-4 21 15 73t40 89q41 75 122 199 t115 141q28 14 67 13.5t50 -13.5q-1 -54 -22.5 -186.5t-22.5 -205.5q9 -3 34 -7t39 -11.5t17 -24.5q-3 -20 -20.5 -28.5t-42 -13t-35.5 -13.5q-12 -87 -13 -242.5t-3 -191.5q-45 -10 -65 18.5t-17.5 79.5t8.5 112.5t12 116.5t-6 91q-16 -1 -62 -13.5t-84.5 -22t-76.5 -1.5 t-49 41zM911 483q18 6 55 14t61.5 17t41.5 23q-7 49 12.5 140.5t14.5 131.5q-2 -3 -25 -34t-28.5 -38.5t-25.5 -36.5t-27.5 -42t-23 -39.5t-23.5 -45t-17 -43t-15 -47.5z" />
<glyph unicode="&#xbd;" horiz-adv-x="1400" d="M111 1434q2 48 84 6q3 -1 4 -2q75 -527 75 -820q-22 -9 -38 -10t-26.5 7t-17 17t-10 28.5t-5 32t-3 37.5t-2.5 36q-5 55 -30 305.5t-31 362.5zM266 -119q19 112 46 233.5t66 264t66.5 238t79 266.5t70.5 237q3 10 13.5 46.5t14 48.5t13.5 44.5t15.5 47t15.5 41.5t18 43 t19 37t22.5 37.5t24.5 31.5q13 27 86 10q5 -48 -35.5 -124.5t-44.5 -90.5q-42 -105 -84.5 -231t-72.5 -224.5t-72 -255t-62.5 -235.5t-65.5 -259t-59 -237q-39 -20 -74 31zM809 602q17 50 95 111q99 77 173 76q70 -1 84 -80q10 -55 -4.5 -122t-43.5 -132.5t-60.5 -128 t-57 -127.5t-30.5 -113q25 -6 85.5 1.5t112.5 15t97.5 -4t54.5 -51.5q0 -22 -11 -31t-24 -7.5t-37.5 5.5t-38.5 4q-34 0 -97.5 -8t-105.5 -12.5t-85.5 8t-63.5 47.5q19 68 58.5 159t71.5 160t57.5 153.5t25.5 154.5q-34 2 -66.5 -18t-55 -44t-44.5 -42.5t-44.5 -14 t-45.5 40.5z" />
<glyph unicode="&#xbe;" horiz-adv-x="1153" d="M45 1423q11 2 53 11.5t80 14t76 1.5q71 -4 151.5 -24t88.5 -50q10 -33 -11.5 -72.5t-53.5 -70.5t-63.5 -64.5t-37.5 -52.5q93 -14 154 -63t61 -125q0 -57 -66.5 -122.5t-159.5 -99.5t-159 -8q-16 9 -30 32t-9 44q21 11 31 10.5t32 -6t37 -4.5q91 3 171.5 71t62.5 136 q-5 19 -15 32t-26.5 18.5t-32 8t-39 -2t-39 -7.5t-41 -12t-35.5 -12.5t-32 -12.5q-25 19 -31 39t6 42t26.5 38.5t41 42.5t38.5 41t32.5 39.5t32 38.5t24 33t18.5 36q-27 24 -71.5 26t-86.5 -6.5t-82 -13.5t-66 11.5t-30 62.5zM211 4q-3 16 9.5 44t39.5 73t33 57 q28 56 79.5 154.5t93 180.5t77.5 159q21 48 82 189t86 195t72.5 145.5t93.5 162.5q27 -6 40.5 -20.5t12 -37t-9.5 -47t-24.5 -54.5t-32 -55t-33.5 -54.5t-27 -46.5q-51 -98 -130 -287t-118 -268q-25 -47 -75.5 -130.5t-71.5 -125.5q-8 -16 -27 -66.5t-35 -81.5 q-2 -3 -12.5 -29t-19 -44t-22.5 -35.5t-26 -18.5q-18 -1 -35.5 14.5t-19.5 26.5zM588 279q101 194 321 483q20 2 50.5 -8.5t56.5 -5.5q23 -33 24.5 -84.5t-10.5 -130.5t-14 -109q3 -14 25.5 -29.5t21.5 -36.5q2 -13 -5 -19t-17 -6.5t-19.5 -4t-11.5 -11.5q-12 -47 -7.5 -162 t-13.5 -159q-47 3 -65.5 35.5t-14.5 78.5t7 98.5t-1 96.5q-33 4 -82 -12.5t-87.5 -34t-82.5 -16t-75 36.5zM727 350q109 18 197 47q0 10 14.5 107.5t3.5 154.5q-115 -138 -215 -309z" />
<glyph unicode="&#xbf;" horiz-adv-x="903" d="M137 74q7 41 23 77t35.5 64t49.5 55t55.5 46t65 40.5t66 35t69.5 33.5q27 13 40 19q9 52 5 124.5t-8.5 125.5t11.5 137q30 7 76 -8q34 -126 16 -436q-25 -12 -82 -35.5t-88.5 -37.5t-78 -42t-73 -55t-50 -68t-31.5 -90q-13 -74 5 -153t61.5 -139t111 -87t153.5 3 q14 5 26 12.5t28.5 18.5t27.5 18q22 17 32 24t29 15t37.5 2t38.5 -23q-38 -73 -111.5 -110.5t-152.5 -37.5t-156 28.5t-126 78.5q-54 60 -84.5 162t-20.5 203zM517 1018q-36 37 7 80l2 2q46 4 78.5 -15t32.5 -47q-4 -43 -48 -46q-43 -3 -72 26z" />
<glyph unicode="&#xc0;" horiz-adv-x="847" d="M-10 56.5q4 22.5 11 48.5t7 32q56 238 181 683t171 630q18 10 32 11.5t23.5 -7t16 -18t11 -29.5t6.5 -33.5t5 -37t5 -33.5q36 -115 93.5 -310t105.5 -347t94 -277q16 -84 65 -168q49 -88 49 -183q-16 -16 -29.5 -19.5t-23.5 4t-18 19.5t-14.5 29.5t-11 33t-9.5 31 t-8 21.5q-31 93 -109 284t-98 249q-43 15 -100.5 15t-120.5 -7.5t-84 -7.5q-36 -89 -89 -277t-75 -256q0 -141 -49 -141q-25 0 -33 19t-4 41.5zM163 1841.5q1 23.5 21 46.5q73 -28 165 -117.5t153 -185.5q-4 -5 -11 -21t-15.5 -25.5t-22.5 -10.5q-19 10 -31.5 25.5t-27 38 t-29.5 38.5q-19 20 -49 44t-55 42.5t-49 41t-37 41.5t-12 42.5zM254 748q36 0 86 5t91 5t89 -10q-6 29 -26 128t-29.5 139t-31.5 105.5t-48 112.5q-14 -96 -65 -248.5t-66 -236.5z" />
<glyph unicode="&#xc1;" horiz-adv-x="851" d="M-8 56.5q4 22.5 11 48.5t7 32q56 238 181 683t171 630q18 10 32 11.5t23.5 -7t16 -18t11 -29.5t6.5 -33.5t5 -37t5 -33.5q36 -115 93.5 -310t105.5 -347t94 -277q16 -84 65 -168q49 -88 49 -183q-16 -16 -29.5 -19.5t-23.5 4t-18 19.5t-14.5 29.5t-11 33t-9.5 31t-8 21.5 q-31 93 -109 284t-98 249q-43 15 -100.5 15t-120.5 -7.5t-84 -7.5q-36 -89 -89 -277t-75 -256q0 -141 -49 -141q-25 0 -33 19t-4 41.5zM256 748q36 0 86 5t91 5t89 -10q-6 29 -26 128t-29.5 139t-31.5 105.5t-48 112.5q-14 -96 -65 -248.5t-66 -236.5zM283 1540 q20 76 96.5 178.5t163.5 175.5q6 -4 22.5 -8.5t27 -11.5t13.5 -21q-10 -26 -45 -57.5t-45 -42.5q-16 -19 -33 -46t-30.5 -51t-29 -49t-30.5 -42.5t-31.5 -29t-36.5 -10.5t-42 15z" />
<glyph unicode="&#xc2;" horiz-adv-x="851" d="M-12 56.5q4 22.5 11 48.5t7 32q56 238 181 683t171 630q18 10 32 11.5t23.5 -7t16 -18t11 -29.5t6.5 -33.5t5 -37t5 -33.5q36 -115 93.5 -310t105.5 -347t94 -277q16 -84 65 -168q49 -88 49 -183q-16 -16 -29.5 -19.5t-23.5 4t-18 19.5t-14.5 29.5t-11 33t-9.5 31 t-8 21.5q-31 93 -109 284t-98 249q-43 15 -100.5 15t-120.5 -7.5t-84 -7.5q-36 -89 -89 -277t-75 -256q0 -141 -49 -141q-25 0 -33 19t-4 41.5zM162 1585q88 157 223 254q13 -6 27 -33q58 -91 161 -198q26 -26 -32 -58q-13 14 -38.5 42t-36 40.5t-29 34t-34.5 41.5t-34 45 q-25 -16 -49 -40.5t-38 -44t-42 -60.5q-7 -11 -20 -21t-29.5 -14.5t-28.5 12.5zM252 748q36 0 86 5t91 5t89 -10q-6 29 -26 128t-29.5 139t-31.5 105.5t-48 112.5q-14 -96 -65 -248.5t-66 -236.5z" />
<glyph unicode="&#xc3;" horiz-adv-x="856" d="M-8 56.5q4 22.5 11 48.5t7 32q56 238 181 683t171 630q18 10 32 11.5t23.5 -7t16 -18t11 -29.5t6.5 -33.5t5 -37t5 -33.5q36 -115 93.5 -310t105.5 -347t94 -277q16 -84 65 -168q49 -88 49 -183q-16 -16 -29.5 -19.5t-23.5 4t-18 19.5t-14.5 29.5t-11 33t-9.5 31t-8 21.5 q-31 93 -109 284t-98 249q-43 15 -100.5 15t-120.5 -7.5t-84 -7.5q-36 -89 -89 -277t-75 -256q0 -141 -49 -141q-25 0 -33 19t-4 41.5zM116 1622.5q0 25.5 3 46.5t6 27q26 44 78.5 81.5t101.5 16.5q14 -6 31.5 -20t41 -35t36.5 -31q16 -11 47 -40.5t57.5 -46.5t54.5 -17 q49 0 95 62t51 118q-1 4 0.5 6.5t5.5 3t7 1t8.5 0t7.5 -0.5q27 -45 19 -93t-42 -85q-92 -108 -164 -90q-41 10 -91.5 41t-86.5 65q-8 6 -21 23.5t-30 27.5q-40 29 -66 29q-18 0 -37 -17t-26 -34q-6 -10 -13.5 -35t-15.5 -43t-18 -20q-20 -3 -30 15.5t-10 44zM256 748 q36 0 86 5t91 5t89 -10q-6 29 -26 128t-29.5 139t-31.5 105.5t-48 112.5q-14 -96 -65 -248.5t-66 -236.5z" />
<glyph unicode="&#xc4;" horiz-adv-x="851" d="M-8 56.5q4 22.5 11 48.5t7 32q56 238 181 683t171 630q18 10 32 11.5t23.5 -7t16 -18t11 -29.5t6.5 -33.5t5 -37t5 -33.5q36 -115 93.5 -310t105.5 -347t94 -277q16 -84 65 -168q49 -88 49 -183q-16 -16 -29.5 -19.5t-23.5 4t-18 19.5t-14.5 29.5t-11 33t-9.5 31t-8 21.5 q-31 93 -109 284t-98 249q-43 15 -100.5 15t-120.5 -7.5t-84 -7.5q-36 -89 -89 -277t-75 -256q0 -141 -49 -141q-25 0 -33 19t-4 41.5zM174 1626q-15 82 34 104q36 15 73 -11q26 -20 28 -50q0 -29 -23 -51t-56 -21.5t-56 29.5zM256 748q36 0 86 5t91 5t89 -10q-6 29 -26 128 t-29.5 139t-31.5 105.5t-48 112.5q-14 -96 -65 -248.5t-66 -236.5zM500 1638q-15 82 34 104q36 15 73 -11q25 -20 28 -50q0 -29 -23 -51t-56 -21.5t-56 29.5z" />
<glyph unicode="&#xc5;" horiz-adv-x="849" d="M-12 56.5q4 22.5 11 48.5t7 32q56 238 181 683t171 630q18 10 32 11.5t23.5 -7t16 -18t11 -29.5t6.5 -33.5t5 -37t5 -33.5q36 -115 93.5 -310t105.5 -347t94 -277q16 -84 65 -168q49 -88 49 -183q-16 -16 -29.5 -19.5t-23.5 4t-18 19.5t-14.5 29.5t-11 33t-9.5 31 t-8 21.5q-31 93 -109 284t-98 249q-43 15 -100.5 15t-120.5 -7.5t-84 -7.5q-36 -89 -89 -277t-75 -256q0 -141 -49 -141q-25 0 -33 19t-4 41.5zM252 748q36 0 86 5t91 5t89 -10q-6 29 -26 128t-29.5 139t-31.5 105.5t-48 112.5q-14 -96 -65 -248.5t-66 -236.5zM270 1690 q0 82 111 82q50 0 82.5 -21.5t32.5 -62.5q0 -51 -46 -80t-116 -29h-19q-45 53 -45 111zM344 1663q0 -1 1 -4.5t3.5 -4.5t6.5 -2t10 -1q46 0 55 51q-16 8 -35 8q-21 0 -33 -8q-8 -5 -8 -25v-7v-7z" />
<glyph unicode="&#xc6;" horiz-adv-x="1599" d="M2 -4q0 13 3 27.5t6 26t10.5 27.5t11.5 24.5t13.5 26.5t12.5 24q17 35 68 130.5t83.5 169.5t51.5 150q54 77 122.5 242.5t88.5 204.5q46 93 119 211q6 11 24 41.5t27 46t24 39.5t28 42.5t26 34.5q4 1 9 6.5t9 6.5q100 -7 225 -6.5t222 -0.5q15 0 55 0.5t72.5 0.5 t67.5 -2.5t55.5 -11.5t21.5 -23q2 -45 -110 -52q-59 -2 -152.5 2t-210 10.5t-160.5 8.5q-4 -125 -8 -363.5t-4 -263.5q129 17 514 31q9 0 33.5 2.5t42 3.5t37.5 -0.5t31 -9t12 -21.5q2 -20 -16.5 -32t-51.5 -14.5t-62.5 -2t-62 3t-37.5 2.5q-66 -2 -208.5 -22t-219.5 -21 q-11 -120 2 -382t13 -300q50 -9 115.5 -9.5t113.5 3.5t131 13t121 12q6 0 27 2.5t36 3.5t38 2t39 -1.5t31 -6.5t22 -13.5t6 -23.5q-1 -18 -13.5 -26t-26 -8t-37 1.5t-34.5 1.5q-50 -2 -149 -13t-177.5 -19.5t-170.5 -8t-154 16.5q-3 52 -8 280.5t-17 343.5q-50 -8 -106.5 -5 t-102.5 10.5t-93.5 4.5t-80.5 -22q-15 -8 -30 -35t-31 -64.5t-21 -47.5q-117 -232 -153 -306q-4 -7 -10 -20.5t-10 -23.5t-11.5 -23t-14 -20t-17.5 -14.5t-22.5 -6.5t-27.5 4zM381 641q39 1 113 -0.5t133 -0.5t106 7q-4 100 3 355.5t-3 343.5q-52 -74 -98.5 -155.5 t-96.5 -189.5t-75.5 -167t-81.5 -193z" />
<glyph unicode="&#xc7;" horiz-adv-x="931" d="M73 583q-11 189 21 367t110.5 330t188.5 217q91 19 190.5 -1t170.5 -68.5t84 -108.5q-27 -5 -42.5 -4t-30 11t-23.5 20t-22.5 23t-27.5 20q-85 57 -179.5 42t-145.5 -94q-107 -95 -165.5 -289t-53.5 -410.5t71 -383.5q32 -53 101 -124t114 -87q32 -12 77 -8t72.5 11.5 t62 19.5t46.5 14q7 10 25.5 47.5t36 62.5t32.5 25q73 0 7 -102l-22 -33q-22 -31 -23 -37q-32 -23 -76.5 -43.5t-97.5 -35t-109 -10t-98 31.5q-52 23 -118.5 106t-107.5 162q-57 140 -68 329zM428 -209q5 39 3 76t0.5 79.5t14.5 65.5q19 3 30.5 -0.5t25 -15t18.5 -14.5 q-9 -52 -6 -117q82 5 127.5 -50.5t36.5 -128.5t-66 -116q-68 -15 -120 5.5t-58 74.5q13 7 19 18q26 3 41.5 -17t31.5 -20q43 0 64.5 51t3.5 97q-32 9 -45.5 5t-35.5 -16t-36 -14q-10 4 -18 9t-18 15z" />
<glyph unicode="&#xc8;" horiz-adv-x="923" d="M127 408q0 685 18 1052h631q7 0 20 1t22.5 1.5t22 0t19.5 -3t15 -8t7.5 -15t-1.5 -23.5q-86 -29 -193 -38t-245.5 -8.5t-209.5 -4.5q0 -102 -6 -293.5t-6 -302.5q106 -13 335.5 -14t324.5 -15q0 -17 -8 -30t-22.5 -20t-30.5 -11t-38 -5t-37.5 -1t-37 1t-29.5 1 q-65 0 -224 7t-233 7q0 -62 -3.5 -179.5t-3.5 -222.5t7 -210q97 -7 326 6.5t334 -6.5q7 -21 -10 -36.5t-39 -20.5t-41 -5q-29 -8 -70 -8t-95 4t-81 4q-99 -12 -147 -16.5t-121.5 -2t-131.5 18.5q-43 169 -18 396zM290 1849.5q1 23.5 21 46.5q73 -28 165 -117.5t153 -185.5 q-4 -5 -11 -21t-15.5 -25.5t-22.5 -10.5q-19 10 -31.5 25.5t-27 38t-29.5 38.5q-19 20 -49 44t-55 42.5t-49 41t-37 41.5t-12 42.5z" />
<glyph unicode="&#xc9;" horiz-adv-x="931" d="M127 408q0 685 18 1052h631q7 0 20 1t22.5 1.5t22 0t19.5 -3t15 -8t7.5 -15t-1.5 -23.5q-86 -29 -193 -38t-245.5 -8.5t-209.5 -4.5q0 -102 -6 -293.5t-6 -302.5q106 -13 335.5 -14t324.5 -15q0 -17 -8 -30t-22.5 -20t-30.5 -11t-38 -5t-37.5 -1t-37 1t-29.5 1 q-65 0 -224 7t-233 7q0 -62 -3.5 -179.5t-3.5 -222.5t7 -210q97 -7 326 6.5t334 -6.5q7 -21 -10 -36.5t-39 -20.5t-41 -5q-29 -8 -70 -8t-95 4t-81 4q-99 -12 -147 -16.5t-121.5 -2t-131.5 18.5q-43 169 -18 396zM393 1540q20 76 96.5 178.5t163.5 175.5q6 -4 23 -8.5 t27.5 -11.5t13.5 -21q-10 -26 -45 -57.5t-45 -42.5q-16 -19 -33 -46t-30.5 -51t-29 -49t-30.5 -42.5t-32 -29t-37 -10.5t-42 15z" />
<glyph unicode="&#xca;" horiz-adv-x="923" d="M127 408q0 685 18 1052h631q7 0 20 1t22.5 1.5t22 0t19.5 -3t15 -8t7.5 -15t-1.5 -23.5q-86 -29 -193 -38t-245.5 -8.5t-209.5 -4.5q0 -102 -6 -293.5t-6 -302.5q106 -13 335.5 -14t324.5 -15q0 -17 -8 -30t-22.5 -20t-30.5 -11t-38 -5t-37.5 -1t-37 1t-29.5 1 q-65 0 -224 7t-233 7q0 -62 -3.5 -179.5t-3.5 -222.5t7 -210q97 -7 326 6.5t334 -6.5q7 -21 -10 -36.5t-39 -20.5t-41 -5q-29 -8 -70 -8t-95 4t-81 4q-99 -12 -147 -16.5t-121.5 -2t-131.5 18.5q-43 169 -18 396zM258 1585q88 157 223 254q13 -6 27 -33q56 -88 162 -198 q26 -26 -33 -58q-13 14 -38.5 42t-36 40.5t-29 34t-34.5 41.5t-34 45q-25 -16 -49 -40.5t-38 -44t-42 -60.5q-7 -11 -20 -21t-29.5 -14.5t-28.5 12.5z" />
<glyph unicode="&#xcb;" horiz-adv-x="923" d="M127 408q0 685 18 1052h631q7 0 20 1t22.5 1.5t22 0t19.5 -3t15 -8t7.5 -15t-1.5 -23.5q-86 -29 -193 -38t-245.5 -8.5t-209.5 -4.5q0 -102 -6 -293.5t-6 -302.5q106 -13 335.5 -14t324.5 -15q0 -17 -8 -30t-22.5 -20t-30.5 -11t-38 -5t-37.5 -1t-37 1t-29.5 1 q-65 0 -224 7t-233 7q0 -62 -3.5 -179.5t-3.5 -222.5t7 -210q97 -7 326 6.5t334 -6.5q7 -21 -10 -36.5t-39 -20.5t-41 -5q-29 -8 -70 -8t-95 4t-81 4q-99 -12 -147 -16.5t-121.5 -2t-131.5 18.5q-43 169 -18 396zM287 1626q-15 82 34 104q36 15 73 -11q26 -20 28 -50 q0 -29 -23 -51t-56 -21.5t-56 29.5zM612 1638q-15 82 34 103q36 16 73 -10q26 -20 29 -50q0 -29 -23.5 -51t-56.5 -21.5t-56 29.5z" />
<glyph unicode="&#xcc;" horiz-adv-x="348" d="M-46 1849.5q1 23.5 21 46.5q73 -28 165 -117.5t153 -185.5q-4 -5 -11 -21t-15.5 -25.5t-22.5 -10.5q-19 10 -31.5 25.5t-27 38t-29.5 38.5q-19 20 -49 44t-55 42.5t-49 41t-37 41.5t-12 42.5zM116 1123q0 65 5 157.5t16 167.5q13 20 46.5 17.5t45.5 -19.5q-2 -88 -9 -277 t-9 -281.5t-4.5 -287.5t4.5 -295q1 -16 5 -64t5 -68.5t1.5 -56t-3.5 -62.5t-12 -52q-50 -19 -60 0q-15 8 -18.5 22t0.5 37.5t4 30.5q-6 130 -9 372.5t-5 319.5q0 48 -1.5 161t-1.5 178z" />
<glyph unicode="&#xcd;" horiz-adv-x="348" d="M51 1540q20 76 96.5 178.5t163.5 175.5q6 -4 23 -8.5t27.5 -11.5t13.5 -21q-10 -26 -45 -57.5t-45 -42.5q-16 -19 -33 -46t-30.5 -51t-29 -49t-30.5 -42.5t-32 -29t-37 -10.5t-42 15zM116 1123q0 65 5 157.5t16 167.5q13 20 46.5 17.5t45.5 -19.5q-2 -88 -9 -277 t-9 -281.5t-4.5 -287.5t4.5 -295q1 -16 5 -64t5 -68.5t1.5 -56t-3.5 -62.5t-12 -52q-50 -19 -60 0q-15 8 -18.5 22t0.5 37.5t4 30.5q-6 130 -9 372.5t-5 319.5q0 48 -1.5 161t-1.5 178z" />
<glyph unicode="&#xce;" horiz-adv-x="348" d="M-12 1585q88 157 223 254q13 -6 27 -33q58 -91 161 -198q26 -26 -32 -58q-13 14 -38.5 42t-36 40.5t-29 34t-34.5 41.5t-34 45q-25 -16 -49 -40.5t-38 -44t-42 -60.5q-7 -11 -20 -21t-29.5 -14.5t-28.5 12.5zM116 1123q0 65 5 157.5t16 167.5q13 20 46.5 17.5t45.5 -19.5 q-2 -88 -9 -277t-9 -281.5t-4.5 -287.5t4.5 -295q1 -16 5 -64t5 -68.5t1.5 -56t-3.5 -62.5t-12 -52q-50 -19 -60 0q-15 8 -18.5 22t0.5 37.5t4 30.5q-6 130 -9 372.5t-5 319.5q0 48 -1.5 161t-1.5 178z" />
<glyph unicode="&#xcf;" horiz-adv-x="348" d="M-47 1626q-15 82 34 104q36 15 73 -11q26 -20 28 -50q0 -29 -23 -51t-56 -21.5t-56 29.5zM116 1123q0 65 5 157.5t16 167.5q13 20 46.5 17.5t45.5 -19.5q-2 -88 -9 -277t-9 -281.5t-4.5 -287.5t4.5 -295q1 -16 5 -64t5 -68.5t1.5 -56t-3.5 -62.5t-12 -52q-50 -19 -60 0 q-15 8 -18.5 22t0.5 37.5t4 30.5q-6 130 -9 372.5t-5 319.5q0 48 -1.5 161t-1.5 178zM279 1638q-15 82 34 104q36 15 73 -11q26 -20 28 -50q0 -29 -23 -51t-56 -21.5t-56 29.5z" />
<glyph unicode="&#xd0;" horiz-adv-x="1366" d="M-20 887q5 30 35.5 42t66 10t79 -1.5t66.5 10.5q0 60 -8 179t-9.5 183t11.5 171q37 -2 74 -0.5t95.5 6l84.5 6.5q159 9 326 -58t262 -171q13 -13 35 -48.5t35 -50.5q161 -190 153 -465q-5 -147 -75 -321.5t-160 -247.5q-55 -44 -174 -87t-222 -62q-275 -50 -422 -13 q-13 131 -3 438t3 449q-22 2 -84.5 -6t-107.5 -2.5t-61 39.5zM301 1401q3 -27 12.5 -198t26.5 -249q42 2 69 1.5t86 -3.5t87 -4q11 0 36 1.5t44.5 2t39.5 -2.5t30.5 -14t8.5 -30q-1 -16 -13.5 -25.5t-35 -12t-42.5 -2.5t-51 1.5t-44 1.5h-215q3 -114 -6 -290.5t-12.5 -279.5 t12.5 -265q257 8 463 73q131 37 174 68q106 74 168 269t43 376q-12 108 -68 214.5t-138.5 188t-188 135.5t-212.5 62q-52 4 -138 -8t-136 -10z" />
<glyph unicode="&#xd1;" horiz-adv-x="1167" d="M133 1466q74 29 146 -61q171 -216 360 -555q41 -74 147.5 -283.5t165.5 -302.5q-16 680 -39 1188q18 11 44.5 9t43.5 -9q18 -243 32.5 -691.5t29.5 -643.5q0 -14 4.5 -38.5t5.5 -37t-6 -35.5q-78 -40 -136 86q-1 2 -11 25q-88 167 -101 188q-34 57 -91 173.5t-91 174.5 q-86 159 -211 365q-169 256 -190 276q12 -134 12 -465t-8 -507q0 -130 -4 -183q-1 -14 -1 -40t-1 -44t-5 -37.5t-16 -30t-31 -10.5q-10 1 -17.5 7t-12 18t-7 22.5t-3.5 28t-1.5 27.5t0 29t0.5 24q2 49 9 225t9.5 299.5t0.5 257.5q-1 79 -15 270t-12 281zM255 1695.5 q0 25.5 3 46.5t6 27q15 26 41 52.5t65.5 43.5t73.5 3q14 -6 31.5 -20t41 -35t36.5 -31q16 -11 47 -40.5t58 -47t55 -17.5q49 0 94.5 62.5t50.5 118.5q-1 4 0.5 6.5t5.5 3t7 1t8.5 0t7.5 -0.5q27 -45 19 -93t-42 -85q-92 -109 -164 -91q-41 10 -91.5 41.5t-86.5 65.5 q-8 6 -21 23.5t-30 27.5q-40 29 -65 29q-18 0 -37.5 -17.5t-26.5 -33.5q-6 -10 -13.5 -35.5t-15.5 -43.5t-18 -20q-20 -3 -30 15.5t-10 44z" />
<glyph unicode="&#xd2;" horiz-adv-x="1220" d="M74 545q-24 174 20.5 372t126.5 332q61 98 161 168t230 74q212 3 328 -92q60 -54 115 -144q25 -39 50 -91.5t32 -82.5q8 -34 10 -80t1 -76t-5.5 -89.5t-5.5 -77.5q-32 -550 -217 -709q-53 -47 -128.5 -66.5t-140.5 -19.5q-123 -4 -224.5 39t-171.5 123t-115.5 185.5 t-65.5 234.5zM170 542q20 -170 94 -298q30 -50 73.5 -91t105.5 -74t134 -40.5t160 10.5q57 13 103.5 50t77 94t53 119.5t35.5 143.5t20 148.5t12 149.5q2 32 6.5 84t7.5 85.5t1.5 74t-9.5 69.5q-25 105 -97.5 204.5t-149.5 131.5q-56 21 -120 19t-118.5 -15.5t-101.5 -36.5 q-101 -68 -174.5 -205t-103 -295t-9.5 -328zM366 1849.5q1 23.5 21 46.5q73 -28 165 -117.5t153 -185.5q-4 -5 -11.5 -21t-16 -25.5t-22.5 -10.5q-19 10 -31.5 25.5t-27 38t-29.5 38.5q-19 20 -48.5 44t-55 42.5t-49.5 41t-36.5 41.5t-11.5 42.5z" />
<glyph unicode="&#xd3;" horiz-adv-x="1210" d="M74 545q-24 174 20.5 372t126.5 332q61 98 161 168t230 74q212 3 328 -92q60 -54 115 -144q25 -39 50 -91.5t32 -82.5q8 -34 10 -80t1 -76t-5.5 -89.5t-5.5 -77.5q-32 -550 -217 -709q-53 -47 -128.5 -66.5t-140.5 -19.5q-123 -4 -224.5 39t-171.5 123t-115.5 185.5 t-65.5 234.5zM170 542q20 -170 94 -298q30 -50 73.5 -91t105.5 -74t134 -40.5t160 10.5q57 13 103.5 50t77 94t53 119.5t35.5 143.5t20 148.5t12 149.5q2 32 6.5 84t7.5 85.5t1.5 74t-9.5 69.5q-25 105 -97.5 204.5t-149.5 131.5q-56 21 -120 19t-118.5 -15.5t-101.5 -36.5 q-101 -68 -174.5 -205t-103 -295t-9.5 -328zM567 1540q20 76 96.5 178.5t163.5 175.5q6 -4 23 -8.5t27.5 -11.5t13.5 -21q-10 -26 -45 -57.5t-45 -42.5q-16 -19 -33 -46t-30.5 -51t-29 -49t-30.5 -42.5t-32 -29t-37 -10.5t-42 15z" />
<glyph unicode="&#xd4;" horiz-adv-x="1206" d="M74 545q-24 174 20.5 372t126.5 332q61 98 161 168t230 74q212 3 328 -92q60 -54 115 -144q25 -39 50 -91.5t32 -82.5q8 -34 10 -80t1 -76t-5.5 -89.5t-5.5 -77.5q-32 -550 -217 -709q-53 -47 -128.5 -66.5t-140.5 -19.5q-123 -4 -224.5 39t-171.5 123t-115.5 185.5 t-65.5 234.5zM170 542q20 -170 94 -298q30 -50 73.5 -91t105.5 -74t134 -40.5t160 10.5q57 13 103.5 50t77 94t53 119.5t35.5 143.5t20 148.5t12 149.5q2 32 6.5 84t7.5 85.5t1.5 74t-9.5 69.5q-25 105 -97.5 204.5t-149.5 131.5q-56 21 -120 19t-118.5 -15.5t-101.5 -36.5 q-101 -68 -174.5 -205t-103 -295t-9.5 -328zM406 1585q88 157 223 254q12 -5 26 -33q56 -88 162 -198q26 -26 -33 -58q-13 14 -38.5 42t-36 40.5t-29 34t-34.5 41.5t-34 45q-25 -16 -49 -40.5t-38 -44t-42 -60.5q-8 -11 -20 -21t-28.5 -14.5t-28.5 12.5z" />
<glyph unicode="&#xd5;" horiz-adv-x="1202" d="M74 545q-24 174 20.5 372t126.5 332q61 98 161 168t230 74q212 3 328 -92q60 -54 115 -144q25 -39 50 -91.5t32 -82.5q8 -34 10 -80t1 -76t-5.5 -89.5t-5.5 -77.5q-32 -550 -217 -709q-53 -47 -128.5 -66.5t-140.5 -19.5q-123 -4 -224.5 39t-171.5 123t-115.5 185.5 t-65.5 234.5zM170 542q20 -170 94 -298q30 -50 73.5 -91t105.5 -74t134 -40.5t160 10.5q57 13 103.5 50t77 94t53 119.5t35.5 143.5t20 148.5t12 149.5q2 32 6.5 84t7.5 85.5t1.5 74t-9.5 69.5q-25 105 -97.5 204.5t-149.5 131.5q-56 21 -120 19t-118.5 -15.5t-101.5 -36.5 q-101 -68 -174.5 -205t-103 -295t-9.5 -328zM302 1622.5q0 25.5 3 46.5t6 27q26 44 79 81.5t102 16.5q14 -6 31 -20t40.5 -34.5t36.5 -31.5q16 -11 47 -40.5t58 -46.5t55 -17q49 0 94.5 62t50.5 118q-1 4 0.5 6.5t5.5 3t7 1t8.5 0t7.5 -0.5q27 -45 19 -93t-42 -85 q-92 -108 -163 -90q-41 10 -92.5 41t-86.5 65q-8 6 -21 23.5t-30 27.5q-40 29 -65 29q-18 0 -37.5 -17.5t-26.5 -33.5q-6 -10 -13.5 -35t-15.5 -43t-18 -20q-20 -3 -30 15.5t-10 44z" />
<glyph unicode="&#xd6;" horiz-adv-x="1220" d="M74 545q-24 174 20.5 372t126.5 332q61 98 161 168t230 74q212 3 328 -92q60 -54 115 -144q25 -39 50 -91.5t32 -82.5q8 -34 10 -80t1 -76t-5.5 -89.5t-5.5 -77.5q-32 -550 -217 -709q-53 -47 -128.5 -66.5t-140.5 -19.5q-123 -4 -224.5 39t-171.5 123t-115.5 185.5 t-65.5 234.5zM170 542q20 -170 94 -298q30 -50 73.5 -91t105.5 -74t134 -40.5t160 10.5q57 13 103.5 50t77 94t53 119.5t35.5 143.5t20 148.5t12 149.5q2 32 6.5 84t7.5 85.5t1.5 74t-9.5 69.5q-25 105 -97.5 204.5t-149.5 131.5q-56 21 -120 19t-118.5 -15.5t-101.5 -36.5 q-101 -68 -174.5 -205t-103 -295t-9.5 -328zM373 1626q-15 82 34 104q36 15 73 -11q26 -20 28 -50q0 -29 -23 -51t-56 -21.5t-56 29.5zM698 1638q-15 82 34 103q36 16 73 -10q26 -20 29 -50q0 -29 -23.5 -51t-56.5 -21.5t-56 29.5z" />
<glyph unicode="&#xd7;" horiz-adv-x="1228" d="M92 10q67 83 219 252t226 262q-26 52 -61 104t-62.5 85.5t-75 90.5t-74.5 91q-4 5 -22 27t-30 38t-21.5 35.5t-6.5 30.5q16 45 105 6q10 -6 24.5 -25t31.5 -44.5t26 -36.5q20 -26 75.5 -90.5t90.5 -114.5q7 -10 21 -39t26.5 -50t21.5 -22q6 -1 16 8.5t22 25t22 30.5 t20 29.5t12 17.5q51 67 187 223q4 5 18 23.5t24 30t24 26.5t27 23.5t23 9.5q122 10 -9 -132q-5 -6 -14 -16q-10 -11 -13 -14q-51 -57 -98 -113.5t-104.5 -128.5t-100.5 -123q5 -8 25.5 -39t27.5 -41.5t25.5 -38.5t28 -41.5t26.5 -38t29.5 -40.5t28.5 -36.5t31 -38t31 -34.5 q19 -20 53 -44t61 -47t40 -50q-10 -29 -41 -31t-55 8t-45 23q-57 38 -116 111t-118.5 158t-99.5 126q-107 -103 -354 -389q-17 -21 -30.5 -33.5t-35.5 -26.5t-43 -8.5t-39 31.5z" />
<glyph unicode="&#xd8;" horiz-adv-x="1517" d="M16 74q23 39 85.5 88t82.5 74q-75 107 -103.5 245.5t-14.5 277t63 275.5q2 6 10.5 30.5t11.5 32.5t10.5 29.5t12 31.5t12.5 28t14.5 29t15 24.5t17.5 24.5q208 258 588 229q103 -9 187 -55q11 -7 29 -29t26 -29q3 -2 25.5 -20l27.5 -22t24.5 -20t26.5 -23t22.5 -22 t24.5 -26t20.5 -26.5t20.5 -30.5q25 9 48 34.5t38 49t43 38.5t64 7q13 -21 8 -44t-14 -39t-29 -34.5t-37 -31t-38.5 -29t-32.5 -27.5q17 -30 23.5 -42.5t20.5 -40t20 -43.5t15.5 -42.5t13 -48.5t7 -50.5t3 -58.5t-4.5 -63q-6 -61 -43.5 -160.5t-42.5 -118.5 q-97 -353 -303 -440q-115 -47 -244 -45t-247.5 39t-203.5 98q-3 2 -19.5 21.5t-33.5 36.5t-26 18q-16 1 -38.5 -19t-44.5 -44.5t-45.5 -45t-48.5 -20.5t-47 29zM161 629.5q10 -198.5 91 -326.5q121 90 238 187.5t253 224t211 198t234 226.5q-36 58 -71.5 101.5t-83 84.5 t-106.5 68t-130 39q-12 -13 -33.5 -14t-51.5 3.5t-44 3.5q-66 -6 -155.5 -51t-150.5 -98q-99 -88 -155 -268t-46 -378.5zM307 229q71 -102 225.5 -153t325.5 -33q82 9 155.5 59t116.5 121q46 74 99 212.5t76 246.5q42 186 -56 365q-3 0 -6.5 3t-5.5 3q-83 -53 -211 -181 q-23 -23 -81 -89t-93 -95q-47 -42 -141.5 -114t-137.5 -109q-16 -14 -118 -98t-148 -138z" />
<glyph unicode="&#xd9;" horiz-adv-x="1089" d="M87 1198q-1 48 0.5 88.5t4.5 81.5q4 71 23 102q25 1 40.5 -4t21.5 -14t6.5 -26t-2 -32t-6.5 -38.5t-5 -40.5q-6 -92 14 -305.5t21 -231.5q24 -344 80 -499q13 -42 39.5 -88.5t56.5 -73.5t83.5 -48t120.5 -28t126 20q45 20 81.5 93t57.5 170.5t32.5 185.5t14.5 166 q11 206 -16 512q-3 24 -10.5 67t-12 71t-3.5 63.5t13 62.5q23 2 37.5 -4.5t21.5 -21.5t10 -27.5t5 -34t4 -31.5q33 -193 42 -419.5t-21 -460t-105 -355.5q-44 -70 -136 -101.5t-198.5 -14.5t-189.5 79q-58 43 -99 117t-65 177.5t-36.5 193.5t-22.5 217q-2 18 -8 87.5 t-7.5 93t-6 82t-5 90t-1.5 79.5zM290 1849.5q1 23.5 21 46.5q73 -28 165 -117.5t153 -185.5q-4 -5 -11 -21t-15.5 -25.5t-22.5 -10.5q-19 10 -31.5 25.5t-27 38t-29.5 38.5q-19 20 -49 44t-55 42.5t-49 41t-37 41.5t-12 42.5z" />
<glyph unicode="&#xda;" horiz-adv-x="1103" d="M87 1198q-1 48 0.5 88.5t4.5 81.5q4 71 23 102q25 1 40.5 -4t21.5 -14t6.5 -26t-2 -32t-6.5 -38.5t-5 -40.5q-6 -92 14 -305.5t21 -231.5q24 -344 80 -499q13 -42 39.5 -88.5t56.5 -73.5t83.5 -48t120.5 -28t126 20q45 20 81.5 93t57.5 170.5t32.5 185.5t14.5 166 q11 206 -16 512q-3 24 -10.5 67t-12 71t-3.5 63.5t13 62.5q23 2 37.5 -4.5t21.5 -21.5t10 -27.5t5 -34t4 -31.5q33 -193 42 -419.5t-21 -460t-105 -355.5q-44 -70 -136 -101.5t-198.5 -14.5t-189.5 79q-58 43 -99 117t-65 177.5t-36.5 193.5t-22.5 217q-2 18 -8 87.5 t-7.5 93t-6 82t-5 90t-1.5 79.5zM393 1540q20 76 96.5 178.5t163.5 175.5q6 -4 23 -8.5t27.5 -11.5t13.5 -21q-10 -26 -45 -57.5t-45 -42.5q-16 -19 -33 -46t-30.5 -51t-29 -49t-30.5 -42.5t-32 -29t-37 -10.5t-42 15z" />
<glyph unicode="&#xdb;" horiz-adv-x="1114" d="M87 1198q-1 48 0.5 88.5t4.5 81.5q4 71 23 102q25 1 40.5 -4t21.5 -14t6.5 -26t-2 -32t-6.5 -38.5t-5 -40.5q-6 -92 14 -305.5t21 -231.5q24 -344 80 -499q13 -42 39.5 -88.5t56.5 -73.5t83.5 -48t120.5 -28t126 20q45 20 81.5 93t57.5 170.5t32.5 185.5t14.5 166 q11 206 -16 512q-3 24 -10.5 67t-12 71t-3.5 63.5t13 62.5q23 2 37.5 -4.5t21.5 -21.5t10 -27.5t5 -34t4 -31.5q33 -193 42 -419.5t-21 -460t-105 -355.5q-44 -70 -136 -101.5t-198.5 -14.5t-189.5 79q-58 43 -99 117t-65 177.5t-36.5 193.5t-22.5 217q-2 18 -8 87.5 t-7.5 93t-6 82t-5 90t-1.5 79.5zM299 1585q88 157 223 254q13 -6 27 -33q56 -88 162 -198q26 -26 -33 -58q-13 14 -38.5 42t-36 40.5t-29 34t-34.5 41.5t-34 45q-25 -16 -49 -40.5t-38 -44t-42 -60.5q-7 -11 -20 -21t-29.5 -14.5t-28.5 12.5z" />
<glyph unicode="&#xdc;" horiz-adv-x="1155" d="M126.5 1113q-0.5 54 0 199.5t0.5 174.5q91 45 106 -105q5 -52 -1 -219q-1 -28 -1 -45q2 -69 0 -178.5t-1.5 -173.5t12.5 -159.5t39 -188.5q6 -22 18.5 -68.5t20.5 -74t20 -62.5t24.5 -60t26.5 -42q43 -47 116.5 -72t141.5 -2q73 28 130.5 126t84.5 218q112 451 92 928 q0 13 -6 54t-2.5 71t21.5 53q19 3 34.5 -1.5t25 -16.5t17 -25t10.5 -35.5t5 -38.5t1 -43.5t-1.5 -41.5t-3 -40.5t-2.5 -34.5q-10 -374 -74 -755q-53 -293 -172 -412q-62 -64 -160 -84.5t-194.5 10t-149.5 105.5q-46 67 -104 283l-6 24q-20 79 -33.5 177t-20.5 172.5 t-10.5 201.5t-4 181zM373 1626q-15 82 34 104q36 15 73 -11q26 -20 28 -50q0 -29 -23 -51t-56 -21.5t-56 29.5zM698 1638q-15 82 34 103q36 16 73 -10q26 -20 29 -50q0 -29 -23.5 -51t-56.5 -21.5t-56 29.5z" />
<glyph unicode="&#xdd;" horiz-adv-x="835" d="M-41 1434q0 14 12 19t33 6.5t29 4.5q70 -93 137 -203.5t149.5 -259.5t124.5 -219q66 85 121 209.5t110 270.5t101 233q15 3 25.5 -1t22 -12.5t18.5 -11.5q-12 -72 -37 -152.5t-44 -128t-59 -142.5q-26 -58 -92 -191q-16 -30 -43 -71.5t-41.5 -66.5t-26.5 -72.5 t-12 -108.5q0 -209 19 -443q0 -10 6 -37t3 -43t-21 -30q-12 -6 -19 -4.5t-20.5 6t-22.5 4.5q-17 78 -26 188.5t-10 183t-1 199.5q0 11 1.5 34.5t1.5 43t-3 33.5q-4 26 -22.5 59t-48.5 77t-39 60q-20 36 -57.5 99.5t-53.5 91.5q-35 63 -108 187t-107 188zM375 1540 q20 76 96.5 178.5t163.5 175.5q6 -4 22.5 -8.5t27 -11.5t13.5 -21q-10 -26 -45 -57.5t-45 -42.5q-16 -19 -33 -46t-30.5 -51t-29 -49t-30.5 -42.5t-31.5 -29t-36.5 -10.5t-42 15z" />
<glyph unicode="&#xde;" horiz-adv-x="1214" d="M96 1462q50 53 92 -12q37 -57 39 -144q1 -11 0 -22q36 -1 201 7t287 -1.5t194 -48.5q41 -24 104 -82.5t87 -97.5q39 -60 64.5 -151.5t17.5 -170.5q-4 -26 -16.5 -53t-21 -40t-34 -44t-29.5 -37q-11 -14 -50.5 -73t-65.5 -82q-47 -40 -114 -61.5t-136.5 -25t-150 -3 t-155 5t-151.5 -1.5q-13 -51 -3 -203t9 -199q-15 -15 -43 -18t-49 10q-23 195 -24 497t-7.5 581t-44.5 470zM240 1184q10 -128 9.5 -391.5t8.5 -382.5q58 1 169.5 -4t181 -6t152.5 16t136 57q47 34 107.5 120t70.5 140q16 79 -11.5 172t-74.5 156q-23 28 -67.5 65.5 t-75.5 51.5q-57 27 -204 36.5t-247 2.5q-30 -2 -155 -33z" />
<glyph unicode="&#xdf;" horiz-adv-x="1120" d="M117 -221q-7 159 4 558t2 617q-8 113 -1.5 205.5t30.5 160.5t86 109t163 50q114 9 260 -64.5t199 -159.5q57 -101 40.5 -196.5t-81 -171t-157.5 -115.5q77 -23 135.5 -47.5t118.5 -63.5t96.5 -94.5t46.5 -126.5q11 -95 -23.5 -187.5t-95.5 -158.5q-36 -40 -129 -90.5 t-168 -58.5q-56 -6 -134 2.5t-137 30.5t-57 49q1 20 12 28.5t28 5t33.5 -9.5t35.5 -14t27 -10q139 -30 261 6.5t194.5 133.5t64.5 230q-6 113 -79.5 181.5t-186.5 99.5q-31 10 -102 16.5t-114.5 17.5t-44.5 36q-1 9 8.5 18t26.5 17t33 14t38 13t32 11q54 21 102 57.5t85 90 t41 115.5t-30 135q-24 43 -100.5 97.5t-134.5 74.5q-109 37 -198 -2t-120 -121q-14 -40 -19 -96t-4 -94t5.5 -120t5.5 -112q12 -135 2 -516.5t-8 -532.5q0 -1 1.5 -22.5t1 -29.5t-1.5 -27.5t-5.5 -29t-12 -22t-20.5 -18.5t-31 -6q-11 14 -16.5 31.5t-6.5 34.5t-1 36v35z" />
<glyph unicode="&#xe0;" horiz-adv-x="804" d="M-14 0q17 -11 31.5 -11t23.5 6t17.5 21.5t12.5 26t9.5 29.5t7.5 24q31 87 81 271.5t75 257.5q161 33 301 18q79 -319 192 -668q6 0 24.5 -3t30.5 -2.5t23 5.5q2 21 3 31t-4.5 32t-8.5 32t-10.5 31t-10.5 30q-87 272 -143 500q-3 17 12 28t13 27q-4 8 -22 18t-21 23 q-10 54 -39 260.5t-52 306.5q-27 121 -55 152q-26 27 -59 4q-31 -47 -72 -168q-57 -161 -108.5 -349t-106 -406.5t-92.5 -352.5q-3 -12 -28.5 -75t-24.5 -99zM167 1841.5q1 23.5 21 46.5q73 -28 165 -117.5t153 -185.5q-4 -5 -11 -21t-15.5 -25.5t-22.5 -10.5 q-19 10 -31.5 25.5t-27 38t-29.5 38.5q-19 20 -49 44t-55 42.5t-49 41t-37 41.5t-12 42.5zM262 705q18 59 51 181.5t62 216.5t61 173q21 -80 39.5 -187.5t26 -170t24.5 -201.5q-42 0 -86 -2t-97 -5.5t-81 -4.5z" />
<glyph unicode="&#xe1;" horiz-adv-x="804" d="M-14 0q17 -11 31.5 -11t23.5 6t17.5 21.5t12.5 26t9.5 29.5t7.5 24q31 87 81 271.5t75 257.5q161 33 301 18q79 -319 192 -668q6 0 24.5 -3t30.5 -2.5t23 5.5q2 21 3 31t-4.5 32t-8.5 32t-10.5 31t-10.5 30q-87 272 -143 500q-3 17 12 28t13 27q-4 8 -22 18t-21 23 q-10 54 -39 260.5t-52 306.5q-27 121 -55 152q-26 27 -59 4q-31 -47 -72 -168q-57 -161 -108.5 -349t-106 -406.5t-92.5 -352.5q-3 -12 -28.5 -75t-24.5 -99zM262 705q18 59 51 181.5t62 216.5t61 173q21 -80 39.5 -187.5t26 -170t24.5 -201.5q-42 0 -86 -2t-97 -5.5 t-81 -4.5zM285 1540q20 76 96.5 178.5t163.5 175.5q6 -4 22.5 -8.5t27 -11.5t13.5 -21q-10 -26 -45 -57.5t-45 -42.5q-16 -19 -33 -46t-30.5 -51t-29 -49t-30.5 -42.5t-31.5 -29t-36.5 -10.5t-42 15z" />
<glyph unicode="&#xe2;" horiz-adv-x="804" d="M-12 0q17 -11 31.5 -11t23.5 6t17.5 21.5t12.5 26t9.5 29.5t7.5 24q31 87 81 271.5t75 257.5q161 33 301 18q79 -319 192 -668q6 0 24.5 -3t30.5 -2.5t23 5.5q2 21 3 31t-4.5 32t-8.5 32t-10.5 31t-10.5 30q-87 272 -143 500q-3 17 12 28t13 27q-4 8 -22 18t-21 23 q-10 55 -38.5 261t-51.5 306q-4 20 -6.5 30t-8 31t-10.5 33t-12 29t-15 24.5t-17.5 14.5t-21 5t-24.5 -11q-31 -47 -72 -168q-57 -161 -108.5 -349t-106 -406.5t-92.5 -352.5q-3 -12 -28.5 -75t-24.5 -99zM195 1585q88 157 223 254q12 -5 26 -33q56 -88 162 -198 q26 -26 -33 -58q-13 14 -38.5 42t-36 40.5t-29 34t-34.5 41.5t-34 45q-25 -16 -49 -40.5t-38 -44t-42 -60.5q-8 -11 -20 -21t-28.5 -14.5t-28.5 12.5zM264 705q18 59 51 181.5t62 216.5t61 173q21 -80 39.5 -187.5t26 -170t24.5 -201.5q-42 0 -86 -2t-97 -5.5t-81 -4.5z" />
<glyph unicode="&#xe3;" horiz-adv-x="804" d="M-12 0q17 -11 31.5 -11t23.5 6t17.5 21.5t12.5 26t9.5 29.5t7.5 24q31 87 81 271.5t75 257.5q161 33 301 18q79 -319 192 -668q6 0 24.5 -3t30.5 -2.5t23 5.5q2 21 3 31t-4.5 32t-8.5 32t-10.5 31t-10.5 30q-87 272 -143 500q-3 17 12 28t13 27q-4 8 -22 18t-21 23 q-10 55 -38.5 261t-51.5 306q-4 20 -6.5 30t-8 31t-10.5 33t-12 29t-15 24.5t-17.5 14.5t-21 5t-24.5 -11q-31 -47 -72 -168q-57 -161 -108.5 -349t-106 -406.5t-92.5 -352.5q-3 -12 -28.5 -75t-24.5 -99zM120 1622.5q0 25.5 3 46.5t6 27q26 44 78.5 81.5t101.5 16.5 q14 -6 31.5 -20t41 -35t36.5 -31q16 -11 47 -40.5t58 -46.5t55 -17q49 0 94.5 62t50.5 118q-1 4 0.5 6.5t5.5 3t7 1t8.5 0t7.5 -0.5q27 -45 19 -93t-42 -85q-92 -108 -164 -90q-41 10 -91.5 41t-86.5 65q-8 6 -21 23.5t-30 27.5q-40 29 -66 29q-18 0 -37 -17t-26 -34 q-6 -10 -13.5 -35t-15.5 -43t-18 -20q-20 -3 -30 15.5t-10 44zM264 705q18 59 51 181.5t62 216.5t61 173q21 -80 39.5 -187.5t26 -170t24.5 -201.5q-42 0 -86 -2t-97 -5.5t-81 -4.5z" />
<glyph unicode="&#xe4;" horiz-adv-x="802" d="M-14 0q17 -11 31.5 -11t23.5 6t17.5 21.5t12.5 26t9.5 29.5t7.5 24q31 87 81 271.5t75 257.5q161 33 301 18q79 -319 192 -668q6 0 24.5 -3t30.5 -2.5t23 5.5q2 21 3 31t-4.5 32t-8.5 32t-10.5 31t-10.5 30q-87 272 -143 500q-3 17 12 28t13 27q-4 8 -22 18t-21 23 q-10 54 -39 260.5t-52 306.5q-27 121 -55 152q-26 27 -59 4q-31 -47 -72 -168q-57 -161 -108.5 -349t-106 -406.5t-92.5 -352.5q-3 -12 -28.5 -75t-24.5 -99zM199 1626q-15 82 34 104q36 15 73 -11q26 -20 28 -50q0 -29 -23 -51t-56 -21.5t-56 29.5zM262 705q18 59 51 181.5 t62 216.5t61 173q21 -80 39.5 -187.5t26 -170t24.5 -201.5q-42 0 -86 -2t-97 -5.5t-81 -4.5zM524 1638q-15 82 34 104q36 15 73 -11q25 -20 28 -50q0 -29 -23 -51t-56 -21.5t-56 29.5z" />
<glyph unicode="&#xe5;" horiz-adv-x="796" d="M-14 0q17 -11 31.5 -11t23.5 6t17.5 21.5t12.5 26t9.5 29.5t7.5 24q31 87 81 271.5t75 257.5q161 33 301 18q79 -319 192 -668q6 0 24.5 -3t30.5 -2.5t23 5.5q2 21 3 31t-4.5 32t-8.5 32t-10.5 31t-10.5 30q-87 272 -143 500q-3 17 12 28t13 27q-4 8 -22 18t-21 23 q-10 54 -39 260.5t-52 306.5q-27 121 -55 152q-26 27 -59 4q-31 -47 -72 -168q-57 -161 -108.5 -349t-106 -406.5t-92.5 -352.5q-3 -12 -28.5 -75t-24.5 -99zM262 705q18 59 51 181.5t62 216.5t61 173q21 -80 39.5 -187.5t26 -170t24.5 -201.5q-42 0 -86 -2t-97 -5.5 t-81 -4.5zM317 1739q27 24 75.5 31t90 -9.5t49.5 -52.5q12 -64 -40.5 -99t-137.5 -30q-66 74 -37 160zM384 1682q0 -5 0.5 -15t0.5 -14q29 -7 48.5 6t25.5 43q-10 8 -34 8t-34 -8q-4 -3 -5.5 -9t-1.5 -11z" />
<glyph unicode="&#xe6;" horiz-adv-x="1574" d="M6 6q-1 36 24.5 99t28.5 75q22 77 127 485.5t181 622.5q42 124 71 168q13 9 24.5 11t21 -5t17.5 -14.5t15 -24.5t12 -29t10.5 -33t8 -31t6.5 -30q23 -100 51.5 -306t38.5 -261q3 -13 21 -23t22 -18q2 -16 -12.5 -27t-11.5 -28q33 -135 92 -334q2 135 11.5 395.5t12 391 t-3.5 366.5q61 25 152.5 34t236.5 11t189 4q12 0 39.5 2.5t48 3.5t42.5 -1.5t33 -14.5t9 -33q-9 -12 -22 -19t-32 -9.5t-32 -3t-36.5 0.5t-31.5 1q-26 -1 -121 -3.5t-142.5 -5t-117.5 -9.5t-117 -19q3 -293 -6 -633q231 -19 400 -6q20 1 63 8t67.5 9t53 -7.5t43.5 -34.5 q-14 -14 -36 -21.5t-39.5 -9.5t-50 -3.5t-46.5 -2.5q-214 -22 -449 -12q-4 -54 -15.5 -203t-16 -241.5t-4.5 -194.5v-6q106 -12 170.5 -9t175.5 12t170 9q134 0 190 -37q-15 -37 -46 -44t-85 3.5t-72 10.5q-58 0 -182.5 -11t-224.5 -11t-176 22q0 6 -2 8q-125 396 -189 659 q-140 15 -301 -18q-25 -73 -74.5 -257.5t-80.5 -271.5q-2 -5 -6.5 -20t-8 -25t-9.5 -24t-13 -21.5t-16.5 -13t-22 -3.5t-27.5 11zM283 711q28 1 81 4.5t97 5.5t86 2q-17 139 -24.5 201.5t-26 170t-39.5 187.5q-32 -79 -61 -173t-62 -216.5t-51 -181.5z" />
<glyph unicode="&#xe7;" horiz-adv-x="899" d="M70 823q13 201 77.5 360.5t184.5 223.5q61 32 131.5 48.5t148 12t138.5 -35.5q47 -26 73 -54t19 -69q-29 -2 -51 6t-33 19.5t-27 26t-31 21.5q-66 22 -143 12t-139 -42q-88 -42 -150.5 -152t-88 -251t-25 -289.5t34.5 -283t94 -216.5q68 -94 194.5 -113.5t235.5 64.5 q30 27 62.5 95.5t53.5 94.5q36 -17 47.5 -45t3 -55t-28 -57t-37.5 -49.5t-34 -33.5q-136 -111 -288 -98q-130 14 -220 88t-136 194.5t-61.5 263t-4.5 314.5zM428 -209q5 39 3 76t0.5 79.5t14.5 65.5q19 3 30.5 -0.5t25 -15t18.5 -14.5q-9 -52 -6 -117q82 5 127.5 -50.5 t36.5 -128.5t-66 -116q-68 -15 -120 5.5t-58 74.5q13 7 19 18q26 3 41.5 -17t31.5 -20q43 0 64.5 51t3.5 97q-32 9 -45.5 5t-35.5 -16t-36 -14q-10 4 -18 9t-18 15z" />
<glyph unicode="&#xe8;" horiz-adv-x="923" d="M78 -23q-8 227 11 735.5t7 739.5q61 25 152.5 34t236.5 11t189 4q12 0 39.5 2.5t48 3.5t42.5 -1.5t33 -14.5t9 -33q-9 -12 -22 -19t-32 -9.5t-31.5 -3.5t-37 0t-31.5 1q-31 -1 -122 -3.5t-140 -4.5t-118.5 -9t-116.5 -19q3 -265 -7 -633q231 -19 400 -6q20 1 63 8t67.5 9 t53 -7.5t43.5 -34.5q-14 -14 -36 -21.5t-39.5 -9.5t-50 -3.5t-46.5 -2.5q-214 -22 -448 -12q-4 -63 -15.5 -206.5t-16.5 -239.5t-5 -199q106 -12 170.5 -9t175.5 12t170 9q134 0 190 -37q-12 -29 -36.5 -39.5t-48.5 -7.5t-60.5 9.5t-56.5 6.5q-58 0 -182.5 -11t-225 -11 t-176.5 22zM290 1849.5q1 23.5 21 46.5q73 -28 165 -117.5t153 -185.5q-4 -5 -11 -21t-15.5 -25.5t-22.5 -10.5q-19 10 -31.5 25.5t-27 38t-29.5 38.5q-19 20 -49 44t-55 42.5t-49 41t-37 41.5t-12 42.5z" />
<glyph unicode="&#xe9;" horiz-adv-x="927" d="M78 -23q-8 227 11 735.5t7 739.5q61 25 152.5 34t236.5 11t189 4q12 0 39.5 2.5t48 3.5t42.5 -1.5t33 -14.5t9 -33q-9 -12 -22 -19t-32 -9.5t-31.5 -3.5t-37 0t-31.5 1q-31 -1 -122 -3.5t-140 -4.5t-118.5 -9t-116.5 -19q3 -265 -7 -633q231 -19 400 -6q20 1 63 8t67.5 9 t53 -7.5t43.5 -34.5q-14 -14 -36 -21.5t-39.5 -9.5t-50 -3.5t-46.5 -2.5q-214 -22 -448 -12q-4 -63 -15.5 -206.5t-16.5 -239.5t-5 -199q106 -12 170.5 -9t175.5 12t170 9q134 0 190 -37q-12 -29 -36.5 -39.5t-48.5 -7.5t-60.5 9.5t-56.5 6.5q-58 0 -182.5 -11t-225 -11 t-176.5 22zM393 1540q20 76 96.5 178.5t163.5 175.5q6 -4 23 -8.5t27.5 -11.5t13.5 -21q-10 -26 -45 -57.5t-45 -42.5q-16 -19 -33 -46t-30.5 -51t-29 -49t-30.5 -42.5t-32 -29t-37 -10.5t-42 15z" />
<glyph unicode="&#xea;" horiz-adv-x="909" d="M78 -23q-8 227 11 735.5t7 739.5q61 25 152.5 34t236.5 11t189 4q12 0 39.5 2.5t48 3.5t42.5 -1.5t33 -14.5t9 -33q-9 -12 -22 -19t-32 -9.5t-31.5 -3.5t-37 0t-31.5 1q-31 -1 -122 -3.5t-140 -4.5t-118.5 -9t-116.5 -19q3 -265 -7 -633q231 -19 400 -6q20 1 63 8t67.5 9 t53 -7.5t43.5 -34.5q-14 -14 -36 -21.5t-39.5 -9.5t-50 -3.5t-46.5 -2.5q-214 -22 -448 -12q-4 -63 -15.5 -206.5t-16.5 -239.5t-5 -199q106 -12 170.5 -9t175.5 12t170 9q134 0 190 -37q-12 -29 -36.5 -39.5t-48.5 -7.5t-60.5 9.5t-56.5 6.5q-58 0 -182.5 -11t-225 -11 t-176.5 22zM258 1585q88 157 223 254q13 -6 27 -33q56 -88 162 -198q26 -26 -33 -58q-13 14 -38.5 42t-36 40.5t-29 34t-34.5 41.5t-34 45q-25 -16 -49 -40.5t-38 -44t-42 -60.5q-7 -11 -20 -21t-29.5 -14.5t-28.5 12.5z" />
<glyph unicode="&#xeb;" horiz-adv-x="890" d="M78 -23q-8 227 11 735.5t7 739.5q61 25 152.5 34t236.5 11t189 4q12 0 39.5 2.5t48 3.5t42.5 -1.5t33 -14.5t9 -33q-9 -12 -22 -19t-32 -9.5t-31.5 -3.5t-37 0t-31.5 1q-31 -1 -122 -3.5t-140 -4.5t-118.5 -9t-116.5 -19q3 -265 -7 -633q231 -19 400 -6q20 1 63 8t67.5 9 t53 -7.5t43.5 -34.5q-14 -14 -36 -21.5t-39.5 -9.5t-50 -3.5t-46.5 -2.5q-214 -22 -448 -12q-4 -63 -15.5 -206.5t-16.5 -239.5t-5 -199q106 -12 170.5 -9t175.5 12t170 9q134 0 190 -37q-12 -29 -36.5 -39.5t-48.5 -7.5t-60.5 9.5t-56.5 6.5q-58 0 -182.5 -11t-225 -11 t-176.5 22zM256 1626q-15 82 34 104q36 15 73 -11q26 -20 28 -50q0 -29 -23 -51t-56 -21.5t-56 29.5zM582 1638q-15 82 34 104q36 15 73 -11q25 -20 28 -50q0 -29 -23 -51t-56 -21.5t-56 29.5z" />
<glyph unicode="&#xec;" horiz-adv-x="468" d="M29 1425q48 27 219 39q35 2 69 4t60 -12t29 -45q-6 -12 -22 -15.5t-46 -2t-39 1.5q4 -158 -6.5 -636t6.5 -667q18 -2 57 4t61 1t27 -31q-5 -14 -20.5 -21.5t-30 -9.5t-41 -3.5t-37.5 -2.5q-19 -2 -75 -18.5t-93.5 -15.5t-64.5 28q4 22 26.5 28.5t56.5 7.5t50 7 q2 94 -2.5 267.5t-6.5 290.5t9 296q17 233 4 464q-15 0 -44.5 -2.5t-50 -3t-43 2t-36 13.5t-16.5 31zM45 1849.5q1 23.5 21 46.5q73 -28 164.5 -117.5t152.5 -185.5q-4 -5 -11 -21t-15.5 -25.5t-22.5 -10.5q-19 10 -31.5 25.5t-27 38t-29.5 38.5q-19 20 -48.5 44t-55 42.5 t-49.5 41t-36.5 41.5t-11.5 42.5z" />
<glyph unicode="&#xed;" horiz-adv-x="458" d="M29 1425q48 27 219 39q35 2 69 4t60 -12t29 -45q-6 -12 -22 -15.5t-46 -2t-39 1.5q4 -158 -6.5 -636t6.5 -667q18 -2 57 4t61 1t27 -31q-5 -14 -20.5 -21.5t-30 -9.5t-41 -3.5t-37.5 -2.5q-19 -2 -75 -18.5t-93.5 -15.5t-64.5 28q4 22 26.5 28.5t56.5 7.5t50 7 q2 94 -2.5 267.5t-6.5 290.5t9 296q17 233 4 464q-15 0 -44.5 -2.5t-50 -3t-43 2t-36 13.5t-16.5 31zM63 1518q20 76 96.5 178.5t164.5 175.5q6 -4 22.5 -8.5t27 -11.5t13.5 -21q-10 -26 -45 -57.5t-45 -42.5q-16 -19 -33 -46t-30.5 -51t-29 -49t-30.5 -42.5t-32 -29 t-37 -10.5t-42 15z" />
<glyph unicode="&#xee;" horiz-adv-x="473" d="M-12 1585q88 157 223 254q13 -6 27 -33q58 -91 161 -198q26 -26 -32 -58q-13 14 -38.5 42t-36 40.5t-29 34t-34.5 41.5t-34 45q-25 -16 -49 -40.5t-38 -44t-42 -60.5q-7 -11 -20 -21t-29.5 -14.5t-28.5 12.5zM29 1425q48 27 219 39q35 2 69 4t60 -12t29 -45 q-6 -12 -22 -15.5t-46 -2t-39 1.5q4 -158 -6.5 -636t6.5 -667q18 -2 57 4t61 1t27 -31q-5 -14 -20.5 -21.5t-30 -9.5t-41 -3.5t-37.5 -2.5q-19 -2 -75 -18.5t-93.5 -15.5t-64.5 28q4 22 26.5 28.5t56.5 7.5t50 7q2 94 -2.5 267.5t-6.5 290.5t9 296q17 233 4 464 q-15 0 -44.5 -2.5t-50 -3t-43 2t-36 13.5t-16.5 31z" />
<glyph unicode="&#xef;" horiz-adv-x="473" d="M-6 1626q-15 82 34 104q36 15 73 -11q26 -20 28 -50q0 -29 -23 -51t-56 -21.5t-56 29.5zM29 1425q48 27 219 39q35 2 69 4t60 -12t29 -45q-6 -12 -22 -15.5t-46 -2t-39 1.5q4 -158 -6.5 -636t6.5 -667q18 -2 57 4t61 1t27 -31q-5 -14 -20.5 -21.5t-30 -9.5t-41 -3.5 t-37.5 -2.5q-19 -2 -75 -18.5t-93.5 -15.5t-64.5 28q4 22 26.5 28.5t56.5 7.5t50 7q2 94 -2.5 267.5t-6.5 290.5t9 296q17 233 4 464q-15 0 -44.5 -2.5t-50 -3t-43 2t-36 13.5t-16.5 31zM319 1638q-15 82 34 103q36 16 73 -10q26 -20 29 -50q0 -29 -23.5 -51t-56.5 -21.5 t-56 29.5z" />
<glyph unicode="&#xf0;" horiz-adv-x="1136" d="M66 492q12 60 47 143q23 56 53 109t71.5 106t90 92t107.5 68t124.5 34t140.5 -10q25 -6 51 -18t42 -22t46.5 -30t47.5 -30q-14 29 -29.5 56.5t-36.5 57t-34.5 48t-42 51t-38.5 43.5t-44.5 48t-40.5 44q-13 -8 -47 -39t-58.5 -50t-55.5 -17t-52 43q12 12 25.5 24t31.5 25 t28 20.5t33.5 23.5t30.5 21q-8 27 -37 46.5t-58.5 29.5t-53 30t-23.5 50q23 4 39.5 6t37.5 -5t35.5 -13.5t33.5 -19.5t32 -22.5t30 -23t28 -20.5q31 14 131.5 78t144.5 77q13 4 29 -7t18 -21q1 -10 -8.5 -22t-27 -24t-32.5 -21.5t-33.5 -19.5t-21.5 -12q-80 -51 -137 -80 q31 -53 113 -139t112 -127q185 -257 172 -569q-3 -70 -17 -132t-42 -122.5t-50 -99t-63 -103.5q-72 -58 -170.5 -80.5t-197.5 -10.5t-193.5 56t-163 111t-102.5 163.5t-16 205.5zM159.5 349.5q4.5 -81.5 45.5 -140.5q45 -68 146 -119t212 -61t207 37q67 36 122 127 t82.5 197.5t18.5 219.5t-61 187q-18 26 -55.5 57.5t-86 60t-107.5 43.5t-110 7q-80 -14 -152.5 -70t-117.5 -121q-35 -50 -67 -116.5t-56.5 -146.5t-20 -161.5z" />
<glyph unicode="&#xf1;" horiz-adv-x="1062" d="M98 -2q3 282 31 661q10 122 16.5 248.5t12.5 306t8 232.5q32 8 62.5 -1.5t58 -35.5t43 -44.5t37.5 -49.5q43 -55 84.5 -125t92.5 -164t79 -143q22 -42 75 -137t92 -170t70 -148q10 174 -14.5 536t-18.5 525q47 25 82 -10q16 -181 45 -687.5t56 -750.5q-21 -12 -40 -11 t-30 6t-25 25.5t-17.5 28t-15.5 33.5l-3 6q-20 42 -102 238.5t-136 291.5q-216 392 -387 637q-1 -249 -33 -689.5t-37 -602.5q-56 -18 -86 -6zM187.5 1622.5q0.5 25.5 3.5 46.5t6 27q26 44 78.5 81.5t101.5 16.5q14 -6 31 -20t40.5 -34.5t36.5 -31.5q16 -11 47 -40.5 t58 -46.5t55 -17q49 0 95 62t51 118q-1 4 0.5 6.5t5 3t6.5 1t8.5 0t7.5 -0.5q27 -45 19.5 -93t-41.5 -85q-92 -108 -164 -90q-41 10 -91.5 41t-86.5 65q-8 6 -21.5 23.5t-30.5 27.5q-40 29 -65 29q-18 0 -37.5 -17.5t-26.5 -33.5q-6 -10 -13.5 -35t-15.5 -43t-18 -20 q-20 -3 -30 15.5t-9.5 44z" />
<glyph unicode="&#xf2;" horiz-adv-x="1247" d="M55.5 780.5q6.5 122.5 40 240t88 211.5t138 160.5t184.5 88.5h12q22 5 88 1.5t99 -14.5q114 -29 228 -128t169 -212q51 -100 51.5 -236.5t-39.5 -283.5q-100 -446 -283 -569q-85 -54 -175.5 -67.5t-169 9t-149 70t-122.5 112.5t-84 140q-44 107 -63 231t-12.5 246.5z M147.5 660q5.5 -172 59.5 -324q33 -87 120.5 -187t161.5 -114q79 -14 176.5 19.5t147.5 78.5q80 76 128.5 196.5t82.5 284.5q51 232 45 330q-7 95 -55.5 174.5t-124.5 161.5q-75 77 -161.5 106.5t-215.5 12.5q-119 -38 -206 -153t-125.5 -264.5t-33 -321.5zM387 1841.5 q1 23.5 21 46.5q73 -28 164.5 -117.5t152.5 -185.5q-4 -5 -11 -21t-15.5 -25.5t-22.5 -10.5q-19 10 -31.5 25.5t-27 38t-29.5 38.5q-19 20 -48.5 44t-55 42.5t-49.5 41t-36.5 41.5t-11.5 42.5z" />
<glyph unicode="&#xf3;" horiz-adv-x="1234" d="M55.5 780.5q6.5 122.5 40 240t88 211.5t138 160.5t184.5 88.5h12q22 5 88 1.5t99 -14.5q114 -29 228 -128t169 -212q51 -100 51.5 -236.5t-39.5 -283.5q-100 -446 -283 -569q-85 -54 -175.5 -67.5t-169 9t-149 70t-122.5 112.5t-84 140q-44 107 -63 231t-12.5 246.5z M147.5 660q5.5 -172 59.5 -324q33 -87 120.5 -187t161.5 -114q79 -14 176.5 19.5t147.5 78.5q80 76 128.5 196.5t82.5 284.5q51 232 45 330q-7 95 -55.5 174.5t-124.5 161.5q-75 77 -161.5 106.5t-215.5 12.5q-119 -38 -206 -153t-125.5 -264.5t-33 -321.5zM530 1540 q20 76 96.5 178.5t164.5 175.5q6 -4 22.5 -8.5t27 -11.5t13.5 -21q-10 -26 -45 -57.5t-45 -42.5q-16 -19 -33 -46t-30.5 -51t-29 -49t-30.5 -42.5t-32 -29t-37 -10.5t-42 15z" />
<glyph unicode="&#xf4;" horiz-adv-x="1234" d="M55.5 780.5q6.5 122.5 40 240t88 211.5t138 160.5t184.5 88.5h12q22 5 88 1.5t99 -14.5q114 -29 228 -128t169 -212q51 -100 51.5 -236.5t-39.5 -283.5q-100 -446 -283 -569q-85 -54 -175.5 -67.5t-169 9t-149 70t-122.5 112.5t-84 140q-44 107 -63 231t-12.5 246.5z M147.5 660q5.5 -172 59.5 -324q33 -87 120.5 -187t161.5 -114q79 -14 176.5 19.5t147.5 78.5q80 76 128.5 196.5t82.5 284.5q51 232 45 330q-7 95 -55.5 174.5t-124.5 161.5q-75 77 -161.5 106.5t-215.5 12.5q-119 -38 -206 -153t-125.5 -264.5t-33 -321.5zM401 1585 q87 156 224 254q12 -5 26 -33q56 -88 162 -198q26 -26 -33 -58q-13 14 -38.5 42t-36 40.5t-29 34t-34.5 41.5t-34 45q-25 -16 -49 -40.5t-38 -44t-42 -60.5q-7 -11 -20 -21t-29.5 -14.5t-28.5 12.5z" />
<glyph unicode="&#xf5;" horiz-adv-x="1220" d="M55.5 780.5q6.5 122.5 40 240t88 211.5t138 160.5t184.5 88.5h12q22 5 88 1.5t99 -14.5q114 -29 228 -128t169 -212q51 -100 51.5 -236.5t-39.5 -283.5q-100 -446 -283 -569q-85 -54 -175.5 -67.5t-169 9t-149 70t-122.5 112.5t-84 140q-44 107 -63 231t-12.5 246.5z M147.5 660q5.5 -172 59.5 -324q33 -87 120.5 -187t161.5 -114q79 -14 176.5 19.5t147.5 78.5q80 76 128.5 196.5t82.5 284.5q51 232 45 330q-7 95 -55.5 174.5t-124.5 161.5q-75 77 -161.5 106.5t-215.5 12.5q-119 -38 -206 -153t-125.5 -264.5t-33 -321.5zM286 1622.5 q0 25.5 3 46.5t6 27q26 44 78.5 81.5t101.5 16.5q14 -6 31.5 -20t41 -35t36.5 -31q16 -11 47 -40.5t57.5 -46.5t54.5 -17q49 0 95 62t51 118q-1 4 0.5 6.5t5.5 3t7 1t8.5 0t7.5 -0.5q27 -45 19 -93t-42 -85q-92 -108 -164 -90q-41 10 -91.5 41t-86.5 65q-8 6 -21 23.5 t-30 27.5q-40 29 -66 29q-18 0 -37 -17t-26 -34q-6 -10 -13.5 -35t-15.5 -43t-18 -20q-20 -3 -30 15.5t-10 44z" />
<glyph unicode="&#xf6;" horiz-adv-x="1224" d="M55.5 780.5q6.5 122.5 40 240t88 211.5t138 160.5t184.5 88.5h12q22 5 88 1.5t99 -14.5q114 -29 228 -128t169 -212q51 -100 51.5 -236.5t-39.5 -283.5q-100 -446 -283 -569q-85 -54 -175.5 -67.5t-169 9t-149 70t-122.5 112.5t-84 140q-44 107 -63 231t-12.5 246.5z M147.5 660q5.5 -172 59.5 -324q33 -87 120.5 -187t161.5 -114q79 -14 176.5 19.5t147.5 78.5q80 76 128.5 196.5t82.5 284.5q51 232 45 330q-7 95 -55.5 174.5t-124.5 161.5q-75 77 -161.5 106.5t-215.5 12.5q-119 -38 -206 -153t-125.5 -264.5t-33 -321.5zM365 1626 q-15 82 34 104q36 15 73 -11q26 -20 28 -50q0 -29 -23 -51t-56 -21.5t-56 29.5zM690 1638q-15 82 34 104q36 15 73 -11q25 -20 28 -50q0 -29 -23 -51t-56 -21.5t-56 29.5z" />
<glyph unicode="&#xf7;" horiz-adv-x="1228" d="M85.5 539.5q3.5 16.5 20.5 21.5q164 2 398 -2.5t368 -3.5q12 0 53.5 5.5t73 6.5t66.5 -3.5t51.5 -25.5t9.5 -57q-51 -13 -114 -16t-159 0.5t-124 3.5q-100 0 -217 -4.5t-200.5 -3t-211.5 13.5q-8 15 -13 31.5t-1.5 33zM555.5 952.5q10.5 36.5 38.5 46.5q47 14 64 -32 q15 -41 -6 -81q-16 -27 -40 -30q-36 -4 -51.5 28t-5 68.5zM562 78q-11 42 14 82q27 44 68 20q10 -6 20 -16q11 -41 1 -79t-40 -44q-51 -11 -63 37z" />
<glyph unicode="&#xf8;" horiz-adv-x="1222" d="M-29 59q21 32 57.5 62t75 59t60.5 58q-71 131 -77 296t48.5 311.5t153.5 229.5q95 80 233 103t269.5 -20.5t201.5 -145.5q24 4 49 35t50.5 62t50.5 34q26 3 45 -6.5t22 -30.5q4 -22 -16.5 -46.5t-48.5 -42.5t-53.5 -40t-28.5 -39q6 -30 36.5 -74t37.5 -61 q41 -100 41.5 -215.5t-37.5 -220.5t-101.5 -193t-155.5 -143t-194 -60q-139 -6 -267.5 47.5t-197.5 145.5q-22 -7 -48.5 -29t-49.5 -44t-48 -40t-52.5 -17.5t-55.5 25.5zM180.5 534q1.5 -128 50.5 -233q109 92 226.5 200.5t260.5 245.5t220 209q-53 96 -180.5 133t-253.5 -2 q-96 -28 -172 -115t-114.5 -198.5t-37 -239.5zM283 213q56 -83 169.5 -126t225.5 -34q80 7 152 52.5t123 114.5t83.5 156.5t40 175.5t-13 174.5t-70.5 150.5q-70 -65 -224 -204.5t-269 -248t-217 -211.5z" />
<glyph unicode="&#xf9;" horiz-adv-x="1095" d="M87 1198q-1 48 0.5 88.5t4.5 81.5q4 71 23 102q25 1 40.5 -4t21.5 -14t6.5 -26t-2 -32t-6.5 -38.5t-5 -40.5q-6 -92 14 -305.5t21 -231.5q24 -344 80 -499q13 -42 39.5 -88.5t56.5 -73.5t83.5 -48t120.5 -28t126 20q45 20 81.5 93t57.5 170.5t32.5 185.5t14.5 166 q11 206 -16 512q-3 24 -10.5 67t-12 71t-3.5 63.5t13 62.5q23 2 37.5 -4.5t21.5 -21.5t10 -27.5t5 -34t4 -31.5q33 -193 42 -419.5t-21 -460t-105 -355.5q-44 -70 -136 -101.5t-198.5 -14.5t-189.5 79q-58 43 -99 117t-65 177.5t-36.5 193.5t-22.5 217q-2 18 -8 87.5 t-7.5 93t-6 82t-5 90t-1.5 79.5zM387 1841.5q1 23.5 21 46.5q73 -28 164.5 -117.5t152.5 -185.5q-4 -5 -11 -21t-15.5 -25.5t-22.5 -10.5q-19 10 -31.5 25.5t-27 38t-29.5 38.5q-19 20 -48.5 44t-55 42.5t-49.5 41t-36.5 41.5t-11.5 42.5z" />
<glyph unicode="&#xfa;" horiz-adv-x="1099" d="M87 1198q-1 48 0.5 88.5t4.5 81.5q4 71 23 102q25 1 40.5 -4t21.5 -14t6.5 -26t-2 -32t-6.5 -38.5t-5 -40.5q-6 -92 14 -305.5t21 -231.5q24 -344 80 -499q13 -42 39.5 -88.5t56.5 -73.5t83.5 -48t120.5 -28t126 20q45 20 81.5 93t57.5 170.5t32.5 185.5t14.5 166 q11 206 -16 512q-3 24 -10.5 67t-12 71t-3.5 63.5t13 62.5q23 2 37.5 -4.5t21.5 -21.5t10 -27.5t5 -34t4 -31.5q33 -193 42 -419.5t-21 -460t-105 -355.5q-44 -70 -136 -101.5t-198.5 -14.5t-189.5 79q-58 43 -99 117t-65 177.5t-36.5 193.5t-22.5 217q-2 18 -8 87.5 t-7.5 93t-6 82t-5 90t-1.5 79.5zM477 1540q20 76 96.5 178.5t163.5 175.5q6 -4 23 -8.5t27.5 -11.5t13.5 -21q-10 -26 -45 -57.5t-45 -42.5q-16 -19 -33 -46t-30.5 -51t-29 -49t-30.5 -42.5t-32 -29t-37 -10.5t-42 15z" />
<glyph unicode="&#xfb;" horiz-adv-x="1085" d="M87 1198q-1 48 0.5 88.5t4.5 81.5q4 71 23 102q25 1 40.5 -4t21.5 -14t6.5 -26t-2 -32t-6.5 -38.5t-5 -40.5q-6 -92 14 -305.5t21 -231.5q24 -344 80 -499q13 -42 39.5 -88.5t56.5 -73.5t83.5 -48t120.5 -28t126 20q45 20 81.5 93t57.5 170.5t32.5 185.5t14.5 166 q11 206 -16 512q-3 24 -10.5 67t-12 71t-3.5 63.5t13 62.5q23 2 37.5 -4.5t21.5 -21.5t10 -27.5t5 -34t4 -31.5q33 -193 42 -419.5t-21 -460t-105 -355.5q-44 -70 -136 -101.5t-198.5 -14.5t-189.5 79q-58 43 -99 117t-65 177.5t-36.5 193.5t-22.5 217q-2 18 -8 87.5 t-7.5 93t-6 82t-5 90t-1.5 79.5zM338 1585q88 157 223 254q13 -6 27 -33q56 -88 162 -198q26 -26 -33 -58q-13 14 -38.5 42t-36 40.5t-29 34t-34.5 41.5t-34 45q-25 -16 -49 -40.5t-38 -44t-42 -60.5q-7 -11 -20 -21t-29.5 -14.5t-28.5 12.5z" />
<glyph unicode="&#xfc;" horiz-adv-x="1089" d="M87 1198q-1 48 0.5 88.5t4.5 81.5q4 71 23 102q25 1 40.5 -4t21.5 -14t6.5 -26t-2 -32t-6.5 -38.5t-5 -40.5q-6 -92 14 -305.5t21 -231.5q24 -344 80 -499q13 -42 39.5 -88.5t56.5 -73.5t83.5 -48t120.5 -28t126 20q45 20 81.5 93t57.5 170.5t32.5 185.5t14.5 166 q11 206 -16 512q-3 24 -10.5 67t-12 71t-3.5 63.5t13 62.5q23 2 37.5 -4.5t21.5 -21.5t10 -27.5t5 -34t4 -31.5q33 -193 42 -419.5t-21 -460t-105 -355.5q-44 -70 -136 -101.5t-198.5 -14.5t-189.5 79q-58 43 -99 117t-65 177.5t-36.5 193.5t-22.5 217q-2 18 -8 87.5 t-7.5 93t-6 82t-5 90t-1.5 79.5zM307 1626q-15 82 34 104q36 15 73 -11q26 -20 28 -50q0 -29 -23 -51t-56 -21.5t-56 29.5zM633 1638q-15 82 34 104q36 15 73 -11q25 -20 28 -50q0 -29 -23 -51t-56 -21.5t-56 29.5z" />
<glyph unicode="&#xfd;" horiz-adv-x="849" d="M-23 1452q22 3 41.5 -2.5t38.5 -23t29 -27.5t30 -37t23 -31q45 -57 97 -129.5t86.5 -124t93.5 -141t84 -127.5q45 84 86.5 212.5t83.5 253.5t90 208q21 7 45 -5t39 -32q-21 -80 -53.5 -173t-75.5 -207t-64 -173q-6 -17 -42 -97t-42 -132q-7 -50 -10 -108t-4.5 -130 t-3.5 -111q-2 -29 -1.5 -108t-5.5 -132t-24 -98q-21 0 -34.5 6t-19.5 14.5t-8 23t-1 26t2.5 29.5t1.5 28q0 3 0.5 118t5.5 177q2 27 7 74t8.5 80.5t3 74.5t-6.5 72q-3 12 -12.5 27t-29.5 39t-25 31q-28 37 -60 87t-69 113.5t-52 87.5q-70 110 -133 187q-6 7 -43.5 48 t-55 70.5t-20.5 61.5zM362 1540q20 76 96.5 178.5t164.5 175.5q6 -4 22.5 -8.5t27 -11.5t13.5 -21q-10 -26 -45 -57.5t-45 -42.5q-16 -19 -33 -46t-30.5 -51t-29 -49t-30.5 -42.5t-32 -29t-37 -10.5t-42 15z" />
<glyph unicode="&#xfe;" horiz-adv-x="1034" d="M123 1460q33 8 60.5 -2.5t39.5 -34.5q-13 -60 -13.5 -227t7.5 -233q15 10 54 42t73 48.5t76 19.5q92 7 184.5 -27.5t163.5 -95t122 -141t68 -162.5q30 -140 -13.5 -282t-133.5 -232q-40 -42 -103 -81.5t-114 -49.5q-100 -18 -198.5 4.5t-153.5 69.5q-1 -38 -0.5 -210 t-5.5 -200q-8 -5 -35 -6t-35 -6q-12 13 -17 28t-5 25.5t1.5 30t1.5 29.5q5 201 -17.5 838t-6.5 855zM213 684.5q1 -30.5 2 -50.5t4 -61.5t4 -56.5q1 -20 1 -61.5t0.5 -67t3 -56.5t8.5 -50q3 -13 22.5 -38.5t26.5 -41.5q6 -17 12 -48t12 -38q23 -29 79 -40t113.5 -5.5 t98.5 20.5q67 24 125 82t93.5 136.5t50.5 165t-2.5 177t-67.5 162.5q-28 41 -83 85t-131.5 74t-140.5 21q-65 -10 -142 -88.5t-85 -134.5q-3 -15 -4 -35t0 -50.5z" />
<glyph unicode="&#xff;" horiz-adv-x="821" d="M-23 1452q22 3 41.5 -2.5t38.5 -23t29 -27.5t30 -37t23 -31q45 -57 97 -129.5t86.5 -124t93.5 -141t84 -127.5q45 84 86.5 212.5t83.5 253.5t90 208q21 7 45 -5t39 -32q-21 -80 -53.5 -173t-75.5 -207t-64 -173q-6 -17 -42 -97t-42 -132q-7 -50 -10 -108t-4.5 -130 t-3.5 -111q-2 -29 -1.5 -108t-5.5 -132t-24 -98q-21 0 -34.5 6t-19.5 14.5t-8 23t-1 26t2.5 29.5t1.5 28q0 3 0.5 118t5.5 177q2 27 7 74t8.5 80.5t3 74.5t-6.5 72q-3 12 -12.5 27t-29.5 39t-25 31q-28 37 -60 87t-69 113.5t-52 87.5q-70 110 -133 187q-6 7 -43.5 48 t-55 70.5t-20.5 61.5zM227 1626q-15 82 34 104q36 15 73 -11q26 -20 28 -50q0 -29 -23 -51t-56 -21.5t-56 29.5zM553 1638q-15 82 34 104q36 15 73 -11q25 -20 28 -50q0 -29 -23 -51t-56 -21.5t-56 29.5z" />
<glyph unicode="&#x152;" horiz-adv-x="1847" d="M49 477q-9 95 4 277q12 113 61 241t115 222q59 88 141 164.5t148 105.5q108 41 224.5 17t179.5 -89q1 11 -0.5 37.5t1 44.5t13.5 25q71 9 183.5 10t265 -2.5t206.5 -3.5q12 0 35 0.5t36.5 0.5t34 -0.5t33 -3t28.5 -6t25 -10.5t17 -16t11 -22.5t1 -30.5q-84 -5 -233 1 t-292.5 6.5t-252.5 -18.5q-10 -68 -17.5 -156t-10 -151t-7 -171.5t-6.5 -157.5q63 0 182.5 7t185 8.5t179.5 -9.5q3 0 15 -1.5t19 -3t18 -5t17 -8t9.5 -12.5t1.5 -19q-4 -23 -53.5 -26t-124.5 3t-101 4q-45 -2 -118 -6.5t-128.5 -7t-105.5 -2.5q-9 -240 -16 -619 q87 -2 267 -23t271 -26q38 1 82 0t82 -3.5t72 -18.5t51 -46q-33 -24 -101 -25t-138 7q-76 4 -166.5 10t-197 13t-157.5 10q-16 1 -51.5 -2t-61 0t-42.5 20q-44 -50 -118.5 -69t-152.5 -10t-151 35t-121 63q-46 34 -76 64.5t-45.5 51.5t-52.5 76q-68 105 -91 160 q-20 49 -26 96zM143 778q-35 -164 4 -319q19 -71 64.5 -147.5t93.5 -131.5q61 -66 151 -114.5t167 -51.5q41 -1 72.5 4.5t51 15t38.5 28.5t29 34t28.5 43.5t31.5 46.5q18 150 23.5 431t15.5 403q1 26 5.5 69.5t7.5 73.5t1.5 67t-9.5 64q-3 10 -8 18.5t-13.5 16.5t-16 14.5 t-20.5 13t-20.5 10.5t-23 10t-21 8t-21 7.5t-18.5 6.5q-67 24 -127.5 19t-106 -26.5t-82.5 -58.5q-106 -106 -184 -248.5t-113 -306.5z" />
<glyph unicode="&#x153;" horiz-adv-x="1820" d="M57.5 786.5q6.5 122.5 40 240t88 211.5t138 160.5t184.5 88.5q2 1 6 0.5t6 -0.5q22 5 88 2t99 -14q98 -24 198.5 -103t165.5 -178q0 138 -6 264q61 25 152.5 34t236 11t188.5 4q12 0 39.5 2.5t48 3.5t42.5 -1.5t33.5 -14.5t9.5 -33q-9 -12 -22 -19t-32 -9.5t-32 -3 t-36.5 0.5t-31.5 1q-26 -1 -121 -3.5t-142.5 -5t-117.5 -9.5t-117 -19q3 -293 -6 -633q230 -19 399 -6q20 1 63.5 8t68 9t53 -7.5t43.5 -34.5q-14 -14 -36 -21.5t-39.5 -9.5t-50 -3.5t-46.5 -2.5q-214 -22 -449 -12q-4 -63 -15.5 -206.5t-16.5 -239.5t-5 -199 q106 -12 170.5 -9t175.5 12t170 9q135 0 191 -37q-15 -37 -46 -44t-85 3.5t-72 10.5q-58 0 -182.5 -11t-224.5 -11t-176 22q-6 185 0 383q-87 -239 -213 -322q-106 -67 -218.5 -71.5t-204.5 41.5t-165 123t-113 171q-44 107 -63 231t-12.5 246.5zM151.5 668 q5.5 -172 59.5 -324q33 -87 121 -187t162 -114q78 -14 175.5 19.5t147.5 78.5q80 76 128.5 197t82.5 285q51 232 45 329q-7 95 -55.5 174.5t-124.5 161.5q-75 77 -161.5 106.5t-215.5 12.5q-119 -38 -206 -153t-125.5 -264.5t-33 -321.5z" />
<glyph unicode="&#x178;" horiz-adv-x="802" d="M-41 1434q0 14 12 19t33 6.5t29 4.5q70 -93 137 -203.5t149.5 -259.5t124.5 -219q66 85 121 209.5t110 270.5t101 233q15 3 25.5 -1t22 -12.5t18.5 -11.5q-12 -72 -37 -152.5t-44 -128t-59 -142.5q-26 -58 -92 -191q-16 -30 -43 -71.5t-41.5 -66.5t-26.5 -72.5 t-12 -108.5q0 -209 19 -443q0 -10 6 -37t3 -43t-21 -30q-12 -6 -19 -4.5t-20.5 6t-22.5 4.5q-17 78 -26 188.5t-10 183t-1 199.5q0 11 1.5 34.5t1.5 43t-3 33.5q-4 26 -22.5 59t-48.5 77t-39 60q-20 36 -57.5 99.5t-53.5 91.5q-35 63 -108 187t-107 188zM205 1626 q-15 82 34 104q36 15 73 -11q26 -20 28 -50q0 -29 -23 -51t-56 -21.5t-56 29.5zM530 1638q-15 82 34 103q36 16 73 -10q26 -20 29 -50q0 -29 -23.5 -51t-56.5 -21.5t-56 29.5z" />
<glyph unicode="&#x2c6;" d="M-39 1251q88 157 223 254q14 -6 27 -32q58 -91 162 -199q25 -25 -33 -57q-13 15 -46 51t-45.5 50t-35.5 42t-45 59q-25 -16 -49 -40.5t-38 -44t-42 -60.5q-7 -11 -20 -21t-29.5 -14.5t-28.5 12.5z" />
<glyph unicode="&#x2dc;" d="M-163 1316.5q0 25.5 3 47t6 27.5q26 44 79 81.5t102 16.5q14 -6 31 -20t40.5 -34.5t36.5 -31.5q16 -11 47 -40.5t58 -47t55 -17.5q49 0 94.5 62.5t50.5 118.5q-1 4 0.5 6.5t5.5 3t7 1t8.5 0t7.5 -0.5q27 -45 19 -93t-42 -85q-92 -108 -163 -90q-41 10 -92.5 41t-86.5 65 q-8 6 -21 23.5t-30 27.5q-40 29 -65 29q-18 0 -37.5 -17.5t-26.5 -33.5q-6 -10 -13.5 -35.5t-15.5 -43.5t-18 -20q-20 -3 -30 15.5t-10 44z" />
<glyph unicode="&#x2000;" horiz-adv-x="948" />
<glyph unicode="&#x2001;" horiz-adv-x="1896" />
<glyph unicode="&#x2002;" horiz-adv-x="948" />
<glyph unicode="&#x2003;" horiz-adv-x="1896" />
<glyph unicode="&#x2004;" horiz-adv-x="632" />
<glyph unicode="&#x2005;" horiz-adv-x="474" />
<glyph unicode="&#x2006;" horiz-adv-x="316" />
<glyph unicode="&#x2007;" horiz-adv-x="316" />
<glyph unicode="&#x2008;" horiz-adv-x="237" />
<glyph unicode="&#x2009;" horiz-adv-x="379" />
<glyph unicode="&#x200a;" horiz-adv-x="105" />
<glyph unicode="&#x2010;" horiz-adv-x="720" d="M226 523q-23 23 1 67q49 -3 92.5 -0.5t93 0.5t79.5 -12q1 -4 5 -13t5.5 -13.5t3 -15.5t-1.5 -20q-51 -9 -94.5 -13t-102 -3.5t-81.5 23.5z" />
<glyph unicode="&#x2011;" horiz-adv-x="720" d="M226 523q-23 23 1 67q49 -3 92.5 -0.5t93 0.5t79.5 -12q1 -4 5 -13t5.5 -13.5t3 -15.5t-1.5 -20q-51 -9 -94.5 -13t-102 -3.5t-81.5 23.5z" />
<glyph unicode="&#x2012;" horiz-adv-x="720" d="M226 523q-23 23 1 67q49 -3 92.5 -0.5t93 0.5t79.5 -12q1 -4 5 -13t5.5 -13.5t3 -15.5t-1.5 -20q-51 -9 -94.5 -13t-102 -3.5t-81.5 23.5z" />
<glyph unicode="&#x2013;" horiz-adv-x="1024" d="M291 555q69 36 200 48.5t236 -5.5q2 -6 7 -17.5t8.5 -19t3 -18t-6.5 -19.5q-28 -8 -41.5 -7.5t-43 4.5t-50.5 3q-32 -1 -79 -11t-81.5 -16.5t-69 -8t-55.5 14.5t-28 52z" />
<glyph unicode="&#x2014;" horiz-adv-x="2048" d="M552 529.5q-9 22.5 5 54.5q87 3 323 12t347 12q3 0 22 1.5t41 2t50.5 0.5t53 -3.5t44.5 -10t30 -20t5 -31.5q-5 -15 -17 -23.5t-30 -10.5t-34 -1.5t-37 2.5t-30 2q-101 3 -350 -12t-393 -12q-21 15 -30 37.5z" />
<glyph unicode="&#x2018;" horiz-adv-x="417" d="M150 1107q-23 92 7 186q28 87 82 97q28 4 58 -14q3 -23 -17.5 -51t-25.5 -41q-16 -40 -16 -95.5t6 -96.5t-2 -91q-69 10 -92 106z" />
<glyph unicode="&#x2019;" horiz-adv-x="417" d="M106 1415q79 28 122 -61q39 -80 26 -190t-69 -143q-22 -13 -48 -11q-2 31 9 93.5t15.5 108.5t-11.5 117q-4 15 -22.5 41t-21.5 45z" />
<glyph unicode="&#x201a;" horiz-adv-x="417" d="M110 60q-5 39 28 75q38 40 78 16l9 -6q24 -19 37.5 -64t10 -95.5t-17.5 -96t-46.5 -70t-75.5 -12.5q0 20 11.5 46.5t23 47.5t18 52.5t-3.5 62.5q-65 -3 -72 44z" />
<glyph unicode="&#x201c;" horiz-adv-x="645" d="M111 1446q14 23 86 6q8 -33 16.5 -145.5t32.5 -167.5q4 -11 29.5 -48.5t19.5 -62.5q-23 -19 -44.5 -18.5t-37 14t-29.5 38.5t-22 49t-15 52q-32 113 -36 283zM338 1446q3 15 21.5 18t36.5 -1.5t28 -10.5q22 -123 49 -209.5t74 -152.5q-24 -39 -74 -31q-61 65 -95.5 169.5 t-39.5 217.5z" />
<glyph unicode="&#x201d;" horiz-adv-x="645" d="M111 991q0 52 15 112.5t32 107t29.5 109t9.5 120.5q24 17 51 8.5t41 -33.5q-12 -130 -43 -239q-53 -197 -80 -203q-10 -3 -20 0t-21 10t-14 8zM276 1047q16 37 56.5 127t68 158t48.5 138q19 -1 30.5 -3t23.5 -8.5t19 -18.5q-7 -63 -35 -135t-71 -158.5t-60 -130.5 q-10 -4 -21 -2t-16.5 2.5t-13.5 5.5t-11 7.5t-9 9t-9 8.5z" />
<glyph unicode="&#x201e;" horiz-adv-x="645" d="M110 60q-5 39 28 75q38 40 78 16l9 -6q24 -19 37.5 -64t10 -95.5t-17.5 -96t-46.5 -70t-75.5 -12.5q0 20 11.5 46.5t23 47.5t18 52.5t-3.5 62.5q-65 -3 -72 44zM372 60q-5 39 28 75q38 40 78 16q5 -3 9 -6q24 -19 37.5 -64t10 -95.5t-17.5 -96t-46.5 -70t-75.5 -12.5 q0 20 11.5 46.5t23 47.5t18 52.5t-3.5 62.5q-65 -3 -72 44z" />
<glyph unicode="&#x2022;" horiz-adv-x="1024" d="M260.5 680q-4.5 48 5.5 98q15 71 84 122.5t158 51.5q64 0 125 -42t91.5 -115t-1.5 -172q-13 -40 -74 -87t-104 -55q-57 -10 -108.5 1.5t-86.5 40t-60 69t-29.5 88.5z" />
<glyph unicode="&#x2026;" horiz-adv-x="2048" />
<glyph unicode="&#x202f;" horiz-adv-x="379" />
<glyph unicode="&#x2039;" horiz-adv-x="530" d="M111 573q6 14 32 27q91 62 195 166q25 28 57 -31q-125 -119 -198 -176q16 -25 43 -49.5t42 -35t62 -42.5q12 -6 23 -18.5t14.5 -28.5t-12.5 -29q-159 86 -258 217z" />
<glyph unicode="&#x203a;" horiz-adv-x="530" d="M135 385q107 107 195 180q-16 24 -42 47t-45 36t-63 42q-11 5 -22.5 17.5t-14.5 28t13 28.5q162 -84 262 -213q-6 -13 -33 -27q-75 -51 -192 -168q-25 -31 -58 29z" />
<glyph unicode="&#x205f;" horiz-adv-x="474" />
<glyph unicode="&#x20ac;" horiz-adv-x="1271" d="M-3 580.5q-1 5.5 0 13t5 12.5q25 19 68 19.5t98 -6t88 -1.5q4 30 6 67t3.5 84.5t2.5 72.5q-33 2 -63 -2.5t-63.5 -12t-53.5 -10.5q-28 20 -43 86q28 24 130 30t106 7q24 90 62 169.5t97 152.5t131 122.5t169 74.5t208 14q197 -17 211 -136q-33 2 -135 25.5t-168 17.5 q-49 -5 -94 -19t-87.5 -38.5t-67 -42t-66.5 -49.5q-12 -19 -43 -63t-47 -69.5t-36 -68t-30 -84.5q27 -4 66.5 -5.5t69 -1.5t84.5 0.5t77 0.5q16 0 42.5 1.5t45.5 2.5t42.5 0.5t39.5 -5t30.5 -12.5t21.5 -23.5t7 -37.5q-29 -12 -69.5 -17.5t-72.5 -5t-82.5 2.5t-72.5 2 q-28 0 -112.5 -4t-134.5 -2q-19 -106 -19 -217q81 -14 266.5 1t272.5 -1q1 -22 1 -27.5t-6.5 -21t-7.5 -19.5q-82 -23 -279.5 -25t-240.5 -8q3 -201 93.5 -351t252.5 -200q176 -52 447 37q4 -4 13.5 -11.5t15 -12t11.5 -13.5t9 -18q-75 -84 -291 -92q-195 -7 -370 123 q-11 8 -44.5 31t-53.5 40t-34 35q-20 28 -38 64t-28.5 62.5t-24 78t-18 69.5t-17.5 80.5t-15 71.5q-30 10 -74 12t-95.5 0.5t-72.5 -0.5l-6 10q-5 10 -7 13t-5.5 12.5t-4.5 15z" />
<glyph unicode="&#x2122;" horiz-adv-x="901" d="M74 1325q12 21 45.5 41.5t59.5 31t79 29t61 21.5q10 1 13 0.5t11.5 -5.5t12.5 -7q-2 -23 -14.5 -41t-25.5 -26t-36.5 -20t-33.5 -18q14 -159 0 -295q-31 -2 -62 13q-18 37 -15 123.5t-3 127.5q-5 0 -16.5 -0.5t-17.5 0t-15.5 1t-15 2t-11.5 4t-10 7.5t-6 11zM326 1018 q-3 29 11.5 84t40.5 131t34 104q1 7 3 18.5t3.5 19t4.5 17.5t6 16.5t8 13t11.5 9t16 3t20.5 -3.5q14 -5 24 -17t14.5 -23.5t12 -33t11.5 -31.5q17 13 33 52t28 53h56q39 -74 66 -190.5t20 -209.5q-19 -4 -41.5 7t-26.5 12q-11 37 -24 117t-25 116q-19 -19 -32 -78t-17 -69 q-26 0 -44 9t-28.5 27t-16 34t-11.5 42.5t-11 40.5q-19 -34 -31.5 -78.5t-24.5 -110.5t-18 -93q-37 -10 -73 12z" />
<glyph unicode="&#xe000;" horiz-adv-x="1495" d="M0 0v1495h1495v-1495h-1495z" />
<glyph unicode="&#xfb01;" horiz-adv-x="1017" d="M113 788q0 77 4 210t4 241t-8 209q10 6 20.5 9t23 5.5t21.5 5.5q513 -20 637 -20q30 0 45 -1t33.5 -8.5t30.5 -23.5v-2q-3 -106 -10 -272t-11.5 -270t-7 -276t3.5 -290q1 -16 5 -64t5 -68.5t1.5 -56t-3.5 -62.5t-12 -52q-49 -18 -59 0q-15 8 -18.5 21.5t0 38t3.5 30.5 q-6 130 -9 372.5t-5 319.5q0 52 -2.5 180t-1 220t9.5 176q-24 -1 -65.5 0.5t-51.5 1.5q-59 0 -162 9t-162 12t-161 -9q8 -282 0 -561q31 -9 72 -12.5t73 -3t85.5 2t82.5 1.5q17 0 49.5 3t58 5t52 0.5t42.5 -11t19 -28.5q1 -16 -3.5 -26.5t-12 -15t-20.5 -6.5t-23 -1.5 t-24.5 1.5t-20.5 1q-219 0 -430 -8q10 -116 7.5 -317t0.5 -310q0 -10 5.5 -32.5t3.5 -38t-17 -25.5q-15 -4 -26 -2t-19.5 3t-14.5 8t-10 12t-6 15.5t-3 18t-1 20t0.5 21.5t1 22.5t0.5 22.5q6 113 -7 341.5t-13 313.5z" />
<glyph unicode="&#xfb02;" horiz-adv-x="1619" d="M121 788q0 77 4 210t4 241t-8 209q10 6 20.5 9t23 5.5t21.5 5.5q512 -20 637 -20h25q1 0 3 1t3 1q3 0 11.5 -1t16 -1.5t15 -2t12.5 -4.5t6 -7q5 -5 5 -7l12 -12v-8q9 -22 10.5 -49.5t-1.5 -67t-3 -55.5q0 -115 -6 -283t-11.5 -294t-3.5 -283t15 -285q36 -17 82 -25.5 t107.5 -9t100.5 1t114.5 8t95.5 7.5q40 7 89 5t72 -24q0 -19 -9 -31.5t-21 -18.5t-33 -8.5t-36 -2.5t-40 1t-35 1q-33 -1 -109 -10t-114 -9q-295 0 -348 72q-7 8 -11.5 30.5t-6 60.5t-2 63t0 71.5t0.5 53.5q-5 167 6 525t7 505q-24 0 -72 3t-65 3q-59 0 -162.5 9t-162.5 12 t-161 -9q8 -282 0 -561q31 -9 72 -12.5t73 -3t85.5 2t82.5 1.5q17 0 49.5 3t58.5 5t52.5 0.5t42.5 -11t19 -28.5q1 -16 -3.5 -26.5t-12.5 -15t-21 -6.5t-23 -1.5t-24.5 1.5t-20.5 1q-219 0 -430 -8q10 -116 7.5 -317t0.5 -310q0 -10 5.5 -32.5t3.5 -38t-17 -25.5 q-15 -4 -26 -2t-19.5 3t-14.5 8t-10 12t-6 15.5t-3 18t-1 20t0.5 21.5t1 22.5t0.5 22.5q6 113 -7 341.5t-13 313.5z" />
</font>
</defs>
</svg>
