<?xml version="1.0" standalone="no"?>
<!DOCTYPE svg PUBLIC "-//W3C//DTD SVG 1.1//EN" "http://www.w3.org/Graphics/SVG/1.1/DTD/svg11.dtd" >
<svg xmlns="http://www.w3.org/2000/svg">
<metadata></metadata>
<defs>
<font id="DKHarimauRegular" horiz-adv-x="1077" >
<font-face units-per-em="2048" ascent="1638" descent="-410" />
<missing-glyph horiz-adv-x="819" />
<glyph horiz-adv-x="0" />
<glyph horiz-adv-x="2048" />
<glyph unicode=" "  horiz-adv-x="819" />
<glyph unicode="&#x09;" horiz-adv-x="819" />
<glyph unicode="&#xa0;" horiz-adv-x="819" />
<glyph unicode="!" horiz-adv-x="425" d="M102 88q0 30 38.5 54t60.5 24q38 0 65 -27t27 -59q0 -30 -23.5 -50t-50.5 -26t-55 -6q-32 5 -47 32t-15 58zM119 1335q0 30 32.5 51t63.5 21q100 0 100 -172q0 -12 2 -126t2 -200q0 -583 -100 -583q-46 0 -70 23.5t-26 47.5v66q0 36 6 112.5t6 118.5q0 78 -3 246t-3 258 l-6 70q-4 46 -4 67z" />
<glyph unicode="&#x22;" horiz-adv-x="684" d="M104 1382q0 54 95 54h8q60 0 79 -33.5t27 -149.5l4 -139q0 -4 1 -14t1 -17q0 -33 -23.5 -54t-92.5 -21q-38 0 -57 12t-19 29v12q0 20 4 55t4 51v27q0 24 -10 92l-4 14q-17 39 -17 82zM367 1386q0 15 5.5 25.5t27.5 19.5t61 9q66 2 86.5 -30.5t27.5 -152.5l5 -139 q0 -4 1 -14t1 -17q0 -33 -24 -54t-93 -21q-38 0 -57 12t-19 29v12q0 20 4 55t4 51v27q0 24 -10 92l-4 15q-16 37 -16 81z" />
<glyph unicode="$" horiz-adv-x="1171" d="M102 1014q0 54 26.5 108t68 96t81 72.5t76.5 50.5q77 40 129 58q6 35 29.5 59.5t52.5 24.5h4q45 -3 68 -53q252 0 252 -136q0 -14 -2.5 -22.5t-19.5 -18.5t-48 -14q-35 0 -80.5 10.5t-76.5 10.5v-345q65 -12 118 -29.5t109.5 -51.5t94.5 -79t62.5 -116.5t24.5 -161.5 q0 -117 -14 -182.5t-49 -112.5q-112 -152 -369 -178q-19 -45 -72 -45h-6q-31 2 -51 41q-22 0 -40 1l-19 1q-148 41 -222.5 90.5t-74.5 128.5q0 27 33 47.5t65 20.5q28 0 62.5 -18t80 -42t92.5 -34v104q0 86 3 246t4 200q-65 6 -112 13.5t-103.5 26t-92 45.5t-60 74 t-24.5 110zM301 1063q0 -52 80 -96q33 -17 115 -27q-1 54 -6.5 154.5t-6.5 122.5q-79 -31 -130.5 -71t-51.5 -83zM657 199q215 45 215 200q0 117 -51 204t-159 120z" />
<glyph unicode="&#x26;" horiz-adv-x="1286" d="M102 375q0 236 217 442q-83 117 -83 291q0 49 13.5 95t41.5 87.5t79 66.5t119 25q108 0 182 -63.5t74 -165.5q0 -180 -182 -358q71 -87 250 -240q34 48 53 92l11 21q10 23 17 37t21.5 35t34.5 31.5t45 10.5q35 0 65 -27t30 -63q0 -9 -2 -18t-7 -21l-7.5 -18t-10.5 -21 t-10 -18l2 4q0 -1 -2 -6t-2 -6q-23 -35 -39.5 -63t-27 -47.5t-13.5 -24.5q24 -25 61.5 -65t58.5 -60.5t42 -36.5h2q21 -22 28.5 -31t14 -23.5t6.5 -31.5q0 -37 -35.5 -62.5t-69.5 -25.5q-28 0 -58 19.5t-52.5 43.5t-52 55t-50.5 46l-28 -39q-19 -35 -52 -68v2 q-37 -40 -60 -62t-62.5 -53t-82.5 -46t-89 -15q-160 0 -275 108t-115 267zM295 385q0 -192 201 -192q29 0 57.5 13t49 29.5t44 47t36 49t32.5 51.5l8 10q-21 23 -111 101q-26 23 -55.5 52t-63 63.5t-42.5 43.5v-2l-23 23q-54 -28 -93.5 -138t-39.5 -151zM424 1110 q0 -92 35 -162q100 108 100 199q0 29 -22 44t-54 15q-59 0 -59 -88v-8z" />
<glyph unicode="'" horiz-adv-x="421" d="M104 1382q0 54 95 54q28 0 45 -4t30 -13.5t20 -31.5t11.5 -52.5t7.5 -81.5l4 -139q0 -4 1 -14t1 -17q0 -33 -23.5 -54t-92.5 -21q-38 0 -57 12t-19 29v12q0 20 4 55t4 51v27q0 24 -10 92l-4 14q-17 39 -17 82z" />
<glyph unicode="(" horiz-adv-x="653" d="M102 735q0 199 57.5 339t184.5 269l16 15q33 33 82 33q32 0 52 -24.5t22 -57.5q0 -15 -12 -41t-25 -33q-211 -151 -211 -483q0 -29 4 -99q3 -40 14 -84.5t27.5 -86.5t37.5 -84.5t44 -80t45 -72t42 -61.5t35.5 -47t24.5 -30t9 -9q0 -39 -26.5 -61.5t-57.5 -26.5 q-67 40 -125 96.5t-109.5 134t-85 181t-41.5 221.5v14q-4 46 -4 78z" />
<glyph unicode=")" horiz-adv-x="653" d="M102 98q0 -1 9 9t24.5 30t35.5 47t42 61.5t45 72t44 80t37.5 84.5t27.5 86.5t14 84.5q4 70 4 99q0 332 -211 483q-13 7 -25 33t-12 41q2 33 22 57.5t52 24.5q45 0 82 -33l16 -15q126 -130 184 -270t58 -338q0 -32 -4 -78v-14q-9 -118 -42.5 -221.5t-85 -180.5t-109 -134 t-124.5 -97q-31 4 -57.5 26.5t-26.5 61.5z" />
<glyph unicode="*" horiz-adv-x="1105" d="M102 874q0 29 38.5 59t72.5 30q35 0 71.5 -21t63 -48t61.5 -57t62 -42q-10 157 -10 204q2 31 29.5 52.5t66.5 21.5q28 0 47 -11t29 -26t15 -41t6 -44t1 -48v-10q0 -35 2 -78q20 18 91 74h-3q53 53 132 53q53 0 77.5 -24t24.5 -50q0 -28 -44.5 -68.5t-219.5 -174.5 q40 -28 92.5 -62.5t82 -54t59 -42t42.5 -41t13 -36.5q0 -36 -30 -62t-79 -26q-12 0 -24.5 3.5t-27 11t-24.5 13t-26.5 16.5l-22.5 15q-1 1 -9.5 7t-36 25t-69.5 48q0 -38 -1 -108t-1 -105q0 -98 -98 -98h-4q-27 1 -45 13.5t-26 36.5t-10.5 47.5t-2.5 56.5v65q0 16 -1 35 t-1 27q0 4 1 15t1 19q-187 -151 -274 -151q-76 0 -76 69q0 20 16 44t49.5 52.5t62.5 51t79 58.5t75 55q-42 33 -130 93t-127.5 95.5t-39.5 62.5z" />
<glyph unicode="+" horiz-adv-x="948" d="M102 680v2q0 84 213 84h68q2 0 7 1t7 1q-8 63 -8 143q0 83 10 193q0 53 22 79t75 29h8q54 0 68 -36.5t14 -137.5q0 -37 -2.5 -128.5t-3.5 -127.5h53q34 0 75.5 1t59.5 1q31 0 54.5 -29.5t23.5 -60.5v-6q-2 -27 -15 -44.5t-35.5 -25.5t-45 -11t-52.5 -3q-14 0 -39 1t-36 1 q-23 0 -33 -2v-133q0 -139 12 -311v-4q0 -13 1 -37t1 -33q0 -42 -21 -63t-85 -21h-17l-12 2q-22 16 -33.5 42t-13.5 45.5t-2 51.5q0 65 -5 199t-5 203v49q-51 0 -112 -4t-95 -4q-59 0 -77 16.5t-24 77.5z" />
<glyph unicode="," horiz-adv-x="557" d="M102 -289q0 15 2 21l54 59q123 114 123 166q0 30 -28 93t-28 100q0 40 24 66t62 26q44 0 78.5 -56t50 -123.5t15.5 -123.5q0 -97 -93.5 -190t-195.5 -101q-21 7 -42.5 23.5t-21.5 39.5z" />
<glyph unicode="-" horiz-adv-x="1048" d="M102 397q0 68 50 82t244 17q121 2 198 4q168 4 256 4q42 0 69 -27.5t27 -89.5q0 -37 -19 -55.5t-42 -18.5q-115 0 -340 -3t-340 -3q-21 0 -34.5 2t-31.5 9.5t-27.5 27.5t-9.5 51z" />
<glyph unicode="." horiz-adv-x="419" d="M102 125q0 23 22 58.5t46 35.5h53q36 0 65 -44t29 -75q0 -102 -114 -102q-52 0 -76.5 35.5t-24.5 91.5z" />
<glyph unicode="/" horiz-adv-x="925" d="M102 88q0 64 56 178l6 10q53 123 179 385.5t187 407.5q15 35 45.5 121t51.5 133l8 18q29 56 90 56q23 0 39 -8h6q51 -28 51 -93q0 -38 -15.5 -85t-45 -112.5t-37.5 -86.5l-422 -918q-26 -47 -50.5 -70.5t-57.5 -23.5q-38 0 -64.5 23t-26.5 65z" />
<glyph unicode="0" horiz-adv-x="958" d="M102 485q0 117 36 216t98 165.5t144 104t173 37.5q70 0 124 -27.5t87.5 -72t54.5 -106.5t29 -124t8 -131q0 -62 -16 -134.5t-48 -146.5t-76 -134t-106 -98t-131 -38q-72 2 -134 32.5t-106 80t-75.5 112t-46.5 130t-15 134.5zM291 465q0 -108 51 -191.5t145 -83.5 q27 0 54 24.5t49 64.5t38 78.5t27 76.5q13 47 13 133q0 80 -25 158.5t-82 103.5q-82 -2 -146 -63.5t-94 -142t-30 -158.5z" />
<glyph unicode="1" horiz-adv-x="634" d="M102 596q0 33 14.5 61t44.5 63.5t40 51.5v-2l14 23q66 100 86 139q13 23 20.5 33.5t22.5 24t35.5 19t50.5 5.5q102 0 102 -127v-58q0 -126 -4 -371.5t-4 -371.5v-45q-24 -47 -114 -47q-37 0 -56.5 27t-19.5 59q6 373 6 561v25q-22 -30 -31 -52l-2 -4v2q-22 -33 -35 -49 t-39 -32.5t-57 -16.5q-39 0 -56.5 26t-17.5 56z" />
<glyph unicode="2" horiz-adv-x="790" d="M102 86q0 30 32.5 90t63 103t83.5 114l43 64q123 182 127 338v47h-11q-35 0 -61.5 -13t-39 -29t-28 -29t-30.5 -13q-55 0 -81 23t-26 81q0 44 29 79.5t73 56t92 31.5t91 11q47 0 82 -18.5t53.5 -49t27.5 -63t9 -67.5q0 -21 -4 -49l2 -9q-2 -46 -14.5 -95t-25 -85t-45 -98 t-50.5 -93.5t-68 -115t-72 -121.5q13 0 44.5 3t84.5 3q34 0 65 -3.5t65 -12.5t54.5 -29.5t20.5 -50.5q0 -39 -32 -58.5t-74 -19.5q-34 0 -100 5t-99 5q-82 0 -147 -24h-9q-12 -4 -22 -4q-43 0 -73 28t-30 68z" />
<glyph unicode="3" horiz-adv-x="854" d="M102 178q0 80 95 80h18q12 0 48.5 -21t83 -42t83.5 -21q46 0 92.5 39.5t46.5 83.5q0 50 -58.5 94.5t-125.5 65.5h2q-12 2 -36 3t-39.5 3.5t-33 10.5t-26 27.5t-8.5 51.5q0 28 24 52t58 42.5t67.5 39t57.5 52.5t24 72q0 16 -29 16q-27 0 -56 -13t-52 -13q-96 0 -96 106 q0 33 73 67t170 34q48 0 84 -22t55.5 -57t28.5 -71.5t9 -71.5q-29 -116 -101 -192q86 -46 138.5 -125.5t52.5 -173.5q0 -72 -39.5 -132t-98.5 -95.5t-119.5 -54.5t-109.5 -19q-48 0 -115 28.5t-117.5 72.5t-50.5 83z" />
<glyph unicode="4" horiz-adv-x="942" d="M102 512q0 33 7.5 67.5t13 50.5t20.5 54l29 74q23 47 25 69l32 127q14 56 99 56h18q35 -18 50.5 -46t15.5 -53q0 -57 -20.5 -119.5t-50 -130t-40.5 -108.5q75 -14 234 -18q0 11 4 57l6 70q6 65 17 85q22 39 87 39q46 0 66 -31t20 -67q0 -1 -6 -82l-6 -71q117 -14 117 -89 q0 -81 -115 -81q0 -140 -12 -238q-5 -34 -9.5 -52.5t-17 -39.5t-36.5 -30t-62 -9q-24 0 -37 10t-29 33l-4 14v21q0 50 8.5 142.5t8.5 141.5v9q-433 0 -433 145z" />
<glyph unicode="5" horiz-adv-x="892" d="M102 -106q0 45 23 55q43 11 95.5 29t123 53.5t126 77t95 102t39.5 125.5q0 58 -44 103t-101.5 67t-116.5 26q-15 2 -42 2.5t-45.5 1t-40.5 6t-36 16t-23.5 33t-9.5 54.5v35q0 39 1 66.5t4 69t10.5 70t19.5 56.5t32 42.5t46 14.5q58 0 106 -1.5t104 -5.5t98 -12 t78.5 -19.5t55.5 -30.5t19 -43v-6q-5 -45 -25.5 -67.5t-68.5 -22.5q-51 0 -146 10t-127 12h-16l-8 -94q64 -3 127 -19t124 -48t108 -76t75.5 -108t28.5 -138q0 -45 -12 -88t-27 -75t-47 -68.5t-53.5 -58t-66.5 -54.5t-65.5 -46.5t-70.5 -45.5q-11 -7 -17 -11 q-134 -78 -264 -78q-25 0 -45.5 32t-20.5 57z" />
<glyph unicode="6" horiz-adv-x="794" d="M102 434q0 134 47.5 311t124 311t148.5 134q33 0 59.5 -30.5t26.5 -65.5q0 -33 -39 -82l-12 -17q-45 -62 -91.5 -171t-54.5 -189q29 4 101 4q121 0 189.5 -73.5t90.5 -196.5q0 -94 -35.5 -179t-108.5 -141.5t-167 -56.5q-89 0 -161.5 78.5t-96.5 173.5q-21 75 -21 190z M274 346q0 -57 46 -110.5t94 -53.5q37 0 59.5 39t22.5 123q0 105 -121 105q-101 -22 -101 -103z" />
<glyph unicode="7" horiz-adv-x="792" d="M102 924v24q14 21 46.5 38.5t60.5 17.5h8q3 0 44.5 -3.5t60.5 -3.5q41 0 104.5 3.5t91.5 3.5q91 0 131.5 -51.5t40.5 -133.5q0 -47 -2 -98t-3.5 -83.5t-7.5 -92t-7.5 -77t-9.5 -87.5t-9 -78l-6 -51q-2 -16 -18 -124.5t-21 -168.5q-8 -88 -31.5 -121t-89.5 -33 q-20 0 -45.5 27.5t-25.5 46.5q102 855 102 948q0 7 -14 7l-47 -5q-130 -10 -252 -10q-42 3 -71.5 33.5t-29.5 71.5z" />
<glyph unicode="8" horiz-adv-x="798" d="M102 309q0 91 41 176t113 140q-55 61 -91 134t-36 140q0 120 71.5 208.5t186.5 88.5q138 0 223.5 -83.5t85.5 -221.5q0 -68 -34 -135t-115 -162l57 -88q60 -93 64 -256q0 -111 -78 -180.5t-189 -69.5q-133 0 -216 86.5t-83 222.5zM276 324q0 -73 39 -115.5t109 -42.5 q32 0 48.5 33t16.5 75q0 30 -5.5 65.5t-17 70.5t-31 58.5t-44.5 23.5q-48 0 -81.5 -57t-33.5 -111zM305 899q0 -93 109 -184q106 102 106 172q0 137 -149 137q-31 0 -48.5 -42t-17.5 -83z" />
<glyph unicode="9" horiz-adv-x="823" d="M102 641q0 72 22.5 141t63 124t103.5 88.5t137 33.5q93 0 169.5 -80.5t100.5 -177.5q23 -75 23 -197q0 -102 -30.5 -237t-77 -255t-109 -203t-119.5 -83q-34 0 -62 32t-28 67q0 31 41 86l14 16q47 65 95.5 176.5t56.5 194.5q-39 -5 -105 -5q-127 0 -199 76.5t-96 202.5z M309 666q0 -107 125 -107q107 22 107 107q0 58 -48 111.5t-98 53.5q-86 0 -86 -165z" />
<glyph unicode=":" horiz-adv-x="419" d="M78 715q0 32 31 68t65 36q69 0 101 -24t32 -105q0 -39 -27 -74.5t-65 -35.5q-53 0 -95 42t-42 93zM102 125q0 23 22 58.5t46 35.5h53q36 0 65 -44t29 -75q0 -102 -114 -102q-52 0 -76.5 35.5t-24.5 91.5z" />
<glyph unicode=";" horiz-adv-x="419" d="M-8 -285q0 15 2 21l53 59q123 114 123 166q0 30 -27.5 93t-27.5 100q0 40 24 66t62 26q44 0 78 -56t49.5 -123.5t15.5 -123.5q0 -97 -93.5 -190t-195.5 -101q-21 7 -42 23.5t-21 39.5zM90 727q0 23 22 58.5t46 35.5h53q36 0 65 -44t29 -75q0 -102 -115 -102 q-52 0 -76 35.5t-24 91.5z" />
<glyph unicode="&#x3c;" horiz-adv-x="970" d="M102 506q0 41 63 120.5t220.5 251t257.5 289.5q62 60 105 60q28 0 49.5 -26t21.5 -56v-2q-3 -45 -51.5 -115t-116 -141.5t-134.5 -140.5t-114 -128.5t-49 -89.5q3 -16 84.5 -73t176.5 -119.5t174 -131.5t79 -106q0 -24 -32.5 -54t-53.5 -30t-111.5 46t-200 112.5 t-216 155t-148.5 159.5q-4 6 -4 19z" />
<glyph unicode="=" horiz-adv-x="1091" d="M102 750q0 23 3.5 39.5t7 25.5t13.5 15t15 8t20 4.5l21 3.5q120 26 271 26q11 0 84 3.5t125 3.5q327 0 327 -117q0 -22 -2.5 -35.5t-12 -22.5t-16 -12.5t-26.5 -11.5h-168q-100 0 -297 -13.5t-295 -13.5q-32 0 -51 25.5t-19 71.5zM104 444v19q3 36 21 47.5t49 11.5h193 q338 0 536 -18q40 -4 55 -25t15 -67q0 -54 -4 -54q-94 -43 -432 -43q-186 0 -332 15q-50 5 -75.5 30t-25.5 84z" />
<glyph unicode="&#x3e;" horiz-adv-x="970" d="M102 98q0 37 79 106t174 131.5t176.5 119.5t84.5 73q-2 30 -49 89.5t-114 128.5t-134 140.5t-115.5 141.5t-51.5 115v2q0 30 21.5 56t49.5 26q43 0 105 -60q99 -117 256.5 -289t220.5 -251.5t63 -120.5q0 -13 -4 -19q-42 -71 -148.5 -159.5t-216 -155t-200 -112.5 t-111.5 -46t-53.5 30t-32.5 54z" />
<glyph unicode="?" horiz-adv-x="1150" d="M102 911q0 23 17 80l6 23v-2q28 117 115 202t199 124.5t235 39.5q157 0 266 -95.5t109 -252.5q0 -121 -113 -237v2l-191 -144l-40 -43q-13 -57 -13 -162q0 -2 2.5 -19t5 -40.5t2.5 -40.5q0 -33 -29.5 -53.5t-58.5 -20.5q-26 0 -44.5 9t-27.5 21.5t-14.5 33t-6.5 35 t-1 35.5v36q0 12 -1 39t-1 41q0 57 10 96v11q14 107 168 192h-2q74 52 105 78q75 75 75 174q0 44 -41 76.5t-90 46.5t-92 14q-79 0 -160.5 -35.5t-143 -104t-73.5 -150.5q-5 -13 -8 -43.5t-7.5 -49.5t-25.5 -35t-59 -16q-48 37 -60 65t-12 70zM537 96q0 39 27 57.5t61 18.5 q90 0 90 -94q0 -39 -28.5 -57.5t-63.5 -18.5q-38 0 -62 27.5t-24 66.5z" />
<glyph unicode="@" horiz-adv-x="1329" d="M102 596q0 85 24 173t71 168t110 143.5t148.5 101t179.5 37.5q108 0 214.5 -45.5t190 -122t135.5 -188t52 -234.5q0 -70 -23 -129t-55.5 -94t-70 -59.5t-64.5 -34t-41 -9.5q-39 0 -71 21t-66 57l-64 -10q-11 -2 -38 -7.5t-50 -8.5t-45 -3h-12q-56 0 -101.5 11t-87.5 37.5 t-66 78.5t-24 125q0 157 107 265t270 108q13 0 30 -1t23 -1h15q0 27 4 39q-82 43 -176 43q-68 0 -132.5 -43.5t-109 -110t-71.5 -145.5t-27 -150q0 -61 13.5 -122t43 -120t71 -104t104 -72.5t136.5 -27.5q66 8 94 8q99 0 99 -70q0 -33 -24 -56t-61 -33.5t-66.5 -14.5 t-53.5 -4q-136 0 -259.5 82.5t-199.5 223t-76 298.5zM498 606q0 -28 15.5 -47.5t41 -28.5t48 -12.5t46.5 -3.5q4 0 12 1t11 1h20q77 0 129 23q0 61 -20 286q-2 0 -7.5 1t-7.5 1q-44 0 -88.5 -9.5t-92 -31.5t-77.5 -68.5t-30 -111.5zM952 891l15 -178q13 -90 16 -211 q64 33 64 125q0 78 -36 167.5t-59 96.5z" />
<glyph unicode="A" d="M104 106q0 26 21 91l6 18q2 6 23.5 69t26.5 78.5t25.5 77.5t29 89t28 88.5t31 100t29 99.5t31 111t29.5 111t30 120q4 14 11.5 51t13 61.5t18 57.5t26.5 53.5t37 35t51 14.5q86 0 158 -296q3 -11 4 -16l25 -98q29 -131 87 -373t85 -362l14 -64q22 -96 31 -172 q-7 -40 -30.5 -61t-55.5 -21q-51 0 -92 47l-4 21q-11 43 -11 74l-6 28q-6 27 -16.5 86.5t-17.5 98t-11 38.5q-24 7 -69 7q-41 0 -135.5 -5t-127.5 -6h-18q-13 0 -21 -4l-8 -8l-10 -39q-4 -14 -12 -59t-17 -80.5t-23 -75t-38 -62t-55 -22.5q-93 0 -93 98zM408 535 q210 0 270 14q-4 12 -4 22q-19 89 -61.5 262t-53.5 220l-8 -29q-20 -106 -74.5 -272.5t-68.5 -216.5z" />
<glyph unicode="B" horiz-adv-x="1050" d="M90 1075q0 168 12 281q4 41 92 69.5t203 28.5q73 0 139 -14t124 -43t92 -81.5t34 -123.5q0 -118 -41.5 -210t-126.5 -173q137 -15 233.5 -96.5t96.5 -212.5q0 -102 -50.5 -182t-133.5 -127.5t-181 -72t-202 -24.5q-45 0 -70 2l-6 -26q-2 -20 -8.5 -34.5t-13 -22 t-19.5 -13t-20.5 -7t-24 -4t-22.5 -3.5q-30 0 -48 53.5t-18 81.5q0 156 -20.5 475t-20.5 479zM293 1104q0 -174 12 -287h14q75 0 147 57t113.5 138t41.5 155q0 103 -177 103q-32 0 -81.5 -3t-61.5 -3h-8v-160zM307 264q25 -8 129 -8h8q29 0 47 0.5t51 4t57.5 11.5t53.5 21.5 t52 36.5t40 53q31 56 31 100q0 36 -13 65t-33.5 47.5t-52.5 32.5t-61.5 21t-70 11t-69 5t-66.5 1l-30 -1q-29 -1 -63 -1l-2 -263q0 -7 -4 -66t-4 -65v-6z" />
<glyph unicode="C" horiz-adv-x="1163" d="M102 561q0 111 18 216.5t64.5 215.5t116.5 197.5t182.5 155.5t255.5 96q46 8 70 8q113 0 113 -117q0 -33 -24 -51t-56 -18q-109 0 -200.5 -38.5t-154.5 -104t-107 -153.5t-64.5 -186t-20.5 -202q0 -199 108 -297.5t310 -98.5q43 0 137.5 16.5t142.5 16.5q37 0 52.5 -18.5 t15.5 -55.5q0 -27 -13 -49.5t-42.5 -42.5t-87 -31.5t-138.5 -11.5q-134 0 -236 14t-188 54q-84 44 -142.5 125t-85 172.5t-26.5 187.5z" />
<glyph unicode="D" horiz-adv-x="1132" d="M102 1362q0 20 7 34t15.5 21t27 10.5t31 4t38.5 0.5q22 0 49 -4.5t45.5 -9.5t50.5 -14.5t44 -12.5q119 -33 227.5 -97.5t197.5 -155.5t142 -214.5t53 -261.5q0 -137 -70.5 -262.5t-182.5 -212t-252 -138t-277 -51.5q-24 0 -40 6.5t-32 29.5t-25.5 62t-19 110.5t-14.5 168 t-8.5 241.5t-5 324t-1.5 422zM287 1249q0 -13 15 -272t15 -543q0 -76 -4 -276q104 22 195.5 62t171.5 100.5t127 149.5t47 196q0 137 -35 200q-41 72 -96 137.5t-123 122t-149.5 90t-163.5 33.5z" />
<glyph unicode="E" horiz-adv-x="1093" d="M102 1335q0 49 19.5 74t79.5 25q103 0 314 -9t314 -10q31 0 52.5 -2.5t45 -10.5t36 -26.5t12.5 -46.5q0 -55 -25.5 -74.5t-83.5 -19.5q-26 0 -146 9t-216 9q-103 0 -199 -8l-6 -8v-438q0 -30 14 -40.5t41 -10.5q68 0 234.5 9t208.5 9q48 0 74.5 -3.5t39.5 -15t16 -23.5 t3 -38v-20q0 -29 -37.5 -49.5t-67.5 -20.5q-41 0 -236 -11t-290 -14v-219q0 -24 2.5 -52t7 -66t6.5 -60q0 -8 27 -8q29 0 194.5 22.5t247.5 22.5q207 0 207 -72q0 -21 -4 -36.5t-15 -26t-18.5 -17t-27 -10.5t-27 -5t-31 -3t-28.5 -2q-383 -35 -586 -35q-35 0 -61 14.5 t-39.5 34.5t-21.5 52.5t-10 57.5t-3 60q-2 180 -3.5 339t-3 269t-3.5 200.5t-3 145.5t-2 92t-1.5 52t-0.5 14z" />
<glyph unicode="F" horiz-adv-x="874" d="M102 1112q0 81 1 132.5t6.5 89t10.5 56t18.5 29t25 12t35.5 1.5h39q352 0 443 -21t91 -121q0 -53 -176 -53q-50 0 -139 4t-113 4q-45 0 -45 -8q0 -2 6 -8q3 -116 7.5 -198t7 -118t2.5 -59v-33q19 1 134 7t175 6q55 0 87 -20t32 -75q0 -27 -3 -43.5t-15.5 -30t-28.5 -20 t-52.5 -10.5t-76.5 -5t-111 -1h-152v-23q0 -70 -7 -237.5t-7 -251.5q0 -59 -24 -89t-91 -30q-46 0 -71 63v25q0 6 -1 22t-1 25v60q0 259 -3.5 560.5t-3.5 358.5z" />
<glyph unicode="G" horiz-adv-x="1533" d="M102 600q0 214 126 412t331 329q65 41 147 68t154 27q123 0 123 -82q-18 -42 -35 -52t-47 -10h-6q-108 -18 -216.5 -79.5t-193 -147.5t-137.5 -197t-53 -221q0 -87 36 -164.5t96 -132.5t136.5 -95.5t159 -60.5t162.5 -20q184 0 321 96q19 101 19 308v10q-57 0 -173 -7.5 t-175 -7.5q-220 0 -220 105q0 46 38.5 66t86.5 20h521q34 0 52.5 -2.5t38.5 -11t29 -29.5t9 -55q0 -63 -24 -301t-24 -465q-11 -30 -44.5 -44t-71.5 -14q-72 0 -72 174q0 10 1 29t1 27v8q-64 -26 -103 -40t-104 -28t-125 -14q-81 0 -169 19t-173 54t-161.5 89t-134.5 119 t-92 148t-34 173z" />
<glyph unicode="H" horiz-adv-x="1097" d="M102 172q9 454 9 680q0 60 -1 156t-1 133v188q0 49 22 86t72 37q41 0 58 -2t32 -14t18.5 -35.5t3.5 -69.5q0 -22 -4 -147t-4 -226q0 -51 4 -227q100 -29 277 -29h16q2 0 20.5 1.5t23 1.5t20.5 1.5t23 3t21.5 3.5t24 4.5t22.5 6t25 7.5q4 4 4 27l9 596q0 37 26.5 55 t61.5 18t56.5 -10t30.5 -31t12 -39t4 -49.5t3 -46.5q-2 -47 -2 -145q0 -92 3 -286t3 -296q0 -262 -16 -473q-9 -34 -37.5 -52.5t-62.5 -18.5q-28 0 -48 12.5t-30 33t-14.5 41.5t-4.5 44q0 70 2 212.5t2 215.5q0 4 -2 4q-30 0 -97.5 -15.5t-108.5 -15.5q-46 0 -135 8t-134 8 q-4 -29 -4 -84v-286q0 -70 -21 -93t-69 -30l-27 -4q-22 3 -38 14t-24 23.5t-13.5 33.5t-7 34t-3.5 36z" />
<glyph unicode="I" horiz-adv-x="956" d="M102 53v84q0 35 172 35q32 0 78 -1t54 -1q18 0 18 2v31q0 43 8 288t8 533l-2 229q-7 0 -40 -2t-54 -2q-46 0 -70.5 0.5t-47 5.5t-31.5 10.5t-16 20t-8 30t-1 44.5q0 32 21.5 52t52.5 20q82 -5 176 -5q80 0 179.5 4.5t123.5 4.5q78 0 104.5 -23.5t26.5 -97.5 q0 -62 -109 -62h-47q-48 0 -82 -10v-26q0 -85 3.5 -285.5t3.5 -308.5q0 -242 -17 -439q12 0 48.5 2t62.5 2q51 0 82 -4q24 -3 36.5 -47t12.5 -71q0 -37 -16.5 -45.5t-86.5 -14.5q-6 2 -30 2q-28 0 -159.5 -6t-209.5 -6q-244 0 -244 57z" />
<glyph unicode="J" horiz-adv-x="876" d="M102 111q0 73 80 73q27 0 67 -4t70 -4h11q40 0 63.5 2.5t55 12t54 33t38.5 61.5q24 162 24 397q0 64 -1 155.5t-1 120.5q0 210 6 263v4q-20 12 -87 15q-56 2 -110 2h-22q-2 -1 -4 -1q-63 0 -114 15q-52 16 -52 51v10q-4 24 -4 35q0 25 9 41t27.5 22.5t33 8.5t40 2t33.5 1 h25q12 0 90.5 3.5t85.5 3.5h79t59.5 -2.5t46 -5.5t30.5 -10.5t21.5 -16t10.5 -24.5t6.5 -33t0.5 -44q0 -48 -4 -140t-4 -134v-197q0 -129 -0.5 -206t-5.5 -167t-11.5 -137.5t-22.5 -104t-33.5 -82t-50 -56t-67.5 -40.5t-89.5 -21t-112 -13t-140.5 -2q-78 0 -103 21t-28 92z " />
<glyph unicode="K" horiz-adv-x="1046" d="M102 57v43q0 19 3.5 60.5t3.5 56.5v10q4 36 4 54q-7 488 -7 1085q0 70 68 70q2 0 5.5 -1t4.5 -1q4 0 9 1t6 1h8q46 0 62 -21q25 -33 30 -190q2 -81 2 -316q0 -27 -2 -41q196 172 348 340l31 35q40 56 89.5 103t76.5 47q57 0 90 -41q0 -39 -16 -73.5t-30.5 -50.5 t-43.5 -44h2l-29 -33v2q-73 -78 -152 -157.5t-106 -108.5t-27 -39v-4q34 -61 143 -213t189 -278t80 -177q0 -12 -2 -16q-1 -2 -2.5 -16t-6 -22.5t-23 -17t-50.5 -8.5q-47 0 -116.5 87.5t-129 195t-125 214t-102.5 134.5q-23 -20 -57.5 -61t-34.5 -50q0 -79 -16 -460 q-2 -31 -3 -45.5t-7 -39t-16 -36.5t-29 -21.5t-46 -9.5h-24q-11 2 -31.5 22.5t-20.5 30.5z" />
<glyph unicode="L" horiz-adv-x="882" d="M102 1346q0 26 8 43.5t17 26.5t30 13t33.5 4.5t41.5 0.5h5h5h6q63 0 63 -400q0 -130 -8 -401t-8 -369q0 -44 6 -82h33q53 0 158.5 7.5t164.5 7.5q123 0 123 -88q0 -53 -53 -89q-80 0 -246.5 -9t-259.5 -9q-36 0 -58.5 10t-32 31t-12.5 40t-3 50q0 239 -6.5 634.5 t-6.5 578.5z" />
<glyph unicode="M" horiz-adv-x="1728" d="M104 1319q0 48 28.5 64t76.5 16q32 0 98 -89t142.5 -220t151.5 -263.5t140 -236.5t93 -123q20 21 186 354q60 111 97 181t59.5 116.5t23.5 48.5q9 17 26 54t28.5 59.5t32 53.5t40.5 49t49.5 31t63.5 13q50 0 95.5 -286.5t68 -606.5t22.5 -509q0 -119 -78 -119h-10 q-35 0 -47 15q-22 26 -39 180q-7 66 -26 275l-31 324l-37 381l-96 -168l2 2q-29 -71 -132 -267.5t-149 -328.5q-62 -137 -90.5 -185t-48.5 -48q-12 0 -39 23q-82 97 -169.5 248.5t-180.5 321t-168 275.5q3 -94 9.5 -269t10.5 -316.5t4 -264.5v-8q-3 -80 -78 -80h-16 q-25 1 -35 4t-21.5 17.5t-23.5 48.5l-2 8q-31 844 -31 1225z" />
<glyph unicode="N" horiz-adv-x="1105" d="M102 131q0 2 1 6t1 6v41q0 154 2.5 474.5t2.5 482.5q0 20 -1.5 61.5t-1.5 63.5q0 44 24 79t67 35q11 0 21 -2t18 -4.5t16.5 -7.5t13.5 -8.5t12 -11t10 -11t9 -12.5t7.5 -11.5t7 -11.5t4.5 -10q237 -377 503 -971l-16 345q-1 27 -5 84q-2 56 -4 98q-1 25 -1 50v32v391 q0 42 19 73t60 31h9q32 -1 53.5 -20t31.5 -55.5t14 -72t5 -85.5l19 -909q0 -281 -97 -281q-8 0 -23.5 6.5t-59.5 45t-94.5 102.5t-130 197.5t-165.5 312.5q-112 230 -151 282l7.5 -82.5t12 -133.5t10 -160t3.5 -187q0 -112 -10 -320q-23 -55 -111 -59q-46 6 -69.5 42.5 t-23.5 84.5z" />
<glyph unicode="O" horiz-adv-x="1478" d="M102 700q0 129 64 304v8q201 415 559 415q144 0 252 -50t237 -158q77 -85 119.5 -205.5t42.5 -241.5v-63q-3 -103 -34.5 -206.5t-90 -195t-135.5 -162t-178 -112t-211 -41.5q-120 0 -235 58t-200.5 153.5t-137.5 226.5t-52 270zM293 715q0 -94 27 -186t79.5 -172.5 t141.5 -130.5t200 -50h13q80 0 150 37.5t119 99.5t85 141.5t53 163.5t17 164q0 133 -66 243t-173 170t-230 60q-67 0 -131.5 -34t-115 -90.5t-89.5 -126.5t-59.5 -145.5t-20.5 -143.5z" />
<glyph unicode="P" horiz-adv-x="927" d="M102 1331q0 96 119 96q53 0 168 -26q221 -55 328.5 -187t107.5 -317q0 -138 -45 -226t-152.5 -144.5t-293.5 -82.5q-4 -27 -4 -82q0 -47 6 -146t6 -146q0 -5 -7.5 -19.5t-31.5 -31.5t-57 -17q-44 0 -74.5 24t-30.5 64q0 198 -19.5 625t-19.5 616zM289 1217 q0 -95 14.5 -291t16.5 -303q326 0 325 280q0 78 -52.5 152t-130.5 118t-153 44h-20z" />
<glyph unicode="Q" horiz-adv-x="1531" d="M102 666q0 154 48 294.5t132 245t207 166.5t265 62q125 0 238 -49t197 -136t133.5 -213.5t49.5 -273.5q0 -93 -21.5 -215t-62.5 -199l-71 -117l53 -43h-2q48 -38 76 -63t57 -70t29 -88q0 -38 -26.5 -59t-72.5 -21q-17 0 -35 11.5t-27.5 22t-29.5 34.5q-69 94 -166 164 q-10 -2 -43 -25l-84 -51h2q-131 -43 -254 -43q-174 0 -293.5 84t-214.5 260v-2q-84 148 -84 324zM281 678q0 -111 31 -201.5t78.5 -146.5t109 -94.5t118 -54t109.5 -15.5q98 0 140 14t42 43q0 21 -23 52t-56.5 65t-66.5 69.5t-56 74.5t-23 71q0 22 8.5 37.5t19 23t29.5 12 t32 5t34 0.5q19 0 76.5 -67t109.5 -133.5t60 -65.5l22 -9q115 150 115 406q0 56 -19.5 123.5t-57.5 135.5t-87.5 124.5t-116 91.5t-137.5 35q-96 0 -185 -41t-156.5 -112.5t-108.5 -177.5t-41 -228v-37z" />
<glyph unicode="R" horiz-adv-x="1222" d="M102 80q0 110 2 284.5t2 239.5q0 50 -1 134t-1 118q0 108 0.5 173.5t4.5 130.5t8 98.5t15.5 65.5t22.5 44t33.5 22t44 11.5t58.5 2.5q55 0 106 -3t129 -13t143.5 -27t135.5 -50t118 -77t79.5 -111.5t31.5 -151.5q0 -141 -98 -250.5t-279 -179.5q82 -91 116.5 -126 t44 -39.5t81 -76t209.5 -217.5q12 -19 12 -39q0 -43 -14.5 -65.5t-61.5 -22.5q-71 0 -104 47q-121 105 -210.5 194t-136 143t-136.5 163l-4 -2q-1 0 -2 1t-2 1q-40 0 -71 -0.5t-47 -1t-26.5 -1t-12.5 -1.5h-3v-35q0 -51 -7.5 -170t-7.5 -197q0 -2 1 -7t1 -7 q-3 -30 -27 -43.5t-56 -13.5t-61.5 12.5t-29.5 42.5zM283 715q0 -39 6 -50.5t24 -12.5q60 0 127 9t141.5 31.5t133 55.5t97 88t38.5 122q0 48 -17 86.5t-44.5 64.5t-68 45.5t-83.5 31t-94.5 19.5t-97 12t-95.5 8l-19.5 1.5t-17 1t-18.5 1.5q-10 -72 -12 -514z" />
<glyph unicode="S" horiz-adv-x="1171" d="M102 1014q0 54 26.5 108t68 96t81 72.5t76.5 50.5q167 91 308 91q28 0 55 -3t59.5 -11.5t56 -23t40 -40.5t16.5 -60q0 -14 -2.5 -22.5t-19.5 -18.5t-48 -14q-36 0 -78.5 10.5t-64.5 10.5q-63 0 -150 -26.5t-156 -74t-69 -96.5q0 -52 80 -96q21 -12 73.5 -20t113 -16 t132 -22t136 -44.5t118 -77t85.5 -126t32 -184.5q0 -117 -14 -182.5t-49 -112.5q-135 -182 -473 -182q-25 0 -43.5 0.5t-28 1t-12.5 0.5h-15q-67 20 -114 39.5t-87.5 45.5t-60.5 59.5t-20 74.5q0 27 33 47.5t65 20.5q31 0 74.5 -25t102.5 -50.5t128 -25.5q21 0 47 3t64 10 t72 22.5t64.5 37t49 57.5t18.5 81q0 72 -19 132t-59 108.5t-110 76t-164 27.5q-50 4 -83.5 8t-81 13t-79.5 21t-68 32.5t-57 46.5t-35 64.5t-14 85.5z" />
<glyph unicode="T" horiz-adv-x="1298" d="M102 1339q0 31 19.5 51.5t57 30.5t76.5 13.5t93 3.5q30 0 88 -1t84 -1h602q38 0 56 -26.5t18 -63.5q0 -35 -14 -65t-33 -30l-158 -4q-47 -1 -98 -3.5t-62 -2.5q-5 0 -12 1t-10 1l-8 2v-340q0 -98 -1 -369t-1 -427q-3 -63 -24 -89t-81 -26q-84 0 -84 143q0 106 2 343.5 t2 369.5q0 178 -6 381h-30q-32 0 -85 2t-79 2h-181q-60 0 -95.5 31t-35.5 73z" />
<glyph unicode="U" horiz-adv-x="1294" d="M102 881q0 251 58 489q15 35 46 48.5t54 13.5q86 0 86 -101q0 -4 -12 -165.5t-12 -288.5q0 -672 317 -672q67 0 121 28t90.5 73t63 114t41.5 139t24 160.5t11.5 165t2.5 166.5q0 49 -1 134t-1 120q0 22 8 37t18.5 23t29.5 12t32 4.5t35 0.5q18 0 45 -13t27 -34 q0 -55 3 -174t3 -180q0 -113 -5 -204.5t-19.5 -194t-39 -180.5t-67 -153t-100 -123.5t-140.5 -78.5t-186 -31q-140 0 -245.5 70.5t-167 193.5t-91 273.5t-29.5 327.5z" />
<glyph unicode="V" horiz-adv-x="1144" d="M102 1368q0 29 28.5 46.5t74.5 17.5q45 0 64.5 -28t33.5 -89l12 -49q42 -140 142 -518l96 -338q149 473 221 727q38 131 69.5 199.5t71.5 68.5q125 0 125 -105q0 -47 -21.5 -116.5t-57 -165.5t-52.5 -154q-255 -866 -379 -866h-14q-52 0 -65 51q-94 292 -161.5 567.5 t-125.5 466.5v-2q-62 188 -62 287z" />
<glyph unicode="W" horiz-adv-x="2230" d="M102 1323q0 35 23.5 60.5t54.5 25.5q33 0 55 -10.5t35.5 -35t19 -43.5t13.5 -56l117 -385v2q78 -257 102 -340q49 -176 72 -230q2 6 30.5 74t78.5 201t110 309q20 70 46 147t63 172.5t77 156.5t72 61q26 0 63.5 -65.5t83 -186t83 -228t86 -255t67.5 -203.5 q9 -26 18.5 -54.5t15 -45.5t11.5 -35t10 -27t9 -17t9.5 -11t10.5 -3q33 0 82.5 118t102 286.5t107 336.5t111.5 286t101 118q34 0 60 -37.5t26 -79.5q0 -2 -1 -7t-1 -7q0 -41 -43.5 -189.5t-115 -339.5t-152 -373t-164.5 -306.5t-142 -124.5q-34 0 -57 41l-29 49v-2 q-7 7 -18 36q1 7 -69.5 182.5t-165 408t-121.5 300.5q-87 -202 -166 -458q-6 -16 -25 -72t-34.5 -100.5t-40 -108t-48.5 -111t-50.5 -92t-54.5 -68.5t-55 -24q-50 0 -94 90q-57 192 -163.5 520.5t-155.5 493.5q-4 12 -15.5 47.5t-17 54t-13 48.5t-11 55.5t-3.5 50.5z" />
<glyph unicode="X" horiz-adv-x="1243" d="M102 1319q6 113 66 113q26 0 48 -5t40.5 -19.5t29.5 -24.5t26.5 -36t20.5 -35.5t21 -41.5q16 -34 113 -194t141 -224q33 32 127 167.5t177 247t108 111.5q121 0 121 -94v-20q-118 -187 -198 -300t-216 -292q17 -52 64.5 -131t92 -144t80 -138.5t35.5 -123.5 q0 -29 -22.5 -66.5t-54.5 -37.5q-47 0 -88.5 45t-70 105t-75.5 150.5t-92 151.5q-18 -32 -231 -364q-1 -2 -14 -22t-17 -25.5l-16 -22t-19.5 -23t-19.5 -16t-23.5 -13t-24.5 -3.5q-108 0 -108 86q0 30 12 53.5t37 56.5q16 16 63.5 90.5t122 192.5t134.5 203 q-226 350 -292 458t-98 185z" />
<glyph unicode="Y" horiz-adv-x="1017" d="M102 1341q0 5 2.5 10.5t7.5 11t9.5 10.5t12.5 10t13.5 9t14.5 8.5l13 6.5l12 6l8 4q12 6 24 6q41 0 88.5 -76.5t83 -170.5t73.5 -186.5t60 -115.5l8 27q44 143 81.5 245t63 156.5t49.5 85t38.5 37.5t32.5 7q22 0 37.5 -2t36.5 -8t32.5 -23t11.5 -43q0 -10 -2 -21 t-4 -18.5t-6 -20.5t-6 -20q-50 -160 -104 -283t-94 -205t-60 -153q7 -129 16 -256.5t14 -198t5 -106.5q0 -16 -1 -28t-2 -22t-5.5 -17t-6.5 -12t-10.5 -8t-11.5 -5t-15.5 -3.5t-17.5 -2t-22.5 -1t-24.5 -0.5q-3 0 -8.5 -1t-7.5 -1q-48 0 -66 59.5t-18 166.5q0 37 3 115 t3 116q0 149 -29 213v-2q-14 28 -76.5 146.5t-66.5 121.5q-56 94 -122.5 250t-66.5 182z" />
<glyph unicode="Z" horiz-adv-x="1028" d="M102 1360q0 46 59 62t185 16q40 0 150 -2t178 -2q69 0 112 -22t43 -64q0 -21 -12 -48q-91 -259 -245.5 -647.5t-190.5 -484.5q221 6 309 6h98h45.5t34 -2t24.5 -3.5t15.5 -7t10 -9t4.5 -14t2 -18t0.5 -24.5t1.5 -30v-5q0 -59 -88 -59h-594q-56 35 -62 80q-4 20 -4 68 q0 15 25 92q41 116 183 455t200 538q-84 8 -166 8q-60 0 -135.5 -5t-91.5 -5q-55 0 -73 24.5t-18 102.5z" />
<glyph unicode="\" horiz-adv-x="925" d="M104 1296q0 65 52 93h6q16 8 39 8q27 0 52 -15t38 -41l8 -18q23 -47 52 -133.5t44 -120.5q62 -147 188.5 -410.5t178.5 -382.5l6 -10q55 -122 55 -178q0 -38 -26.5 -63t-65.5 -25q-56 0 -106 94l-422 918q-5 13 -37.5 84.5t-47 116.5t-14.5 83z" />
<glyph unicode="_" horiz-adv-x="1261" d="M102 -229q0 23 6 39t23.5 28t42.5 19t70.5 11t99 5.5t135.5 1.5q54 0 239.5 -1t319.5 -1q53 0 87 -26.5t34 -86.5q0 -35 -23.5 -52t-54.5 -17q-143 0 -424.5 -3t-425.5 -3q-26 0 -43 2t-39.5 9.5t-34.5 26t-12 48.5z" />
<glyph unicode="a" horiz-adv-x="1040" d="M102 334q0 204 140 344.5t352 140.5q58 0 98 -4v37q0 34 27 52t69 18q35 0 63 -20.5t28 -45.5v-14q0 -10 2.5 -40.5t9 -120.5t14.5 -202q31 -239 31 -405q0 -74 -109 -74q-70 0 -79 51q-7 -1 -113 -21t-172 -20q-57 0 -106 8.5t-97.5 30.5t-82 57.5t-54.5 93.5t-21 134z M281 336q0 -131 213 -131q10 0 25.5 1t19.5 1h10q113 0 184 31v22q0 88 -28 377q-16 4 -31 4q-38 0 -77 -5t-85.5 -17t-86 -35.5t-73 -55.5t-52.5 -81.5t-19 -110.5z" />
<glyph unicode="b" horiz-adv-x="925" d="M102 895q0 81 1 132t5 95.5t10 68.5t17 41t25.5 22.5t36.5 5.5q25 0 39 -1.5t27 -11.5t18 -24t9.5 -45.5t5.5 -70t1 -103.5q0 -25 -2 -75t-2 -77q0 -15 1.5 -27t4.5 -19.5t6 -13t6.5 -8t6 -4t3.5 -2.5h1q18 -4 75.5 -9.5t106 -11.5t110 -30t104.5 -60.5t73 -107.5 t30 -168q0 -72 -26 -131t-67.5 -96.5t-97 -63t-111.5 -36.5t-113 -11q-51 0 -99 10v-14q0 -31 -2.5 -53t-10.5 -50.5t-28.5 -44.5t-52.5 -16q-42 0 -64 28.5t-22 80.5q0 148 -12.5 447t-12.5 454zM299 567l14 -327q61 -19 125 -19q35 0 69.5 10.5t66.5 32.5t51.5 62t19.5 92 q0 59 -39.5 106t-95 69.5t-113.5 22.5h-55q-22 0 -32.5 -9.5t-10.5 -39.5z" />
<glyph unicode="c" horiz-adv-x="841" d="M102 430q0 99 70 191t174.5 145t206.5 53q42 0 79 -10t67 -39.5t30 -75.5q0 -34 -15 -51.5t-52 -17.5q-19 0 -57.5 13t-59.5 13q-87 0 -168.5 -77t-81.5 -164q0 -50 25 -92t63 -68t84 -44.5t86.5 -26t73.5 -7.5q112 0 112 -49q0 -35 -19.5 -60.5t-50 -39t-60.5 -19.5 t-58 -6h-19q-103 0 -201 51.5t-162.5 144.5t-64.5 201q-2 16 -2 35z" />
<glyph unicode="d" horiz-adv-x="1024" d="M102 373q0 91 31 167.5t81 127.5t114.5 86.5t129.5 51t128 15.5q100 0 145 -18l6 -4q6 80 6 243v54q0 78 20 124t73 46q54 0 70 -29.5t16 -95.5q0 -195 -17 -600t-18 -641q0 -60 -5.5 -94t-23 -50t-35.5 -19t-57 -3q-31 0 -47.5 15t-16.5 58q0 111 9 230 q-77 -25 -172 -25q-63 0 -123 12t-117.5 39.5t-100.5 68t-69.5 103t-26.5 138.5zM283 397q0 -82 59.5 -142t161.5 -60l221 14q8 70 8 391q-68 25 -145 25h-8q-145 0 -221 -67t-76 -161z" />
<glyph unicode="e" horiz-adv-x="962" d="M102 362q0 118 28.5 208t72.5 142.5t105.5 85.5t119.5 44.5t123 11.5q84 0 145 -26t95.5 -72t50.5 -102t16 -124q0 -61 -25.5 -108t-62.5 -73t-87.5 -42t-92 -21t-84.5 -5q-126 0 -211 45v-7q0 -106 80 -193t200 -87q32 0 88.5 17.5t67.5 17.5q47 0 47 -58v-14 q0 -21 -2 -32.5t-12.5 -28t-30.5 -27t-58.5 -20.5t-94.5 -17q-16 -2 -50 -2q-121 0 -220 67t-153.5 178.5t-54.5 241.5zM319 502q0 -12 83 -27.5t128 -15.5q35 0 66 6t57.5 26t26.5 52q0 53 -53 81.5t-113 28.5q-195 0 -195 -151z" />
<glyph unicode="f" horiz-adv-x="964" d="M102 475q0 43 39 77t111 34q5 0 45 -4q0 40 -3 121t-3 126v150q3 71 19 132t48 117.5t88 96t132 55.5q6 2 24 2q46 0 106 -19t107 -55t47 -75q0 -33 -24.5 -64.5t-61.5 -31.5q-9 0 -17 1.5t-16 5.5t-12 6.5t-13 9.5t-13 9l2 -2q-59 29 -99 29q-38 0 -64.5 -29.5 t-40 -80.5t-19 -105t-5.5 -117q0 -184 8 -293h29q24 0 38.5 -0.5t37.5 -3.5t37.5 -10t29.5 -18t22 -29t7 -43q0 -28 -24 -59t-58 -31h-112q6 -92 6 -160q0 -69 -6.5 -115.5t-18.5 -67t-23.5 -27.5t-27.5 -7h-23q-47 0 -74.5 49t-27.5 119v219q-19 0 -56 -2t-55 -2 q-37 0 -61.5 27t-24.5 65z" />
<glyph unicode="g" horiz-adv-x="942" d="M-135 -750q0 84 29 170l30 58q62 115 175.5 199t248.5 126l-2 119q-2 63 -9.5 83t-35.5 20q-79 38 -138 128t-59 181q6 68 21.5 131t46 126.5t72 109.5t105 75t140.5 29q36 0 79 -17.5t59 -17.5q12 0 46 26t76.5 52t73.5 26q27 0 47.5 -34.5t20.5 -61.5 q0 -29 -20.5 -52.5t-55 -47.5t-47.5 -39q74 -108 74 -225q0 -206 -316 -385v-197q232 0 371 -145q141 -150 141 -320q0 -141 -100 -299q-88 -138 -258 -213.5t-334 -75.5q-84 0 -170 37t-155 98.5t-112.5 150.5t-43.5 185zM33 -729q9 -83 28 -119l13 -22q3 -1 6.5 -5.5 t6 -9.5t3.5 -6q125 -133 309 -133q104 0 196.5 36t152.5 91.5t94.5 119.5t34.5 122q0 124 -109 213.5t-260 89.5q-126 0 -247.5 -76t-211.5 -234q-16 -27 -16 -67zM291 324q0 -59 42 -98.5t101 -39.5q60 0 139.5 88.5t79.5 149.5q0 67 -41.5 134.5t-101.5 70.5 q-72 0 -123.5 -49.5t-73.5 -116.5t-22 -139z" />
<glyph unicode="h" horiz-adv-x="952" d="M104 1341v60q0 31 3 55t11.5 48.5t26.5 38t45 13.5q25 0 43.5 -10.5t27.5 -21.5t24 -35l8 -16v-25q0 -28 4 -82v-18q0 -94 7 -303t8 -361q58 64 109.5 94.5t117.5 30.5q104 0 191.5 -82t98.5 -188v-27l2 2q5 0 5 -49q0 -19 -1 -79.5t-1 -94.5q0 -142 16 -166 q-13 -56 -39.5 -79t-71.5 -23q-33 0 -54.5 18t-32.5 54t-15 77t-4 98q0 39 2 118.5t2 113.5q0 49 -25 80.5t-51 31.5q-108 0 -166.5 -80.5t-58.5 -226.5v-102q0 -209 -88 -209q-38 0 -74 26.5t-37 67.5q-1 36 -8.5 224t-10 265t-7 230t-6 279t-1.5 253z" />
<glyph unicode="i" horiz-adv-x="444" d="M102 1165q0 80 111 80q45 -5 72.5 -40t27.5 -62q0 -26 -14 -44t-35 -26t-36 -11t-25 -3q-42 0 -71.5 32t-29.5 74zM143 125v12q0 2 1 7t1 8v487q0 31 1 50.5t7 47t16.5 43t31.5 27.5t51 12q43 0 66.5 -36.5t23.5 -80.5v-16q0 -12 -1 -57t-1 -92v-390q0 -113 -64 -141 q-3 0 -15 -7t-21 -7q-57 0 -77 35.5t-20 97.5z" />
<glyph unicode="j" horiz-adv-x="411" d="M-49 -881q0 25 14 47q86 140 118 366t32 531q0 109 -4.5 318.5t-4.5 298.5v27q0 50 26 80t63 30q39 0 70.5 -44t31.5 -128v-24q0 -102 6 -389t6 -457q0 -117 -12.5 -205t-38.5 -209q-18 -72 -52.5 -144.5t-80 -125t-86.5 -52.5q-30 0 -59 23t-29 57zM61 1153 q0 27 31.5 60.5t89.5 33.5q36 0 65 -44t29 -75q0 -102 -114 -102q-52 0 -76.5 35.5t-24.5 91.5z" />
<glyph unicode="k" horiz-adv-x="1036" d="M104 1124v13q0 33 1 55t3.5 55t9.5 54.5t18 42.5t29 31.5t42 10.5q36 0 60 -29.5t24 -64.5q0 -48 -4 -158.5t-4 -175.5q0 -78 15 -216.5t17 -176.5l99 90h-2l290 279q22 20 58 20q38 0 58 -25.5t20 -64.5q0 -27 -42 -77.5t-86.5 -92t-121.5 -108.5q84 -114 102 -129 l41 -47q201 -231 203 -287q0 -43 -26 -64.5t-70 -21.5q-22 0 -42 8.5t-39 28.5t-33 38.5t-37 50.5q-6 9 -9 13q-84 98 -132 159.5t-64 85.5t-29 38q-3 -3 -24.5 -19.5t-51 -40t-49.5 -41.5q0 -24 2 -67t2 -64v-18q0 -5 1 -19t1 -22v-39q0 -60 -15 -84t-71 -45 q-42 0 -66 29.5t-26 66.5q-5 202 -28.5 531.5t-23.5 496.5z" />
<glyph unicode="l" horiz-adv-x="438" d="M102 1307q0 41 29 69.5t68 28.5q26 0 45.5 -11t31 -32.5t18.5 -45.5t10 -58t4 -61t2 -63t3 -57l23 -940q0 -69 -22.5 -103t-82.5 -34q-86 0 -86 215v12q-5 119 -8 391t-12 420q-2 28 -12.5 122t-10.5 147z" />
<glyph unicode="m" horiz-adv-x="1466" d="M102 924q0 26 27 54t61 28q29 0 53 -28t37.5 -70.5t20.5 -76t10 -61.5l19 -182q24 48 46 83t54 73.5t71 59.5t83 21q58 0 104 -36t71.5 -92t39 -111.5t16.5 -106.5v2q0 11 14.5 66t30.5 88q41 86 88 122t137 36q68 0 120 -38t81 -93.5t47.5 -128.5t24.5 -131t6 -113v-23 q0 -43 -1 -64t-6.5 -53t-16 -47t-32 -27t-53.5 -12q-75 0 -75 156q0 9 1 26t1 25v31q0 201 -92 301q-2 0 -5.5 1t-5.5 1q-16 0 -32 -14t-31 -41t-27.5 -56t-25.5 -68t-22.5 -68.5t-20 -66t-15.5 -52.5l-8 -27q-3 -8 -10.5 -34.5t-11 -36.5t-11.5 -32t-14 -31.5t-16.5 -24.5 t-21 -21t-25 -11.5t-31.5 -5.5q-109 0 -109 269v16q0 37 -0.5 63.5t-3 67.5t-8 69.5t-14 57t-23 43t-33.5 14.5h-4q-6 2 -18 2q-25 0 -45.5 -21t-35 -62.5t-25.5 -82.5t-20 -104.5t-13.5 -103.5t-10.5 -103.5t-8 -81.5q-21 -35 -46.5 -48t-64.5 -13q-11 0 -20.5 4.5t-17 14 t-13 20t-9.5 27t-7 29t-5 33t-3.5 32.5t-3 33t-2.5 30l-5 47q-50 471 -65 529q-21 86 -21 129z" />
<glyph unicode="n" horiz-adv-x="935" d="M102 850q1 46 29.5 70t67.5 24t67.5 -22.5t28.5 -59.5v-4q4 -32 4 -51q0 -10 -1 -31t-1 -31q0 -31 6 -61q20 36 31 52t33.5 37t55 31.5t79.5 14.5h24q158 -10 222 -107q53 -81 70 -279q2 -30 16 -302q-5 -100 -105 -100q-39 0 -57 44q-18 43 -19 106l1 30q0 54 -2 116 q-2 77 -8 142.5t-38.5 109.5t-91.5 44q-1 0 -4.5 -1t-5.5 -1q-5 0 -14 1t-13 1q-41 0 -71 -16t-47 -40.5t-26.5 -63.5t-12.5 -74.5t-3 -84.5q0 -20 1 -58.5t1 -56.5q0 -54 -3.5 -90t-14.5 -70.5t-35 -51.5t-61 -17q-32 0 -59 19.5t-27 60.5v10q2 25 2 109q0 192 -19 651z " />
<glyph unicode="o" horiz-adv-x="1007" d="M98 385q0 191 130.5 314.5t334.5 123.5q76 0 141.5 -38t107.5 -98t65.5 -132t23.5 -143q0 -67 -40 -142.5t-101 -136t-139 -100t-150 -39.5q-69 0 -130.5 30.5t-129.5 96.5q-113 98 -113 264zM276 391q0 -101 56 -152t137 -51q99 0 175.5 65.5t76.5 172.5 q0 84 -54.5 158.5t-117.5 74.5q-108 0 -190.5 -80.5t-82.5 -187.5z" />
<glyph unicode="p" horiz-adv-x="1042" d="M102 49q0 54 7.5 167.5t7.5 162.5l8 147v62q0 3 -1 10t-1 10v82q0 29 1 45t7 39t17.5 35t33.5 21.5t54 9.5q29 0 47.5 -37t25.5 -86l2 2q133 94 250 94q87 0 193.5 -76t152.5 -162v3q33 -56 33 -150q0 -60 -29 -170q-23 -53 -47.5 -88.5t-54.5 -60.5t-76 -40.5t-98 -25 t-135 -18.5q-85 3 -164 41l-53 24q0 -5 -1 -15.5t-1 -15.5q0 -22 3.5 -83.5t4.5 -200.5v-8q0 -28 -1 -46t-6.5 -43.5t-16 -40.5t-30.5 -26.5t-49 -11.5q-20 0 -48 20t-32 39v182q0 18 -2 98t-2 111zM301 383q0 -80 62 -134t186 -54q98 0 151.5 66t53.5 169q0 25 -1 39t-9 38 t-23.5 40t-46.5 35t-76 34h2q-40 5 -49 5q-109 0 -179.5 -73t-70.5 -165z" />
<glyph unicode="q" horiz-adv-x="980" d="M102 379q0 107 45 203t132.5 158.5t197.5 62.5q118 0 160 -47q4 92 96 92q37 0 59 -22t27 -54q0 -6 -1 -17t-1 -16q1 -14 31.5 -499.5t30.5 -733.5q0 -92 -99 -92q-30 0 -55 17.5t-25 50.5q-4 82 -11 179t-11 181.5t-4 196.5v16l-10 -6h2l-31 -16q-66 -35 -143 -35 q-159 0 -274.5 109.5t-115.5 271.5zM285 371q0 -123 153 -193v-2q0 -2 6 -2q9 0 15 2q17 -10 39 -10q44 0 77 24.5t50 63.5t24.5 78.5t7.5 79.5q0 97 -44.5 161t-131.5 64q-53 0 -100.5 -49.5t-71.5 -110t-24 -106.5z" />
<glyph unicode="r" horiz-adv-x="825" d="M102 893q0 43 29 66.5t72 23.5h16q23 0 39.5 -8.5t25 -20.5t13 -33.5t5.5 -39t1 -45.5v-68l29 18q9 2 54 14t80 17.5t71 5.5q31 0 51.5 -1.5t48.5 -8.5t45 -19.5t29 -37t12 -58.5q0 -36 -35 -52.5t-76 -16.5q-1 0 -23 3t-40 3q-53 0 -107.5 -14.5t-96.5 -48t-42 -78.5 q0 -53 9.5 -156.5t9.5 -155.5q0 -28 -0.5 -42t-2.5 -37.5t-6.5 -35.5t-13.5 -27.5t-22.5 -23t-33.5 -13t-46 -5.5h-39q-39 33 -39 82q0 45 2 59v-2q4 40 4 66q0 71 -9.5 204t-9.5 209q0 25 1.5 88t1.5 101q0 13 -3 43v-2q-4 36 -4 47z" />
<glyph unicode="s" horiz-adv-x="788" d="M102 664q0 59 49.5 120.5t118.5 99.5t125 38q31 0 61.5 -7t59.5 -22.5t46.5 -45t17.5 -69.5q0 -44 -14 -59.5t-48 -18.5l-61 13l-43 24q-28 4 -39 4q-35 0 -55.5 -17t-20.5 -44l1 -4q1 -4 1 -8q23 -13 66 -32t77 -36t73.5 -42.5t73.5 -65t58 -91.5v2q37 -63 37 -159 q0 -122 -71.5 -184t-190.5 -62q-40 0 -78 8t-60.5 17t-60.5 26l-35 12q-75 0 -75 109v10q12 47 33 67.5t55 20.5q21 0 97 -40t120 -40q29 0 51.5 20t22.5 54q0 50 -44 98.5t-94 61.5l-30 8q-32 13 -43 17.5t-41.5 18.5t-44 24.5t-36 30t-32.5 38.5t-18.5 46.5t-8.5 58.5z " />
<glyph unicode="t" horiz-adv-x="915" d="M102 969q17 58 56 76t98 18h104q0 25 1 75t1 56v76q0 24 6 49t25.5 47.5t48.5 22.5q8 0 31 -8t48 -27.5t26 -42.5l4 -242h108q32 0 56 -4t48 -14.5t37 -34t13 -58.5q0 -31 -20.5 -53.5t-51.5 -30.5h-43q-26 0 -73 2.5t-68 2.5h-6v-273q0 -273 8 -502q0 -47 -24 -74.5 t-68 -27.5q-43 0 -70.5 24t-27.5 66q-9 339 -9 598v94q0 63 -8 90q-11 0 -42 -4t-52 -4q-36 0 -59 3t-46 13t-35 31.5t-16 55.5z" />
<glyph unicode="u" horiz-adv-x="913" d="M102 418q0 177 45 346q7 25 41.5 40t65.5 15q22 0 51 -27t29 -47l-21 -153q-24 -88 -24 -193q0 -75 16 -133l23 -73v2q18 -43 49 -43q48 0 104.5 61t79.5 121v-2q45 164 45 317q0 37 -4 103q10 24 40.5 35.5t62.5 11.5q90 0 90 -152v-49q0 -60 -7.5 -177t-7.5 -175 q0 -34 15.5 -113t15.5 -125q0 -37 -35 -53t-82 -16q-25 0 -42.5 16.5t-20.5 36.5l-6 20q-25 87 -25 88l-16 -14q-39 -32 -65 -48.5t-71 -31t-98 -14.5q-67 0 -118.5 39t-75.5 94l-35 113q-15 50 -19 180z" />
<glyph unicode="v" horiz-adv-x="937" d="M94 707q0 81 103 81q42 0 113 -125.5t173 -353.5q4 11 33.5 79.5t38.5 100.5l10 35l18.5 55.5t18.5 51.5t21 51.5t21.5 43.5t25 40t26 28t30.5 21t34 6q32 0 50.5 -35t18.5 -73q-5 -8 -22 -56l-14 -41q-26 -91 -60 -186.5t-77 -197.5t-88.5 -167t-82.5 -65 q-40 0 -63 32.5t-109 200.5l-161 316l-39 80q-19 40 -19 78z" />
<glyph unicode="w" horiz-adv-x="1355" d="M102 725q0 37 22.5 60.5t57.5 23.5q21 0 39 -11.5t28.5 -23.5t23.5 -40.5t18 -41.5t16 -47q14 -54 28 -101.5t20.5 -66t22.5 -59t17 -43.5l35 129q38 171 75.5 247t104.5 76q35 0 97 -125.5t119 -274.5t63 -159q25 61 51 129.5t58 156.5t49 132q8 47 37 86t81 39 q36 0 60 -22t28 -64q-55 -161 -106 -283q-69 -280 -156 -399q-18 -51 -96 -51q-17 0 -37 17.5t-42.5 52t-43.5 71.5t-47 90.5t-44 93t-43.5 95.5t-37.5 82q-14 -42 -36 -121.5t-37.5 -128.5t-48 -114t-75.5 -116q-12 -6 -22 -6q-28 0 -55.5 38.5t-53 110t-46 142.5t-48 168 t-47.5 156z" />
<glyph unicode="x" horiz-adv-x="999" d="M102 745q0 66 74 66q145 -51 279 -254q1 -1 10.5 -14t15.5 -19l8 -10q24 28 65 85.5t48 66.5q14 15 36 49.5t39 61t45 48t58 21.5q41 0 69 -33.5t28 -73.5q0 -16 -8 -32t-21 -34t-17 -26l-43 -57q-17 -22 -51.5 -62.5t-60.5 -75t-43 -69.5v-2l2 2l8 -14v4l186 -203v2 l15 -16h-2q55 -55 55 -105q0 -32 -30.5 -55.5t-65.5 -30.5q-23 5 -43.5 16t-39 29t-31 33t-32 40t-28.5 36l-82 86q-5 4 -18 13t-19 15q-50 -84 -98.5 -143t-112.5 -96q-44 0 -75.5 33.5t-31.5 78.5q3 34 19 70.5t48 77t52 62.5t58 63q-7 7 -29 26.5t-31 32.5l-16 23 q-63 59 -126 145t-63 139z" />
<glyph unicode="y" horiz-adv-x="946" d="M102 668q0 34 28 61t63 27q34 0 61 -24t42.5 -56.5t42.5 -77.5t56 -74l76 -123q34 -57 61 -88q18 54 19 58q0 6 0.5 10t2 8.5t5.5 15.5t9.5 26t14.5 44t20.5 66.5t28.5 97t36 131.5q7 16 38.5 31.5t53.5 15.5q35 0 59.5 -37.5t24.5 -74.5q-42 -175 -148.5 -497.5 t-150.5 -506.5q-10 -31 -21 -77.5t-18.5 -76t-21 -59.5t-35.5 -44.5t-54 -14.5q-38 0 -62 21.5t-32 55.5q3 46 16 103q35 149 97 362l6 25q22 73 35 106q-29 58 -92.5 141t-118.5 148t-98.5 142t-43.5 135z" />
<glyph unicode="z" horiz-adv-x="860" d="M102 721q0 52 29 75t100 29h15q259 0 420 -10q13 -9 20 -27.5t7.5 -30t0.5 -34.5q-17 -69 -58.5 -145t-83.5 -133.5t-90 -133t-73 -139.5q30 0 92 2t94 2h66q46 0 80.5 -20.5t34.5 -61.5v-20q0 -32 -22.5 -56t-53.5 -24q-2 0 -6 1t-6 1l-19 2q-98 8 -164 8 q-146 0 -264 -16q-40 0 -74 15.5t-34 47.5q0 12 6 27q40 84 112.5 184.5t142 199t107.5 185.5q-88 10 -157 10q-57 0 -86 -4q-76 3 -101 15q-34 16 -35 51z" />
<glyph unicode="&#xa1;" horiz-adv-x="425" d="M102 496q0 583 101 583q46 0 70 -23.5t26 -47.5v-66q0 -36 -6 -112.5t-6 -118.5q0 -78 3 -246t3 -258l6 -70q4 -46 4 -67q0 -30 -32.5 -51t-63.5 -21q-101 0 -101 172q0 12 -2 126t-2 200zM129 1325q0 30 23.5 50t50.5 26t55 6q32 -5 46.5 -31.5t14.5 -58.5 q0 -30 -38.5 -54t-59.5 -24q-38 0 -65 27t-27 59z" />
<glyph unicode="&#xa3;" horiz-adv-x="1118" d="M102 502q0 22 6 38t19.5 26t25.5 16t34 9t35 3.5t38 1.5h14q4 0 10 -1t9 -1q6 0 12 2q0 10 -2 14q0 3 -12 182.5t-12 258.5q0 170 94 278.5t245 108.5q38 0 93 -19.5t101 -57t46 -79.5q0 -43 -13.5 -60.5t-41.5 -17.5q-38 0 -105 43h2l-14 8q-7 3 -18 9t-17.5 9t-15 6 t-14.5 3q-47 0 -81 -27.5t-50.5 -73t-23.5 -89.5t-7 -91q0 -273 24 -401h82q35 0 60.5 -4t51.5 -14.5t40 -34t14 -58.5q0 -73 -90 -73q-21 0 -64.5 3t-66.5 3h-16q0 -39 -8 -113t-9 -112l31 8q46 5 179 33t214 28q115 0 115 -90q0 -36 -11 -50.5t-36 -16.5q-44 -7 -316 -60 q-23 -5 -71 -16t-78 -17.5t-72 -12t-78 -5.5q-65 0 -65 160q0 43 8 135t8 123q-13 0 -49.5 -2t-65.5 -2q-39 0 -63.5 25.5t-24.5 64.5z" />
<glyph unicode="&#xa5;" horiz-adv-x="1011" d="M104 1266q0 41 30.5 75.5t72.5 34.5q73 0 106 -121v2q86 -204 199 -366q35 81 106.5 242.5t106.5 242.5q25 37 76 37q39 0 73.5 -24.5t34.5 -55.5q0 -57 -53.5 -171.5t-114.5 -230t-71 -157.5h84q135 0 135 -86q0 -70 -113 -90h23q66 0 85 -19t19 -79q0 -15 -2.5 -26 t-8.5 -19t-13 -13.5t-20.5 -9.5t-25.5 -6.5t-34 -4t-40 -2.5t-48.5 -3t-55.5 -4q0 -56 8.5 -169t8.5 -177q0 -28 -23.5 -45.5t-46.5 -22t-45 -4.5q-84 0 -84 153q0 227 -6 256h-176q-60 0 -92.5 18.5t-32.5 72.5q0 66 121 81q-56 3 -74 20t-18 62q0 41 30 64t57 27.5t85 8.5 q7 1 10 1q-152 190 -268 481q-5 10 -5 27z" />
<glyph unicode="&#xaa;" horiz-adv-x="747" d="M102 1004q0 132 90 222.5t228 90.5q10 0 25.5 -1t19.5 -1v6q0 28 20.5 43.5t53.5 15.5q29 0 50 -17t21 -38v-10q0 -17 2 -33q0 -9 9 -92.5t16.5 -182.5t7.5 -163q0 -62 -82 -62q-16 0 -24.5 1t-19.5 8.5t-17 21.5l-29 -6q-93 -19 -135 -19q-47 0 -86 10t-74.5 32.5 t-55.5 67t-20 106.5zM244 1006q0 -66 114 -66h33q57 0 98 14v4q0 70 -20 220q-27 0 -54.5 -4t-59 -16t-55.5 -30.5t-40 -50t-16 -71.5z" />
<glyph unicode="&#xab;" horiz-adv-x="1204" d="M102 586q0 15 18 37t60 57t77 62t103 77l205 154q13 8 37 8q32 0 63 -25.5t31 -48.5q0 -16 -8 -35q-50 -48 -137 -112t-149 -110.5t-72 -65.5q6 -11 65.5 -56t127.5 -94.5t124.5 -102.5t57.5 -79q-4 -12 -17 -25t-30.5 -25.5t-22.5 -17.5q-2 -2 -8 -2q0 3 -42 26t-108 61 t-136 84.5t-136.5 107t-100.5 117.5q-2 2 -2 8zM502 582q0 30 62 86t194 155l205 154q13 8 36 8q33 0 64 -25.5t31 -48.5q0 -13 -9 -34q-50 -47 -137 -112t-149 -111.5t-72 -65.5q6 -11 65.5 -56t127.5 -94.5t124.5 -102.5t57.5 -79q-4 -12 -17 -25t-30.5 -25.5t-22.5 -17.5 q-2 -2 -8 -2q0 5 -130.5 86.5t-261 176.5t-130.5 133z" />
<glyph unicode="&#xad;" horiz-adv-x="1048" d="M102 397q0 68 50 82t244 17q121 2 198 4q168 4 256 4q42 0 69 -27.5t27 -89.5q0 -37 -19 -55.5t-42 -18.5q-115 0 -340 -3t-340 -3q-21 0 -34.5 2t-31.5 9.5t-27.5 27.5t-9.5 51z" />
<glyph unicode="&#xba;" horiz-adv-x="798" d="M102 1061q0 140 96 231.5t246 91.5q75 0 134.5 -48t88.5 -116.5t29 -140.5q0 -105 -89 -201t-197 -96q-142 0 -226 82q-82 76 -82 197zM258 1065q0 -62 35 -94.5t84 -32.5q64 0 113 41.5t49 110.5q0 52 -34 100.5t-71 48.5q-70 0 -123 -52.5t-53 -121.5z" />
<glyph unicode="&#xbb;" horiz-adv-x="1204" d="M102 256q1 26 57.5 79t124.5 102.5t127.5 94.5t65.5 56q-10 19 -72 65.5t-149 111.5t-137 112q-8 19 -8 34q0 23 31 48.5t63 25.5q24 0 37 -8l204 -154q119 -90 187.5 -154t68.5 -87q0 -38 -130.5 -133t-261 -176.5t-130.5 -86.5q-6 0 -8 2q-5 5 -22.5 17.5t-30.5 25.5 t-17 25zM500 252q2 33 91 108t183 143.5t100 80.5q-10 19 -72 65.5t-149 110.5t-137 112q-8 19 -8 35q0 23 31 48.5t63 25.5q24 0 37 -8l205 -154q68 -50 103 -77t77 -62t60 -57t18 -37q0 -6 -2 -8q-34 -57 -100 -117.5t-136.5 -107t-136 -84.5t-107.5 -61t-42 -26 q-7 0 -9 2q-5 5 -22 17.5t-30 25.5t-17 25z" />
<glyph unicode="&#xbf;" horiz-adv-x="1150" d="M102 350q0 122 113 238v-2l191 143l40 43q13 57 13 162q0 2 -2.5 19t-5 40.5t-2.5 40.5q0 33 29.5 53.5t58.5 20.5q26 0 44.5 -9t27.5 -21.5t14.5 -32.5t6.5 -34.5t1 -35.5v-37q0 -12 1 -39t1 -41q0 -57 -10 -96v-10q-14 -108 -168 -193h2q-74 -52 -105 -78 q-76 -76 -76 -174q0 -44 41.5 -76.5t90.5 -46.5t92 -14q124 0 241.5 84t135.5 207q4 12 6.5 34.5t5.5 39t10.5 33.5t27 26.5t50.5 9.5q48 -37 60 -65t12 -70q0 -23 -17 -80l-6 -22v2q-21 -89 -76.5 -160t-131 -115.5t-163 -68t-178.5 -23.5q-157 0 -266 95.5t-109 252.5z M436 1303q0 39 28.5 57t63.5 18q38 0 62 -27.5t24 -66.5t-27 -57.5t-61 -18.5q-90 0 -90 95z" />
<glyph unicode="&#xc0;" d="M104 106q0 26 21 91l6 18q2 6 23.5 69t26.5 78.5t25.5 77.5t29 89t28 88.5t31 100t29 99.5t31 111t29.5 111t30 120q4 14 11.5 51t13 61.5t18 57.5t26.5 53.5t37 35t51 14.5q86 0 158 -296q3 -11 4 -16l25 -98q29 -131 87 -373t85 -362l14 -64q22 -96 31 -172 q-7 -40 -30.5 -61t-55.5 -21q-51 0 -92 47l-4 21q-11 43 -11 74l-6 28q-6 27 -16.5 86.5t-17.5 98t-11 38.5q-24 7 -69 7q-41 0 -135.5 -5t-127.5 -6h-18q-13 0 -21 -4l-8 -8l-10 -39q-4 -14 -12 -59t-17 -80.5t-23.5 -75t-38 -62t-54.5 -22.5q-93 0 -93 98zM297 1794v6 q3 34 39 58t78 24q61 0 149.5 -43.5t152.5 -99.5t64 -90v-19q-11 -72 -84 -76h-6q-14 0 -30.5 4.5t-29.5 10t-38 16.5t-43 19q-48 20 -98.5 46t-102 68t-51.5 76zM408 535q210 0 270 14q-4 12 -4 22q-19 89 -61.5 262t-53.5 220l-8 -29q-20 -106 -74.5 -272.5t-68.5 -216.5z " />
<glyph unicode="&#xc1;" d="M104 106q0 26 21 91l6 18q2 6 23.5 69t26.5 78.5t25.5 77.5t29 89t28 88.5t31 100t29 99.5t31 111t29.5 111t30 120q4 14 11.5 51t13 61.5t18 57.5t26.5 53.5t37 35t51 14.5q86 0 158 -296q3 -11 4 -16l25 -98q29 -131 87 -373t85 -362l14 -64q22 -96 31 -172 q-7 -40 -30.5 -61t-55.5 -21q-51 0 -92 47l-4 21q-11 34 -11 74l-6 28q-6 27 -16.5 86.5t-17.5 98t-11 38.5q-24 7 -69 7q-41 0 -135.5 -5t-127.5 -6h-18q-13 0 -21 -4l-8 -8l-10 -39q-4 -14 -12 -59t-17 -80.5t-23.5 -75t-38 -62t-54.5 -22.5q-93 0 -93 98zM297 1649 q0 34 64 90t153 99.5t150 43.5q41 0 77 -24t39 -58v-6q0 -34 -51.5 -76t-102 -68t-98.5 -46q-18 -8 -43 -19t-38 -16.5t-29.5 -10t-30.5 -4.5h-6q-33 2 -55 21t-25 59q-4 4 -4 15zM408 535q210 0 270 14q-4 12 -4 22q-19 89 -61.5 262t-53.5 220l-8 -29 q-20 -106 -74.5 -272.5t-68.5 -216.5z" />
<glyph unicode="&#xc2;" d="M104 106q0 26 21 91l6 18q2 6 23.5 69t26.5 78.5t25.5 77.5t29 89t28 88.5t31 100t29 99.5t31 111t29.5 111t30 120q4 14 11.5 51t13 61.5t18 57.5t26.5 53.5t37 35t51 14.5q86 0 158 -296q3 -11 4 -16l25 -98q29 -131 87 -373t85 -362l14 -64q22 -96 31 -172 q-7 -40 -30.5 -61t-55.5 -21q-51 0 -92 47l-4 21q-11 43 -11 74l-6 28q-6 27 -16.5 86.5t-17.5 98t-11 38.5q-24 7 -69 7q-41 0 -135.5 -5t-127.5 -6h-18q-13 0 -21 -4l-8 -8l-10 -39q-4 -14 -12 -59t-17 -80.5t-23.5 -75t-38 -62t-54.5 -22.5q-93 0 -93 98zM229 1569v10 q3 60 85.5 166.5t134.5 155.5q33 31 45.5 38t44.5 7q28 0 104.5 -79.5t139.5 -160.5t63 -90q-5 -94 -90 -94q-24 0 -44 7.5t-31 15.5t-28 24l-118 131q-16 -10 -43.5 -43t-52.5 -64t-61.5 -56.5t-72.5 -25.5q-76 0 -76 58zM408 535q210 0 270 14q-4 12 -4 22 q-19 89 -61.5 262t-53.5 220l-8 -29q-20 -106 -74.5 -272.5t-68.5 -216.5z" />
<glyph unicode="&#xc3;" d="M104 106q0 26 21 91l6 18q2 6 23.5 69t26.5 78.5t25.5 77.5t29 89t28 88.5t31 100t29 99.5t31 111t29.5 111t30 120q4 14 11.5 51t13 61.5t18 57.5t26.5 53.5t37 35t51 14.5q86 0 158 -296q3 -11 4 -16l25 -98q29 -131 87 -373t85 -362l14 -64q22 -96 31 -172 q-7 -40 -30.5 -61t-55.5 -21q-51 0 -92 47l-4 21q-11 37 -11 57l-6 45q-5 33 -15.5 88t-19.5 95t-10 40q-24 7 -69 7q-41 0 -135.5 -5t-127.5 -6h-18q-13 0 -21 -4l-8 -8l-10 -39q-4 -14 -12 -59t-17 -80.5t-23.5 -75t-38 -62t-54.5 -22.5q-93 0 -93 98zM225 1683v39 q14 63 75 95t132 32h6q60 -2 95.5 -21.5t46.5 -46.5t16 -54t15 -45.5t32 -18.5h10q4 2 4 12q0 11 -11 50.5t-11 60.5q0 31 21.5 51.5t72.5 20.5q54 0 82.5 -38t28.5 -94q0 -80 -49 -146.5t-127 -66.5q-50 0 -87.5 12.5t-59 30t-36 44.5t-19.5 48.5t-9 49.5q-21 0 -28 -12 t-7 -37q0 -8 1 -30t1 -34q0 -28 -16 -41.5t-54 -13.5q-63 0 -94 50t-31 103zM408 535q210 0 270 14q-4 12 -4 22q-19 89 -61.5 262t-53.5 220l-8 -29q-20 -106 -74.5 -272.5t-68.5 -216.5z" />
<glyph unicode="&#xc4;" d="M104 106q0 26 21 91l6 18q2 6 23.5 69t26.5 78.5t25.5 77.5t29 89t28 88.5t31 100t29 99.5t31 111t29.5 111t30 120q4 14 11.5 51t13 61.5t18 57.5t26.5 53.5t37 35t51 14.5q86 0 158 -296q3 -11 4 -16l25 -98q29 -131 87 -373t85 -362l14 -64q22 -96 31 -172 q-7 -40 -30.5 -61t-55.5 -21q-51 0 -92 47l-4 21q-11 43 -11 74l-6 28q-6 27 -16.5 86.5t-17.5 98t-11 38.5q-24 7 -69 7q-41 0 -135.5 -5t-127.5 -6h-18q-13 0 -21 -4l-8 -8l-10 -39q-4 -14 -12 -59t-17 -80.5t-23.5 -75t-38 -62t-54.5 -22.5q-93 0 -93 98zM276 1696 q0 27 31.5 60.5t89.5 33.5q36 0 65.5 -44t29.5 -75q0 -102 -115 -102q-52 0 -76.5 35.5t-24.5 91.5zM408 535q210 0 270 14q-4 12 -4 22q-19 89 -61.5 262t-53.5 220l-8 -29q-20 -106 -74.5 -272.5t-68.5 -216.5zM571 1704q0 32 31.5 68t65.5 36q69 0 101 -24t32 -105 q0 -39 -27 -74.5t-65 -35.5q-54 0 -96 42t-42 93z" />
<glyph unicode="&#xc5;" d="M104 106q0 26 21 91l6 18q2 6 23.5 69t26.5 78.5t25.5 77.5t29 89t28 88.5t31 100t29 99.5t31 111t29.5 111t30 120q4 14 11.5 51t13 61.5t18 57.5t26.5 53.5t37 35t51 14.5q86 0 158 -296q3 -11 4 -16l25 -98q29 -131 87 -373t85 -362l14 -64q22 -96 31 -172 q-7 -40 -30.5 -61t-55.5 -21q-51 0 -92 47l-4 21q-11 43 -11 74l-6 28q-6 27 -16.5 86.5t-17.5 98t-11 38.5q-24 7 -69 7q-41 0 -135.5 -5t-127.5 -6h-18q-13 0 -21 -4l-8 -8l-10 -39q-4 -14 -12 -59t-17 -80.5t-23.5 -75t-38 -62t-54.5 -22.5q-93 0 -93 98zM340 1671 q0 74 62 127t137 53q16 0 33 -1.5t50.5 -11t58 -26.5t43.5 -52t19 -83v-16q0 -103 -47.5 -151t-150.5 -48q-79 0 -142 65t-63 144zM408 535q210 0 270 14q-4 12 -4 22q-19 89 -61.5 262t-53.5 220l-8 -29q-20 -106 -74.5 -272.5t-68.5 -216.5zM508 1663q0 -16 7.5 -28.5 t19.5 -12.5q40 0 40 37q0 11 -16 24t-29 13q-11 0 -16.5 -11t-5.5 -22z" />
<glyph unicode="&#xc6;" horiz-adv-x="1390" d="M102 106q0 26 21 91l6 18q2 6 23.5 69t26.5 78.5t25.5 77.5t29 89t28 88.5t31 100t29 99.5t31 111t29.5 111t30 120q4 14 11.5 51t13 61.5t18 57.5t26.5 53.5t37 35t51 14.5q87 0 267 -12.5t270 -12.5q31 0 52 -2.5t45 -10.5t36 -26t12 -47q0 -55 -25 -74.5t-83 -19.5 q-27 0 -147.5 9t-215.5 9q-53 0 -82 -2q26 -89 50.5 -188t59.5 -255.5t58 -252.5q247 14 277 14q48 0 74.5 -3.5t39.5 -15t16 -23.5t3 -38v-20q0 -19 -8 -32t-27 -21.5t-39.5 -13t-56.5 -6.5t-66.5 -3t-81.5 -2.5t-90 -3.5q0 -15 3 -29.5t9 -33t9 -29.5l14 -64q2 -14 10 -47 q46 10 113 10h61q38 0 63 -2t50 -8t37 -19t12 -34t-3 -37.5t-7 -27t-13 -19t-14.5 -13t-18 -8t-18 -4.5t-20 -2.5t-18.5 -1.5q-110 -14 -181 -14q-101 0 -159 32.5t-62 110.5q-2 35 -11.5 89t-19.5 94t-14 40q-35 9 -139 9q-193 0 -232 -17l-8 -8l-10 -39q-4 -14 -12 -59 t-17 -80.5t-23.5 -75t-38 -62t-54.5 -22.5q-93 0 -93 98zM406 535q210 0 270 14q-4 12 -4 22q-19 89 -61.5 262t-53.5 220l-8 -29q-20 -106 -74.5 -272.5t-68.5 -216.5z" />
<glyph unicode="&#xc7;" horiz-adv-x="1163" d="M102 561q0 111 18 216.5t64.5 215.5t116.5 197.5t182.5 155.5t255.5 96q46 8 70 8q113 0 113 -117q0 -33 -24 -51t-56 -18q-109 0 -200.5 -38.5t-154.5 -104t-107 -153.5t-64.5 -186t-20.5 -202q0 -199 108 -297.5t310 -98.5q43 0 137.5 16.5t142.5 16.5q37 0 52.5 -18.5 t15.5 -55.5q0 -27 -13 -49.5t-42.5 -42.5t-87 -31.5t-138.5 -11.5q-69 0 -104 2q0 -23 3 -79.5t3 -92.5q5 -2 14 -7q36 -18 54.5 -27.5t48 -29t47.5 -36.5t37.5 -43.5t31.5 -56.5l-2 2q21 -41 21 -103q0 -109 -63 -166t-160 -57q-35 0 -71.5 6.5t-74 20.5t-61 43t-23.5 67 v14q31 80 86 80q29 0 77 -29.5t77 -29.5q14 0 27 10.5t14 30.5q-6 40 -35 69t-65 47.5t-71 38.5t-59 53.5t-24 80.5v12q-2 10 -2 45q0 123 4 154q-104 20 -183.5 71.5t-128 124.5t-72.5 158t-24 180z" />
<glyph unicode="&#xc8;" horiz-adv-x="1093" d="M102 1335q0 49 19.5 74t79.5 25q103 0 314 -9.5t314 -9.5q31 0 52.5 -2.5t45 -10.5t36 -26.5t12.5 -46.5q0 -55 -25.5 -74.5t-83.5 -19.5q-26 0 -146 9t-216 9q-103 0 -199 -8l-6 -8v-438q0 -30 14 -40.5t41 -10.5q68 0 234.5 9t208.5 9q48 0 74.5 -3.5t39.5 -15 t16 -23.5t3 -38v-20q0 -29 -37.5 -49.5t-67.5 -20.5q-41 0 -236 -11t-290 -14v-219q0 -24 2.5 -52t7 -66t6.5 -60q0 -8 27 -8q29 0 194.5 22.5t247.5 22.5q207 0 207 -72q0 -21 -4 -36.5t-15 -26t-18.5 -17t-27 -10.5t-27 -5t-31 -3t-28.5 -2q-383 -35 -586 -35 q-35 0 -61 14.5t-39.5 34.5t-21.5 52.5t-10 57.5t-3 60q-2 180 -3.5 339t-3 269t-3.5 200.5t-3 145.5t-2 92t-1.5 52t-0.5 14zM305 1794v6q3 34 39 58t78 24q61 0 149.5 -43.5t152.5 -99.5t64 -90v-19q-11 -72 -83 -76h-7q-14 0 -30.5 4.5t-29.5 10t-38 16.5t-43 19 q-48 20 -98.5 46t-102 68t-51.5 76z" />
<glyph unicode="&#xc9;" horiz-adv-x="1093" d="M102 1335q0 49 19.5 74t79.5 25q103 0 314 -9.5t314 -9.5q31 0 52.5 -2.5t45 -10.5t36 -26.5t12.5 -46.5q0 -55 -25.5 -74.5t-83.5 -19.5q-26 0 -146 9t-216 9q-103 0 -199 -8l-6 -8v-438q0 -30 14 -40.5t41 -10.5q68 0 234.5 9t208.5 9q48 0 74.5 -3.5t39.5 -15 t16 -23.5t3 -38v-20q0 -29 -37.5 -49.5t-67.5 -20.5q-41 0 -236 -11t-290 -14v-219q0 -24 2.5 -52t7 -66t6.5 -60q0 -8 27 -8q29 0 194.5 22.5t247.5 22.5q207 0 207 -72q0 -21 -4 -36.5t-15 -26t-18.5 -17t-27 -10.5t-27 -5t-31 -3t-28.5 -2q-383 -35 -586 -35 q-35 0 -61 14.5t-39.5 34.5t-21.5 52.5t-10 57.5t-3 60q-2 180 -3.5 339t-3 269t-3.5 200.5t-3 145.5t-2 92t-1.5 52t-0.5 14zM305 1649q0 34 64 90t153 99.5t150 43.5q41 0 77 -24t39 -58v-6q0 -26 -28 -56t-72 -56.5t-81 -45t-70 -32.5q-18 -7 -43.5 -18.5t-38 -17 t-29 -10t-31.5 -4.5h-6q-33 2 -55 21t-25 59q-4 4 -4 15z" />
<glyph unicode="&#xca;" horiz-adv-x="1093" d="M102 1335q0 49 19.5 74t79.5 25q103 0 314 -9.5t314 -9.5q31 0 52.5 -2.5t45 -10.5t36 -26.5t12.5 -46.5q0 -55 -25.5 -74.5t-83.5 -19.5q-26 0 -146 9t-216 9q-103 0 -199 -8l-6 -8v-438q0 -30 14 -40.5t41 -10.5q68 0 234.5 9t208.5 9q48 0 74.5 -3.5t39.5 -15 t16 -23.5t3 -38v-20q0 -29 -37.5 -49.5t-67.5 -20.5q-41 0 -236 -11t-290 -14v-219q0 -24 2.5 -52t7 -66t6.5 -60q0 -8 27 -8q29 0 194.5 22.5t247.5 22.5q207 0 207 -72q0 -21 -4 -36.5t-15 -26t-18.5 -17t-27 -10.5t-27 -5t-31 -3t-28.5 -2q-383 -35 -586 -35 q-35 0 -61 14.5t-39.5 34.5t-21.5 52.5t-10 57.5t-3 60q-2 180 -3.5 339t-3 269t-3.5 200.5t-3 145.5t-2 92t-1.5 52t-0.5 14zM238 1569v10q3 60 85 166.5t134 155.5q33 31 45.5 38t44.5 7q28 0 104.5 -79.5t139.5 -160.5t63 -90q-5 -94 -90 -94q-24 0 -44 7.5t-30 15.5 t-28 24l-119 131q-16 -10 -43.5 -43t-52.5 -64t-61.5 -56.5t-72.5 -25.5q-75 0 -75 58z" />
<glyph unicode="&#xcb;" horiz-adv-x="1093" d="M102 1335q0 49 19.5 74t79.5 25q103 0 314 -9.5t314 -9.5q31 0 52.5 -2.5t45 -10.5t36 -26.5t12.5 -46.5q0 -55 -25.5 -74.5t-83.5 -19.5q-26 0 -146 9t-216 9q-103 0 -199 -8l-6 -8v-438q0 -30 14 -40.5t41 -10.5q68 0 234.5 9t208.5 9q48 0 74.5 -3.5t39.5 -15 t16 -23.5t3 -38v-20q0 -29 -37.5 -49.5t-67.5 -20.5q-41 0 -236 -11t-290 -14v-219q0 -24 2.5 -52t7 -66t6.5 -60q0 -8 27 -8q29 0 194.5 22.5t247.5 22.5q207 0 207 -72q0 -21 -4 -36.5t-15 -26t-18.5 -17t-27 -10.5t-27 -5t-31 -3t-28.5 -2q-383 -35 -586 -35 q-35 0 -61 14.5t-39.5 34.5t-21.5 52.5t-10 57.5t-3 60q-2 180 -3.5 339t-3 269t-3.5 200.5t-3 145.5t-2 92t-1.5 52t-0.5 14zM285 1696q0 27 31.5 60.5t89.5 33.5q36 0 65 -44t29 -75q0 -102 -115 -102q-52 0 -76 35.5t-24 91.5zM580 1704q0 32 31 68t65 36q69 0 101 -24 t32 -105q0 -39 -27 -74.5t-65 -35.5q-53 0 -95 41.5t-42 93.5z" />
<glyph unicode="&#xcc;" horiz-adv-x="956" d="M102 53v84q0 35 172 35q32 0 78 -1t54 -1q18 0 18 2v31q0 43 8 288t8 533l-2 229q-7 0 -40 -2t-54 -2q-46 0 -70.5 0.5t-47 5.5t-31.5 10.5t-16 20t-8 30t-1 44.5q0 32 21.5 52t52.5 20q82 -5 176 -5q80 0 179.5 4.5t123.5 4.5q78 0 104.5 -23.5t26.5 -97.5 q0 -62 -109 -62h-47q-48 0 -82 -10v-26q0 -85 3.5 -285.5t3.5 -308.5q0 -242 -17 -439q12 0 48.5 2t62.5 2q51 0 82 -4q24 -3 36.5 -47t12.5 -71q0 -37 -16.5 -45.5t-86.5 -14.5q-6 2 -30 2q-28 0 -159.5 -6t-209.5 -6q-244 0 -244 57zM236 1794v6q3 34 39 58t77 24 q61 0 150 -43.5t153 -99.5t64 -90v-19q-11 -72 -84 -76h-6q-15 0 -31.5 4.5t-29 10t-38 17t-43.5 18.5q-33 14 -70 32.5t-81 45t-72 56.5t-28 56z" />
<glyph unicode="&#xcd;" horiz-adv-x="956" d="M102 53v84q0 35 172 35q32 0 78 -1t54 -1q18 0 18 2v31q0 43 8 288t8 533l-2 229q-7 0 -40 -2t-54 -2q-46 0 -70.5 0.5t-47 5.5t-31.5 10.5t-16 20t-8 30t-1 44.5q0 32 21.5 52t52.5 20q82 -5 176 -5q80 0 179.5 4.5t123.5 4.5q78 0 104.5 -23.5t26.5 -97.5 q0 -62 -109 -62h-47q-48 0 -82 -10v-26q0 -85 3.5 -285.5t3.5 -308.5q0 -242 -17 -439q12 0 48.5 2t62.5 2q51 0 82 -4q24 -3 36.5 -47t12.5 -71q0 -37 -16.5 -45.5t-86.5 -14.5q-6 2 -30 2q-28 0 -159.5 -6t-209.5 -6q-244 0 -244 57zM236 1649q0 34 64 90t152.5 99.5 t149.5 43.5q42 0 78 -24t39 -58v-6q0 -34 -51.5 -76t-102 -68t-98.5 -46q-18 -8 -43 -19t-38 -16.5t-29.5 -10t-30.5 -4.5h-7q-74 4 -79 80q-4 4 -4 15z" />
<glyph unicode="&#xce;" horiz-adv-x="956" d="M102 53v84q0 35 172 35q32 0 78 -1t54 -1q18 0 18 2v31q0 43 8 288t8 533l-2 229q-7 0 -40 -2t-54 -2q-46 0 -70.5 0.5t-47 5.5t-31.5 10.5t-16 20t-8 30t-1 44.5q0 32 21.5 52t52.5 20q82 -5 176 -5q80 0 179.5 4.5t123.5 4.5q78 0 104.5 -23.5t26.5 -97.5 q0 -62 -109 -62h-47q-48 0 -82 -10v-26q0 -85 3.5 -285.5t3.5 -308.5q0 -242 -17 -439q12 0 48.5 2t62.5 2q51 0 82 -4q24 -3 36.5 -47t12.5 -71q0 -37 -16.5 -45.5t-86.5 -14.5q-6 2 -30 2q-28 0 -159.5 -6t-209.5 -6q-244 0 -244 57zM170 1569v10q3 60 85 166.5t134 155.5 q33 31 45.5 38t44.5 7q28 0 104.5 -79.5t139.5 -160.5t63 -90q-5 -94 -90 -94q-24 0 -44 7.5t-30 15.5t-28 24l-119 131q-16 -10 -43.5 -43t-52 -64t-61 -56.5t-72.5 -25.5q-76 0 -76 58z" />
<glyph unicode="&#xcf;" horiz-adv-x="956" d="M102 53v84q0 35 172 35q32 0 78 -1t54 -1q18 0 18 2v31q0 43 8 288t8 533l-2 229q-7 0 -40 -2t-54 -2q-46 0 -70.5 0.5t-47 5.5t-31.5 10.5t-16 20t-8 30t-1 44.5q0 32 21.5 52t52.5 20q82 -5 176 -5q80 0 179.5 4.5t123.5 4.5q78 0 104.5 -23.5t26.5 -97.5 q0 -62 -109 -62h-47q-48 0 -82 -10v-26q0 -85 3.5 -285.5t3.5 -308.5q0 -242 -17 -439q12 0 48.5 2t62.5 2q51 0 82 -4q24 -3 36.5 -47t12.5 -71q0 -37 -16.5 -45.5t-86.5 -14.5q-6 2 -30 2q-28 0 -159.5 -6t-209.5 -6q-244 0 -244 57zM215 1696q0 27 31.5 60.5t89.5 33.5 q36 0 65 -44t29 -75q0 -102 -115 -102q-52 0 -76 35.5t-24 91.5zM510 1704q0 32 31 68t65 36q69 0 101 -24t32 -105q0 -39 -27 -74.5t-65 -35.5q-53 0 -95 41.5t-42 93.5z" />
<glyph unicode="&#xd1;" horiz-adv-x="1105" d="M102 131q0 2 1 6t1 6v41q0 154 2.5 474.5t2.5 482.5q0 20 -1.5 61.5t-1.5 63.5q0 44 24 79t67 35q11 0 21 -2t18 -4.5t16.5 -7.5t13.5 -8.5t12 -11t10 -11t9 -12.5t7.5 -11.5t7 -11.5t5.5 -10q237 -377 502 -971l-16 345q-1 27 -4.5 83.5t-5 98.5t-0.5 82v391q0 42 19 73 t60 31h9q32 -1 53.5 -20t31.5 -55.5t14 -72t5 -85.5l19 -909q0 -281 -97 -281q-3 0 -10.5 2t-30 16t-48.5 38t-68 74t-87 117t-105.5 175.5t-123.5 241.5q-112 230 -151 282l7.5 -82.5t12 -133.5t10 -160t4.5 -187q0 -112 -12 -320q-23 -55 -110 -59q-46 6 -69.5 42.5 t-23.5 84.5zM217 1587v39q14 63 75 95t132 32h6q60 -2 95.5 -21.5t46.5 -46.5t16 -54t15 -45.5t32 -18.5h10q4 2 4 12q0 11 -11 50.5t-11 60.5q0 71 94 71q54 0 82 -37.5t28 -93.5q0 -80 -49 -146.5t-127 -66.5q-50 0 -87.5 12.5t-59 30t-36 44.5t-19.5 48.5t-9 49.5 q-21 0 -27.5 -12t-6.5 -38q0 -8 1 -29.5t1 -33.5q0 -28 -16 -41.5t-54 -13.5q-63 0 -94 50t-31 103z" />
<glyph unicode="&#xd2;" horiz-adv-x="1478" d="M102 700q0 129 64 304v8q201 415 559 415q144 0 252 -50t237 -158q77 -85 119.5 -205.5t42.5 -241.5v-63q-3 -103 -34.5 -206.5t-90 -195t-135.5 -162t-178 -112t-211 -41.5q-120 0 -235 58t-200.5 153.5t-137.5 226.5t-52 270zM293 715q0 -94 27 -186t79.5 -172.5 t141.5 -130.5t200 -50h13q80 0 150 37.5t119 99.5t85 141.5t53 163.5t17 164q0 133 -66 243t-173 170t-230 60q-67 0 -131.5 -34t-115 -90.5t-89.5 -126.5t-59.5 -145.5t-20.5 -143.5zM498 1794v6q3 34 39 58t77 24q61 0 150 -43.5t153 -99.5t64 -90v-19q-11 -72 -84 -76h-6 q-14 0 -30.5 4.5t-29.5 10t-38 16.5t-43 19q-48 20 -98.5 46t-102 68t-51.5 76z" />
<glyph unicode="&#xd3;" horiz-adv-x="1478" d="M102 700q0 129 64 304v8q201 415 559 415q144 0 252 -50t237 -158q77 -85 119.5 -205.5t42.5 -241.5v-63q-3 -103 -34.5 -206.5t-90 -195t-135.5 -162t-178 -112t-211 -41.5q-120 0 -235 58t-200.5 153.5t-137.5 226.5t-52 270zM293 715q0 -94 27 -186t79.5 -172.5 t141.5 -130.5t200 -50h13q80 0 150 37.5t119 99.5t85 141.5t53 163.5t17 164q0 133 -66 243t-173 170t-230 60q-67 0 -131.5 -34t-115 -90.5t-89.5 -126.5t-59.5 -145.5t-20.5 -143.5zM498 1649q0 34 64 90t152.5 99.5t149.5 43.5q42 0 78 -24t39 -58v-6q0 -34 -51.5 -76 t-102 -68t-98.5 -46q-18 -8 -43 -19t-38 -16.5t-29.5 -10t-30.5 -4.5h-6q-33 2 -55 21t-25 59q-4 4 -4 15z" />
<glyph unicode="&#xd4;" horiz-adv-x="1478" d="M102 700q0 129 64 304v8q201 415 559 415q144 0 252 -50t237 -158q77 -85 119.5 -205.5t42.5 -241.5v-63q-3 -103 -34.5 -206.5t-90 -195t-135.5 -162t-178 -112t-211 -41.5q-120 0 -235 58t-200.5 153.5t-137.5 226.5t-52 270zM293 715q0 -94 27 -186t79.5 -172.5 t141.5 -130.5t200 -50h13q80 0 150 37.5t119 99.5t85 141.5t53 163.5t17 164q0 133 -66 243t-173 170t-230 60q-67 0 -131.5 -34t-115 -90.5t-89.5 -126.5t-59.5 -145.5t-20.5 -143.5zM430 1569v10q3 60 85 166.5t134 155.5q33 31 45.5 38t44.5 7q28 0 105 -79.5t140 -160.5 t63 -90q-5 -94 -91 -94q-24 0 -44 7.5t-30 15.5t-28 24l-119 131q-16 -10 -43.5 -43t-52 -64t-61 -56.5t-72.5 -25.5q-76 0 -76 58z" />
<glyph unicode="&#xd5;" horiz-adv-x="1478" d="M102 700q0 129 64 304v8q201 415 559 415q144 0 252 -50t237 -158q77 -85 119.5 -205.5t42.5 -241.5v-63q-3 -103 -34.5 -206.5t-90 -195t-135.5 -162t-178 -112t-211 -41.5q-120 0 -235 58t-200.5 153.5t-137.5 226.5t-52 270zM293 715q0 -94 27 -186t79.5 -172.5 t141.5 -130.5t200 -50h13q80 0 150 37.5t119 99.5t85 141.5t53 163.5t17 164q0 133 -66 243t-173 170t-230 60q-67 0 -131.5 -34t-115 -90.5t-89.5 -126.5t-59.5 -145.5t-20.5 -143.5zM397 1661v39q14 63 75 95t132 32h6q60 -2 95.5 -21.5t46.5 -47t16 -54.5t15 -45.5 t32 -18.5h10q4 2 4 13t-11 50t-11 60q0 31 21.5 51.5t72.5 20.5q54 0 82.5 -37.5t28.5 -93.5q0 -80 -49 -146.5t-127 -66.5q-50 0 -87.5 12t-59 29.5t-36 44.5t-19.5 48.5t-9 49.5q-21 0 -28 -12t-7 -37q0 -8 1 -29.5t1 -33.5q0 -56 -70 -56q-63 0 -94 50.5t-31 103.5z" />
<glyph unicode="&#xd6;" horiz-adv-x="1478" d="M102 700q0 129 64 304v8q201 415 559 415q144 0 252 -50t237 -158q77 -85 119.5 -205.5t42.5 -241.5v-63q-3 -103 -34.5 -206.5t-90 -195t-135.5 -162t-178 -112t-211 -41.5q-120 0 -235 58t-200.5 153.5t-137.5 226.5t-52 270zM293 715q0 -94 27 -186t79.5 -172.5 t141.5 -130.5t200 -50h13q80 0 150 37.5t119 99.5t85 141.5t53 163.5t17 164q0 133 -66 243t-173 170t-230 60q-67 0 -131.5 -34t-115 -90.5t-89.5 -126.5t-59.5 -145.5t-20.5 -143.5zM477 1696q0 27 31.5 60.5t89.5 33.5q36 0 65 -44t29 -75q0 -102 -114 -102 q-52 0 -76.5 35.5t-24.5 91.5zM772 1704q0 32 31 68t65 36q69 0 101 -24t32 -105q0 -39 -27 -74.5t-65 -35.5q-53 0 -95 41.5t-42 93.5z" />
<glyph unicode="&#xd8;" horiz-adv-x="1478" d="M102 700q0 129 64 304v8q201 415 559 415q105 0 203 -32q29 26 67 26q15 0 39 -8h6q52 -31 52 -100q75 -56 122 -94q77 -85 119.5 -205.5t42.5 -241.5v-63q-3 -103 -34.5 -206.5t-90 -195t-135.5 -162t-178 -112t-211 -41.5q-103 0 -203 41q-30 -33 -65 -33 q-40 0 -66 22.5t-26 63.5q0 29 4 43q-123 101 -196 252t-73 319zM293 715q0 -111 36.5 -220.5t108.5 -187.5q28 64 184 398t228 528q-71 22 -141 22q-67 0 -131.5 -34t-115 -90.5t-89.5 -126.5t-59.5 -145.5t-20.5 -143.5zM610 197q72 -21 131 -21h13q80 0 150 37.5 t119 99.5t85 141.5t53 163.5t17 164q0 199 -144 340q-4 -9 -19.5 -43t-21.5 -51z" />
<glyph unicode="&#xd9;" horiz-adv-x="1294" d="M102 881q0 251 58 489q15 35 46 48.5t54 13.5q86 0 86 -101q0 -4 -12 -165.5t-12 -288.5q0 -672 317 -672q67 0 121 28t90.5 73t63 114t41.5 139t24 160.5t11.5 165t2.5 166.5q0 49 -1 134t-1 120q0 22 8 37t18.5 23t29.5 12t32 4.5t35 0.5q18 0 45 -13t27 -34 q0 -55 3 -174t3 -180q0 -113 -5 -204.5t-19.5 -194t-39 -180.5t-67 -153t-100 -123.5t-140.5 -78.5t-186 -31q-140 0 -245.5 70.5t-167 193.5t-91 273.5t-29.5 327.5zM406 1794v6q3 34 39 58t77 24q61 0 150 -43.5t153 -99.5t64 -90v-19q-11 -72 -84 -76h-6q-15 0 -31.5 4.5 t-29 10t-38 17t-43.5 18.5q-33 14 -70 32.5t-81 45t-72 56.5t-28 56z" />
<glyph unicode="&#xda;" horiz-adv-x="1294" d="M102 881q0 251 58 489q15 35 46 48.5t54 13.5q86 0 86 -101q0 -4 -12 -165.5t-12 -288.5q0 -672 317 -672q67 0 121 28t90.5 73t63 114t41.5 139t24 160.5t11.5 165t2.5 166.5q0 49 -1 134t-1 120q0 22 8 37t18.5 23t29.5 12t32 4.5t35 0.5q18 0 45 -13t27 -34 q0 -55 3 -174t3 -180q0 -113 -5 -204.5t-19.5 -194t-39 -180.5t-67 -153t-100 -123.5t-140.5 -78.5t-186 -31q-140 0 -245.5 70.5t-167 193.5t-91 273.5t-29.5 327.5zM406 1649q0 34 64 90t152.5 99.5t149.5 43.5q42 0 78 -24t39 -58v-6q0 -34 -51.5 -76t-102 -68t-98.5 -46 q-18 -8 -43 -19t-38 -16.5t-29.5 -10t-30.5 -4.5h-7q-74 4 -79 80q-4 4 -4 15z" />
<glyph unicode="&#xdb;" horiz-adv-x="1294" d="M102 881q0 251 58 489q15 35 46 48.5t54 13.5q86 0 86 -101q0 -4 -12 -165.5t-12 -288.5q0 -672 317 -672q67 0 121 28t90.5 73t63 114t41.5 139t24 160.5t11.5 165t2.5 166.5q0 49 -1 134t-1 120q0 22 8 37t18.5 23t29.5 12t32 4.5t35 0.5q18 0 45 -13t27 -34 q0 -55 3 -174t3 -180q0 -113 -5 -204.5t-19.5 -194t-39 -180.5t-67 -153t-100 -123.5t-140.5 -78.5t-186 -31q-140 0 -245.5 70.5t-167 193.5t-91 273.5t-29.5 327.5zM338 1569v10q3 60 85 166.5t134 155.5q33 31 45.5 38t44.5 7q28 0 104.5 -79.5t139.5 -160.5t63 -90 q-5 -94 -90 -94q-24 0 -44 7.5t-30 15.5t-28 24l-119 131q-16 -10 -43.5 -43t-52 -64t-61 -56.5t-72.5 -25.5q-76 0 -76 58z" />
<glyph unicode="&#xdc;" horiz-adv-x="1294" d="M102 881q0 251 58 489q15 35 46 48.5t54 13.5q86 0 86 -101q0 -4 -12 -165.5t-12 -288.5q0 -672 317 -672q67 0 121 28t90.5 73t63 114t41.5 139t24 160.5t11.5 165t2.5 166.5q0 49 -1 134t-1 120q0 22 8 37t18.5 23t29.5 12t32 4.5t35 0.5q18 0 45 -13t27 -34 q0 -55 3 -174t3 -180q0 -113 -5 -204.5t-19.5 -194t-39 -180.5t-67 -153t-100 -123.5t-140.5 -78.5t-186 -31q-140 0 -245.5 70.5t-167 193.5t-91 273.5t-29.5 327.5zM385 1696q0 27 31.5 60.5t89.5 33.5q36 0 65 -44t29 -75q0 -102 -115 -102q-52 0 -76 35.5t-24 91.5z M680 1704q0 32 31 68t65 36q69 0 101 -24t32 -105q0 -39 -27 -74.5t-65 -35.5q-53 0 -95 41.5t-42 93.5z" />
<glyph unicode="&#xdd;" horiz-adv-x="1017" d="M102 1341q0 5 2.5 10.5t7.5 11t9.5 10.5t12.5 10t13.5 9t14.5 8.5l13 6.5l12 6l8 4q12 6 24 6q41 0 88.5 -76.5t83 -170.5t73.5 -186.5t60 -115.5l8 27q44 143 81.5 245t63 156.5t49.5 85t38.5 37.5t32.5 7q22 0 37.5 -2t36.5 -8t32.5 -23t11.5 -43q0 -10 -2 -21 t-4 -18.5t-6 -20.5t-6 -20q-50 -160 -104 -283t-94 -205t-60 -153q7 -129 16 -256.5t14 -198t5 -106.5q0 -16 -1 -28t-2 -22t-5.5 -17t-6.5 -12t-10.5 -8t-11.5 -5t-15.5 -3.5t-17.5 -2t-22.5 -1t-24.5 -0.5q-3 0 -8.5 -1t-7.5 -1q-48 0 -66 59.5t-18 166.5q0 37 3 115 t3 116q0 149 -29 213v-2q-14 28 -76.5 146.5t-66.5 121.5q-56 94 -122.5 250t-66.5 182zM266 1649q0 34 64 90t153 99.5t150 43.5q42 0 78 -24t39 -58v-6q0 -34 -51.5 -76t-102 -68t-98.5 -46q-18 -7 -43.5 -18.5t-38 -17t-29 -10t-31.5 -4.5h-6q-33 2 -55 21t-25 59 q-4 4 -4 15z" />
<glyph unicode="&#xdf;" horiz-adv-x="1251" d="M102 709q0 150 5.5 251.5t20.5 183t39 129t64.5 79t92 42.5t127.5 11q26 0 63 -7t82.5 -25.5t83.5 -44.5t64 -69.5t26 -95.5q0 -51 -45 -127v2l-8 -14q-31 -57 -37 -84h2q138 0 246 -77.5t164.5 -204.5t56.5 -279q-15 -64 -32.5 -113t-49.5 -99t-74 -82t-106 -52.5 t-146 -20.5q-51 0 -120 18.5t-129 61t-60 96.5q0 25 27.5 53.5t54.5 28.5q7 0 15 -2t17.5 -7.5t15 -8.5t17.5 -11l15 -10l29 -20h-2q72 -35 149 -35q97 0 149 76t52 178q0 83 -24 143.5t-63 97t-100.5 58.5t-125 29.5t-146.5 7.5q-84 0 -84 88q0 27 24.5 65t53.5 71 t53.5 80.5t24.5 92.5q0 34 -44.5 56t-88.5 22q-31 0 -54.5 -7.5t-40 -19.5t-27.5 -37t-17.5 -49t-9.5 -67t-4 -80.5t-1 -99.5v-56q-3 -228 41 -620q2 -18 14.5 -124t12.5 -157q0 -33 -26 -49t-58 -16q-42 0 -59 12.5t-36 48.5l-10 70q-1 10 -11 72.5t-14 93.5t-13.5 97 t-14 114t-10.5 110t-8.5 120t-2.5 112z" />
<glyph unicode="&#xe0;" horiz-adv-x="1040" d="M102 334q0 204 140 344.5t352 140.5q58 0 98 -4v37q0 34 27 52t69 18q35 0 63 -20.5t28 -45.5v-14q0 -10 2.5 -40.5t9 -120.5t14.5 -202q31 -239 31 -405q0 -74 -109 -74q-70 0 -79 51q-7 -1 -113 -21t-172 -20q-57 0 -106 8.5t-97.5 30.5t-82 57.5t-54.5 93.5t-21 134z M279 1186v6q3 34 39 58t77 24q61 0 150 -43.5t153 -100t64 -90.5v-18q-11 -72 -84 -76h-6q-15 0 -31.5 4.5t-29 9.5t-38.5 16.5t-43 18.5q-33 14 -70 32.5t-80.5 45t-72 57t-28.5 56.5zM281 336q0 -131 213 -131q10 0 25.5 1t19.5 1h10q113 0 184 31v22q0 88 -28 377 q-16 4 -31 4q-38 0 -77 -5t-85.5 -17t-86 -35.5t-73 -55.5t-52.5 -81.5t-19 -110.5z" />
<glyph unicode="&#xe1;" horiz-adv-x="1040" d="M102 334q0 204 140 344.5t352 140.5q58 0 98 -4v37q0 34 27 52t69 18q35 0 63 -20.5t28 -45.5v-14q0 -10 2.5 -40.5t9 -120.5t14.5 -202q31 -239 31 -405q0 -74 -109 -74q-70 0 -79 51q-7 -1 -113 -21t-172 -20q-57 0 -106 8.5t-97.5 30.5t-82 57.5t-54.5 93.5t-21 134z M279 1040q0 34 64 90.5t152.5 100t149.5 43.5q42 0 78 -24t39 -58v-6q0 -34 -51.5 -76.5t-102 -68.5t-98.5 -46q-18 -7 -43 -18.5t-37.5 -16.5t-29 -9.5t-31.5 -4.5h-7q-74 4 -79 80q-4 4 -4 14zM281 336q0 -131 213 -131q10 0 25.5 1t19.5 1h10q113 0 184 31v22 q0 88 -28 377q-16 4 -31 4q-38 0 -77 -5t-85.5 -17t-86 -35.5t-73 -55.5t-52.5 -81.5t-19 -110.5z" />
<glyph unicode="&#xe2;" horiz-adv-x="1040" d="M102 334q0 204 140 344.5t352 140.5q58 0 98 -4v37q0 34 27 52t69 18q35 0 63 -20.5t28 -45.5v-14q0 -10 2.5 -40.5t9 -120.5t14.5 -202q31 -239 31 -405q0 -74 -109 -74q-70 0 -79 51q-7 -1 -113 -21t-172 -20q-57 0 -106 8.5t-97.5 30.5t-82 57.5t-54.5 93.5t-21 134z M227 1018v10q3 60 85 166.5t134 155.5q33 31 46 38t45 7q28 0 104.5 -79.5t139.5 -160.5t63 -90q-5 -94 -90 -94q-24 0 -44 7.5t-31 15.5t-28 24l-119 131q-18 -11 -56.5 -60.5t-82.5 -88.5t-90 -39q-76 0 -76 57zM281 336q0 -131 213 -131q10 0 25.5 1t19.5 1h10 q113 0 184 31v22q0 88 -28 377q-16 4 -31 4q-38 0 -77 -5t-85.5 -17t-86 -35.5t-73 -55.5t-52.5 -81.5t-19 -110.5z" />
<glyph unicode="&#xe3;" horiz-adv-x="1040" d="M102 334q0 204 140 344.5t352 140.5q58 0 98 -4v37q0 34 27 52t69 18q35 0 63 -20.5t28 -45.5v-14q0 -10 2.5 -40.5t9 -120.5t14.5 -202q31 -239 31 -405q0 -74 -109 -74q-70 0 -79 51q-7 -1 -113 -21t-172 -20q-57 0 -106 8.5t-97.5 30.5t-82 57.5t-54.5 93.5t-21 134z M221 1217v38q14 63 75 95t132 32h6q60 -2 95.5 -21.5t46.5 -46.5t16 -54t15 -45.5t32 -18.5h10q4 2 4 12q0 11 -11 50.5t-11 60.5q0 31 21.5 51.5t72.5 20.5q54 0 82.5 -37.5t28.5 -93.5q0 -80 -49.5 -146.5t-127.5 -66.5q-62 0 -104 16.5t-63 47.5t-29.5 57t-13.5 63 q-21 0 -28 -12t-7 -37q0 -8 1 -30t1 -34q0 -28 -16 -41.5t-54 -13.5q-63 0 -94 50.5t-31 103.5zM281 336q0 -131 213 -131q10 0 25.5 1t19.5 1h10q113 0 184 31v22q0 88 -28 377q-16 4 -31 4q-38 0 -77 -5t-85.5 -17t-86 -35.5t-73 -55.5t-52.5 -81.5t-19 -110.5z" />
<glyph unicode="&#xe4;" horiz-adv-x="1040" d="M102 334q0 204 140 344.5t352 140.5q58 0 98 -4v37q0 34 27 52t69 18q35 0 63 -20.5t28 -45.5v-14q0 -10 2.5 -40.5t9 -120.5t14.5 -202q31 -239 31 -405q0 -74 -109 -74q-70 0 -79 51q-7 -1 -113 -21t-172 -20q-57 0 -106 8.5t-97.5 30.5t-82 57.5t-54.5 93.5t-21 134z M258 1087q0 27 31.5 61t89.5 34q36 0 65 -44t29 -75q0 -102 -115 -102q-52 0 -76 35t-24 91zM281 336q0 -131 213 -131q10 0 25.5 1t19.5 1h10q113 0 184 31v22q0 88 -28 377q-16 4 -31 4q-38 0 -77 -5t-85.5 -17t-86 -35.5t-73 -55.5t-52.5 -81.5t-19 -110.5zM553 1096 q0 32 31 68t65 36q69 0 101 -24t32 -105q0 -39 -27 -74.5t-65 -35.5q-54 0 -95.5 41.5t-41.5 93.5z" />
<glyph unicode="&#xe5;" horiz-adv-x="1040" d="M102 334q0 204 140 344.5t352 140.5q58 0 98 -4v37q0 34 27 52t69 18q35 0 63 -20.5t28 -45.5v-14q0 -10 2.5 -40.5t9 -120.5t14.5 -202q31 -239 31 -405q0 -74 -109 -74q-70 0 -79 51q-7 -1 -113 -21t-172 -20q-57 0 -106 8.5t-97.5 30.5t-82 57.5t-54.5 93.5t-21 134z M281 336q0 -131 213 -131q10 0 25.5 1t19.5 1h10q113 0 184 31v22q0 88 -28 377q-16 4 -31 4q-38 0 -77 -5t-85.5 -17t-86 -35.5t-73 -55.5t-52.5 -81.5t-19 -110.5zM526 1161q0 74 62 127t137 53q16 0 33 -1.5t50.5 -11t58 -26.5t44 -52t19.5 -83v-16q0 -103 -48 -151 t-151 -48q-79 0 -142 65t-63 144zM694 1153q0 -16 7.5 -28.5t19.5 -12.5q41 0 41 37q0 11 -16 24t-29 13q-11 0 -17 -11t-6 -22z" />
<glyph unicode="&#xe6;" horiz-adv-x="1587" d="M102 334q0 112 42.5 204.5t114.5 152t164.5 92t194.5 32.5q141 0 267 -57q111 88 293 88q84 0 145 -26t95.5 -72t50.5 -102t16 -124q0 -61 -25.5 -108t-62.5 -73t-87.5 -42.5t-92 -21.5t-84.5 -5q-130 0 -211 43l6 -65q23 -91 97.5 -155t176.5 -64q32 0 88.5 17.5 t67.5 17.5q47 0 47 -58v-14q0 -19 -2.5 -32t-16 -32.5t-38 -32t-73.5 -21.5t-118 -9q-57 0 -111.5 18.5t-95.5 45t-77.5 53t-72.5 45t-65 18.5h-26l-7 -4q-7 -1 -39 -7.5t-49 -9.5t-46 -7.5t-55 -6.5t-50 -2q-57 0 -106 8.5t-97.5 30.5t-82 57.5t-54.5 93.5t-21 134z M281 336q0 -131 213 -131q10 0 25.5 1t19.5 1h10q113 0 184 31v49q-4 23 -4 67l-24 283q-16 4 -31 4q-38 0 -77 -5t-85.5 -17t-86 -35.5t-73 -55.5t-52.5 -81.5t-19 -110.5zM946 494q0 -12 83 -27.5t128 -15.5q35 0 66 6t57.5 26t26.5 52q0 53 -53 81.5t-113 28.5 q-195 0 -195 -151z" />
<glyph unicode="&#xe7;" horiz-adv-x="841" d="M102 430q0 99 70 191t174.5 145t206.5 53q42 0 79 -10t67 -39.5t30 -75.5q0 -34 -15 -51.5t-52 -17.5q-19 0 -57.5 13t-59.5 13q-87 0 -168.5 -77t-81.5 -164q0 -50 25 -92t63 -68t84 -44.5t86.5 -26t73.5 -7.5h6q106 0 106 -49q0 -35 -19.5 -60.5t-50 -39t-60.5 -19.5 t-58 -6h-19q-7 0 -19.5 1t-18.5 1q0 -21 3 -72t3 -82q5 -2 14 -7q36 -18 54.5 -27.5t48 -29t47.5 -36.5t37.5 -43.5t31.5 -56.5l-2 2q21 -41 21 -103q0 -109 -63.5 -166t-160.5 -57q-35 0 -71 6.5t-73.5 21t-61 43t-23.5 66.5v15q31 80 86 80q29 0 77.5 -30t76.5 -30 q14 0 27 10.5t14 30.5q-6 40 -35 69t-65 47.5t-71 38.5t-59 53.5t-24 80.5v12q-2 10 -2 45q0 145 8 168q-111 57 -170.5 155t-59.5 226z" />
<glyph unicode="&#xe8;" horiz-adv-x="962" d="M102 362q0 118 28.5 208t72.5 142.5t105.5 85.5t119.5 44.5t123 11.5q84 0 145 -26t95.5 -72t50.5 -102t16 -124q0 -61 -25.5 -108t-62.5 -73t-87.5 -42t-92 -21t-84.5 -5q-126 0 -211 45v-7q0 -106 80 -193t200 -87q32 0 88.5 17.5t67.5 17.5q47 0 47 -58v-14 q0 -21 -2 -32.5t-12.5 -28t-30.5 -27t-58.5 -20.5t-94.5 -17q-16 -2 -50 -2q-121 0 -220 67t-153.5 178.5t-54.5 241.5zM240 1186v6q3 34 39 58t77 24q61 0 150 -43.5t153 -100t64 -90.5v-18q-11 -72 -84 -76h-6q-15 0 -31.5 4.5t-29 9.5t-37.5 16.5t-43 18.5 q-48 20 -98.5 46t-102 68.5t-51.5 76.5zM319 502q0 -12 83 -27.5t128 -15.5q35 0 66 6t57.5 26t26.5 52q0 53 -53 81.5t-113 28.5q-195 0 -195 -151z" />
<glyph unicode="&#xe9;" horiz-adv-x="962" d="M102 362q0 118 28.5 208t72.5 142.5t105.5 85.5t119.5 44.5t123 11.5q84 0 145 -26t95.5 -72t50.5 -102t16 -124q0 -61 -25.5 -108t-62.5 -73t-87.5 -42t-92 -21t-84.5 -5q-126 0 -211 45v-7q0 -106 80 -193t200 -87q32 0 88.5 17.5t67.5 17.5q47 0 47 -58v-14 q0 -21 -2 -32.5t-12.5 -28t-30.5 -27t-58.5 -20.5t-94.5 -17q-16 -2 -50 -2q-121 0 -220 67t-153.5 178.5t-54.5 241.5zM240 1040q0 34 64 90.5t152.5 100t149.5 43.5q42 0 78 -24t39 -58v-6q0 -34 -51.5 -76.5t-102 -68.5t-98.5 -46q-18 -7 -43 -18.5t-37.5 -16.5t-29 -9.5 t-31.5 -4.5h-6q-33 2 -55 21t-25 59q-4 4 -4 14zM319 502q0 -12 83 -27.5t128 -15.5q35 0 66 6t57.5 26t26.5 52q0 53 -53 81.5t-113 28.5q-195 0 -195 -151z" />
<glyph unicode="&#xea;" horiz-adv-x="962" d="M102 362q0 118 28.5 208t72.5 142.5t105.5 85.5t119.5 44.5t123 11.5q84 0 145 -26t95.5 -72t50.5 -102t16 -124q0 -61 -25.5 -108t-62.5 -73t-87.5 -42t-92 -21t-84.5 -5q-126 0 -211 45v-7q0 -106 80 -193t200 -87q32 0 88.5 17.5t67.5 17.5q47 0 47 -58v-14 q0 -21 -2 -32.5t-12.5 -28t-30.5 -27t-58.5 -20.5t-94.5 -17q-16 -2 -50 -2q-121 0 -220 67t-153.5 178.5t-54.5 241.5zM172 961v10q3 60 85 166t134 155q33 31 45.5 38t44.5 7q28 0 104.5 -79t139.5 -160t63 -90q-5 -95 -90 -95q-24 0 -44 8t-30 15.5t-28 24.5l-119 131 q-16 -10 -43.5 -43t-52 -64t-61 -56.5t-72.5 -25.5q-76 0 -76 58zM319 502q0 -12 83 -27.5t128 -15.5q35 0 66 6t57.5 26t26.5 52q0 53 -53 81.5t-113 28.5q-195 0 -195 -151z" />
<glyph unicode="&#xeb;" horiz-adv-x="962" d="M102 362q0 118 28.5 208t72.5 142.5t105.5 85.5t119.5 44.5t123 11.5q84 0 145 -26t95.5 -72t50.5 -102t16 -124q0 -61 -25.5 -108t-62.5 -73t-87.5 -42t-92 -21t-84.5 -5q-126 0 -211 45v-7q0 -106 80 -193t200 -87q32 0 88.5 17.5t67.5 17.5q47 0 47 -58v-14 q0 -21 -2 -32.5t-12.5 -28t-30.5 -27t-58.5 -20.5t-94.5 -17q-16 -2 -50 -2q-121 0 -220 67t-153.5 178.5t-54.5 241.5zM219 1087q0 27 31.5 61t89.5 34q36 0 65 -44t29 -75q0 -102 -115 -102q-52 0 -76 35t-24 91zM319 502q0 -12 83 -27.5t128 -15.5q35 0 66 6t57.5 26 t26.5 52q0 53 -53 81.5t-113 28.5q-195 0 -195 -151zM514 1096q0 32 31 68t65 36q69 0 101 -24t32 -105q0 -39 -27 -74.5t-65 -35.5q-53 0 -95 41.5t-42 93.5z" />
<glyph unicode="&#xec;" horiz-adv-x="444" d="M-18 1186v6q3 34 39 58t77 24q61 0 150 -43.5t153 -100t64 -90.5v-18q-11 -72 -84 -76h-6q-15 0 -31.5 4.5t-29 9.5t-38.5 16.5t-43 18.5q-33 14 -70 32.5t-80.5 45t-72 57t-28.5 56.5zM143 125v12q0 2 1 7t1 8v487q0 31 1 50.5t7 47t16.5 43t31.5 27.5t51 12 q43 0 66.5 -36.5t23.5 -80.5v-16q0 -12 -1 -57t-1 -92v-390q0 -113 -64 -141q-3 0 -15 -7t-21 -7q-57 0 -77 35.5t-20 97.5z" />
<glyph unicode="&#xed;" horiz-adv-x="444" d="M-18 1040q0 34 64 90.5t152.5 100t149.5 43.5q42 0 78 -24t39 -58v-6q0 -34 -51.5 -76.5t-102 -68.5t-98.5 -46q-18 -7 -43 -18.5t-37.5 -16.5t-29 -9.5t-31.5 -4.5h-6q-33 2 -55 21t-25 59q-4 4 -4 14zM143 125v12q0 2 1 7t1 8v487q0 31 1 50.5t7 47t16.5 43t31.5 27.5 t51 12q43 0 66.5 -36.5t23.5 -80.5v-16q0 -12 -1 -57t-1 -92v-390q0 -113 -64 -141q-3 0 -15 -7t-21 -7q-57 0 -77 35.5t-20 97.5z" />
<glyph unicode="&#xee;" horiz-adv-x="444" d="M-86 961v10q3 60 85 166t134 155q33 31 45.5 38t44.5 7q28 0 104.5 -79t139.5 -160t63 -90q-5 -95 -90 -95q-24 0 -44 8t-30 15.5t-28 24.5l-119 131q-16 -10 -43.5 -43t-52 -64t-61 -56.5t-72.5 -25.5q-76 0 -76 58zM143 125v12q0 2 1 7t1 8v510q-4 157 107 157 q43 0 66.5 -36.5t23.5 -80.5v-16q0 -12 -1 -57t-1 -92v-390q0 -113 -64 -141q-3 0 -15 -7t-21 -7q-57 0 -77 35.5t-20 97.5z" />
<glyph unicode="&#xef;" horiz-adv-x="444" d="M-39 1087q0 27 31.5 61t89.5 34q36 0 65 -44t29 -75q0 -102 -115 -102q-52 0 -76 35t-24 91zM143 125v12q0 2 1 7t1 8v487q0 31 1 50.5t7 47t16.5 43t31.5 27.5t51 12q43 0 66.5 -36.5t23.5 -80.5v-16q0 -12 -1 -57t-1 -92v-390q0 -113 -64 -141q-3 0 -15 -7t-21 -7 q-57 0 -77 35.5t-20 97.5zM256 1096q0 32 31 68t65 36q69 0 101 -24t32 -105q0 -39 -27 -74.5t-65 -35.5q-53 0 -95 41.5t-42 93.5z" />
<glyph unicode="&#xf1;" horiz-adv-x="935" d="M102 850q1 46 29.5 70t67.5 24t67.5 -22.5t28.5 -59.5v-4q4 -32 4 -51q0 -10 -1 -31t-1 -31q0 -31 6 -61q20 36 31 52t33.5 37t55 31.5t79.5 14.5h24q158 -10 222 -107q53 -81 70 -279q2 -30 16 -302q-5 -100 -105 -100q-39 0 -57.5 44t-18 109.5t-1.5 142.5t-8 142.5 t-38.5 109.5t-91.5 44q-1 0 -4.5 -1t-5.5 -1q-5 0 -14 1t-13 1q-41 0 -71 -16t-47 -40.5t-26.5 -63.5t-12.5 -74.5t-3 -84.5q0 -20 1 -58.5t1 -56.5q0 -54 -3.5 -90t-15 -70.5t-35 -51.5t-60.5 -17q-32 0 -59 19.5t-27 60.5v10q2 25 2 109q0 192 -19 651zM115 1155v39 q14 63 75 95t132 32h6q51 -1 84.5 -15.5t46.5 -35.5t21 -44.5t10.5 -43.5t12.5 -33.5t29 -13.5h11q4 2 4 12q0 11 -11.5 50t-11.5 60q0 31 21.5 51.5t72.5 20.5q54 0 82.5 -37.5t28.5 -93.5q0 -80 -49 -146.5t-127 -66.5q-50 0 -87.5 12t-59 29.5t-36 44.5t-19.5 48.5 t-9 49.5q-21 0 -28 -12t-7 -37q0 -8 1 -29.5t1 -33.5q0 -29 -16 -42.5t-53 -13.5q-63 0 -94 50.5t-31 103.5z" />
<glyph unicode="&#xf2;" horiz-adv-x="1007" d="M98 385q0 191 130.5 314.5t334.5 123.5q76 0 141.5 -38t107.5 -98t65.5 -132t23.5 -143q0 -67 -40 -142.5t-101 -136t-139 -100t-150 -39.5q-69 0 -130.5 30.5t-129.5 96.5q-113 98 -113 264zM262 1186v6q3 34 39 58t78 24q61 0 149.5 -43.5t152.5 -100t64 -90.5v-18 q-11 -72 -83 -76h-7q-15 0 -31.5 4.5t-29 9.5t-37.5 16.5t-43 18.5q-48 20 -98.5 46t-102 68.5t-51.5 76.5zM276 391q0 -101 56 -152t137 -51q99 0 175.5 65.5t76.5 172.5q0 84 -54.5 158.5t-117.5 74.5q-108 0 -190.5 -80.5t-82.5 -187.5z" />
<glyph unicode="&#xf3;" horiz-adv-x="1007" d="M98 385q0 191 130.5 314.5t334.5 123.5q76 0 141.5 -38t107.5 -98t65.5 -132t23.5 -143q0 -67 -40 -142.5t-101 -136t-139 -100t-150 -39.5q-69 0 -130.5 30.5t-129.5 96.5q-113 98 -113 264zM262 1040q0 34 64 90.5t153 100t150 43.5q41 0 77 -24t39 -58v-6 q0 -26 -28.5 -56.5t-72 -57t-80.5 -45t-70 -32.5q-17 -7 -43 -18.5t-38.5 -16.5t-29 -9.5t-31.5 -4.5h-6q-33 2 -55 21t-25 59q-4 4 -4 14zM276 391q0 -101 56 -152t137 -51q99 0 175.5 65.5t76.5 172.5q0 84 -54.5 158.5t-117.5 74.5q-108 0 -190.5 -80.5t-82.5 -187.5z " />
<glyph unicode="&#xf4;" horiz-adv-x="1007" d="M98 385q0 191 130.5 314.5t334.5 123.5q76 0 141.5 -38t107.5 -98t65.5 -132t23.5 -143q0 -67 -40 -142.5t-101 -136t-139 -100t-150 -39.5q-69 0 -130.5 30.5t-129.5 96.5q-113 98 -113 264zM195 961v10q3 60 85 166t134 155q33 31 45.5 38t44.5 7q28 0 104.5 -79 t139.5 -160t63 -90q-5 -95 -90 -95q-24 0 -44 8t-30.5 16t-28.5 24l-118 131q-16 -10 -43.5 -43t-52.5 -64t-61.5 -56.5t-72.5 -25.5q-75 0 -75 58zM276 391q0 -101 56 -152t137 -51q99 0 175.5 65.5t76.5 172.5q0 84 -54.5 158.5t-117.5 74.5q-108 0 -190.5 -80.5 t-82.5 -187.5z" />
<glyph unicode="&#xf5;" horiz-adv-x="1007" d="M98 385q0 191 130.5 314.5t334.5 123.5q76 0 141.5 -38t107.5 -98t65.5 -132t23.5 -143q0 -67 -40 -142.5t-101 -136t-139 -100t-150 -39.5q-69 0 -130.5 30.5t-129.5 96.5q-113 98 -113 264zM162 1053v39q14 63 75 95t132 32h6q60 -2 95.5 -21.5t46.5 -47t16 -54.5 t15 -45.5t32 -18.5h10q4 2 4 12q0 11 -11.5 50.5t-11.5 60.5q0 31 22 51.5t73 20.5q54 0 82 -37.5t28 -93.5q0 -80 -49 -146.5t-127 -66.5q-50 0 -87.5 12t-59 29.5t-36 44.5t-19.5 48.5t-9 49.5q-21 0 -28 -12t-7 -37q0 -8 1 -30t1 -34q0 -28 -16 -41.5t-53 -13.5 q-63 0 -94 50.5t-31 103.5zM276 391q0 -101 56 -152t137 -51q99 0 175.5 65.5t76.5 172.5q0 84 -54.5 158.5t-117.5 74.5q-108 0 -190.5 -80.5t-82.5 -187.5z" />
<glyph unicode="&#xf6;" horiz-adv-x="1007" d="M98 385q0 191 130.5 314.5t334.5 123.5q76 0 141.5 -38t107.5 -98t65.5 -132t23.5 -143q0 -67 -40 -142.5t-101 -136t-139 -100t-150 -39.5q-69 0 -130.5 30.5t-129.5 96.5q-113 98 -113 264zM242 1087q0 28 31 61.5t89 33.5q36 0 65.5 -44t29.5 -75q0 -102 -115 -102 q-52 0 -76 35t-24 91zM276 391q0 -101 56 -152t137 -51q99 0 175.5 65.5t76.5 172.5q0 84 -54.5 158.5t-117.5 74.5q-108 0 -190.5 -80.5t-82.5 -187.5zM537 1096q0 32 31 68t65 36q69 0 101 -24t32 -105q0 -39 -27 -74.5t-65 -35.5q-54 0 -95.5 41.5t-41.5 93.5z" />
<glyph unicode="&#xf8;" horiz-adv-x="1007" d="M98 385q0 191 130.5 314.5t334.5 123.5q5 0 15.5 -1t15.5 -1l20 41q19 39 68 39q16 0 31 -6h4q39 -19 39 -64q0 -29 -17 -71q75 -59 118.5 -155.5t43.5 -192.5q0 -67 -40 -142.5t-101 -136t-139 -100t-150 -39.5q-49 0 -102 16l-7 -12q-22 -34 -39.5 -50t-41.5 -16 q-31 0 -50.5 17t-19.5 45q0 34 29 98q-142 112 -142 293zM276 391q0 -86 43 -139q154 293 209 405q-102 -8 -177 -86t-75 -180zM459 188h10q99 0 175.5 65.5t76.5 172.5q0 91 -62 166z" />
<glyph unicode="&#xf9;" horiz-adv-x="913" d="M102 418q0 177 45 346q7 25 41.5 40t65.5 15q22 0 51 -27t29 -47l-21 -153q-24 -88 -24 -193q0 -75 16 -133l23 -73v2q18 -43 49 -43q48 0 104.5 61t79.5 121v-2q45 164 45 317q0 37 -4 103q10 24 40.5 35.5t62.5 11.5q90 0 90 -152v-49q0 -60 -7.5 -177t-7.5 -175 q0 -34 15.5 -113t15.5 -125q0 -37 -35 -53t-82 -16q-25 0 -42.5 16.5t-20.5 36.5l-6 20q-25 87 -25 88l-16 -14q-39 -32 -65 -48.5t-71 -31t-98 -14.5q-67 0 -118.5 39t-75.5 94l-35 113q-15 50 -19 180zM215 1186v6q3 34 39 58t78 24q61 0 149.5 -43.5t152.5 -100t64 -90.5 v-18q-11 -72 -84 -76h-6q-15 0 -31.5 4.5t-29 9.5t-37.5 16.5t-43 18.5q-48 20 -98.5 46t-102 68.5t-51.5 76.5z" />
<glyph unicode="&#xfa;" horiz-adv-x="913" d="M102 418q0 177 45 346q7 25 41.5 40t65.5 15q22 0 51 -27t29 -47l-21 -153q-24 -88 -24 -193q0 -75 16 -133l23 -73v2q18 -43 49 -43q48 0 104.5 61t79.5 121v-2q45 164 45 317q0 37 -4 103q10 24 40.5 35.5t62.5 11.5q90 0 90 -152v-49q0 -60 -7.5 -177t-7.5 -175 q0 -34 15.5 -113t15.5 -125q0 -37 -35 -53t-82 -16q-25 0 -42.5 16.5t-20.5 36.5l-6 20q-25 87 -25 88l-16 -14q-39 -32 -65 -48.5t-71 -31t-98 -14.5q-67 0 -118.5 39t-75.5 94l-35 113q-15 50 -19 180zM215 1040q0 34 64 90.5t153 100t150 43.5q41 0 77 -24t39 -58v-6 q0 -34 -51.5 -76.5t-102 -68.5t-98.5 -46q-18 -7 -43 -18.5t-37.5 -16.5t-29 -9.5t-31.5 -4.5h-6q-33 2 -55 21t-25 59q-4 4 -4 14z" />
<glyph unicode="&#xfb;" horiz-adv-x="913" d="M102 418q0 177 45 346q7 25 41.5 40t65.5 15q22 0 51 -27t29 -47l-21 -153q-24 -88 -24 -193q0 -75 16 -133l23 -73v2q18 -43 49 -43q48 0 104.5 61t79.5 121v-2q45 164 45 317q0 37 -4 103q10 24 40.5 35.5t62.5 11.5q90 0 90 -152v-49q0 -60 -7.5 -177t-7.5 -175 q0 -34 15.5 -113t15.5 -125q0 -37 -35 -53t-82 -16q-25 0 -42.5 16.5t-20.5 36.5l-6 20q-25 87 -25 88l-16 -14q-39 -32 -65 -48.5t-71 -31t-98 -14.5q-67 0 -118.5 39t-75.5 94l-35 113q-15 50 -19 180zM147 961v10q3 60 85 165.5t135 155.5q33 31 45.5 38t44.5 7 q28 0 104.5 -79t139.5 -160t63 -90q-5 -95 -90 -95q-24 0 -44 8t-30.5 16t-28.5 24l-118 131q-16 -10 -43.5 -43t-52.5 -64t-61.5 -56.5t-72.5 -25.5q-76 0 -76 58z" />
<glyph unicode="&#xfc;" horiz-adv-x="913" d="M102 418q0 177 45 346q7 25 41.5 40t65.5 15q22 0 51 -27t29 -47l-21 -153q-24 -88 -24 -193q0 -75 16 -133l23 -73v2q18 -43 49 -43q48 0 104.5 61t79.5 121v-2q45 164 45 317q0 37 -4 103q10 24 40.5 35.5t62.5 11.5q90 0 90 -152v-49q0 -60 -7.5 -177t-7.5 -175 q0 -34 15.5 -113t15.5 -125q0 -37 -35 -53t-82 -16q-25 0 -42.5 16.5t-20.5 36.5l-6 20q-25 87 -25 88l-16 -14q-39 -32 -65 -48.5t-71 -31t-98 -14.5q-67 0 -118.5 39t-75.5 94l-35 113q-15 50 -19 180zM195 1087q0 28 31 61.5t89 33.5q36 0 65.5 -44t29.5 -75 q0 -102 -115 -102q-52 0 -76 35t-24 91zM489 1096q0 32 31.5 68t65.5 36q69 0 101 -24t32 -105q0 -39 -27 -74.5t-65 -35.5q-54 0 -96 42t-42 93z" />
<glyph unicode="&#xfd;" horiz-adv-x="946" d="M102 668q0 34 28 61t63 27q34 0 61 -24t42.5 -56.5t42.5 -77.5t56 -74l76 -123q34 -57 61 -88q18 54 19 58q0 6 0.5 10t2 8.5t5.5 15.5t9.5 26t14.5 44t20.5 66.5t28.5 97t36 131.5q7 16 38.5 31.5t53.5 15.5q35 0 59.5 -37.5t24.5 -74.5q-42 -175 -148.5 -497.5 t-150.5 -506.5q-10 -31 -21 -77.5t-18.5 -76t-21 -59.5t-35.5 -44.5t-54 -14.5q-38 0 -62 21.5t-32 55.5q3 46 16 103q35 149 97 362l6 25q22 73 35 106q-29 58 -92.5 141t-118.5 148t-98.5 142t-43.5 135zM215 922q0 34 64 90t153 99.5t150 43.5q41 0 77 -24t39 -58v-6 q0 -34 -51.5 -76t-102 -68t-98.5 -46q-18 -8 -43 -19t-38 -16.5t-29.5 -10t-30.5 -4.5h-6q-33 2 -55 21t-25 59q-4 4 -4 15z" />
<glyph unicode="&#xff;" horiz-adv-x="946" d="M102 668q0 34 28 61t63 27q34 0 61 -24t42.5 -56.5t42.5 -77.5t56 -74l76 -123q34 -57 61 -88q18 54 19 58q0 6 0.5 10t2 8.5t5.5 15.5t9.5 26t14.5 44t20.5 66.5t28.5 97t36 131.5q7 16 38.5 31.5t53.5 15.5q35 0 59.5 -37.5t24.5 -74.5q-42 -175 -148.5 -497.5 t-150.5 -506.5q-10 -31 -21 -77.5t-18.5 -76t-21 -59.5t-35.5 -44.5t-54 -14.5q-38 0 -62 21.5t-32 55.5q3 46 16 103q35 149 97 362l6 25q22 73 35 106q-29 58 -92.5 141t-118.5 148t-98.5 142t-43.5 135zM186 944q0 27 31.5 60.5t89.5 33.5q36 0 65 -43.5t29 -74.5 q0 -103 -114 -103q-52 0 -76.5 35.5t-24.5 91.5zM481 952q0 32 31.5 68.5t65.5 36.5q69 0 101 -24t32 -105q0 -39 -27.5 -75t-65.5 -36q-54 0 -95.5 41.5t-41.5 93.5z" />
<glyph unicode="&#x152;" horiz-adv-x="1785" d="M102 700q0 129 64 304v8q201 415 559 415q138 0 416.5 3.5t398.5 3.5q58 0 100.5 -27t42.5 -82q0 -47 -24 -59.5t-78 -12.5h-20q-27 0 -140 -2t-209 -2h-36l38 -30q77 -85 119.5 -205.5t42.5 -241.5v-65q117 10 178 10q75 0 94 -16t19 -64v-21q0 -19 -7 -32t-22.5 -21 t-33.5 -12.5t-48 -7t-57.5 -3.5t-70.5 -3t-78 -5q-64 -228 -220 -372q167 20 336 20q106 0 155.5 -10t49.5 -47q0 -70 -30.5 -96.5t-86.5 -26.5h-825q-161 0 -305.5 95t-233 257.5t-88.5 347.5zM293 715q0 -94 27 -186t79.5 -172.5t141.5 -130.5t200 -50h13q98 0 181 57 t134.5 147t80 195t28.5 207q0 133 -66 243t-173 170t-230 60q-67 0 -131.5 -34t-115 -90.5t-89.5 -126.5t-59.5 -145.5t-20.5 -143.5z" />
<glyph unicode="&#x153;" horiz-adv-x="1583" d="M102 385q0 191 130.5 314.5t334.5 123.5q156 0 258 -149q114 143 349 143q84 0 145 -25.5t95.5 -72t50.5 -102t16 -123.5q0 -61 -25.5 -108t-63 -73t-88 -42.5t-92 -21.5t-84.5 -5q-125 0 -210 45v-6q0 -106 80 -193.5t200 -87.5q32 0 88.5 17.5t67.5 17.5q47 0 47 -57 v-15q0 -26 -4.5 -40.5t-22 -33t-60.5 -31t-112 -20.5q-16 -2 -49 -2q-133 0 -238.5 81t-154.5 210q-64 -61 -139.5 -98t-145.5 -37q-41 0 -90 16t-99 49t-91 78t-67 110t-26 138zM281 391q0 -101 55.5 -152t136.5 -51q99 0 175.5 65.5t76.5 172.5q0 84 -54.5 158.5 t-117.5 74.5q-108 0 -190 -80.5t-82 -187.5zM942 465q0 -12 83 -27.5t128 -15.5q35 0 66 6t57.5 26t26.5 52q0 53 -53 81.5t-113 28.5q-195 0 -195 -151z" />
<glyph unicode="&#x178;" horiz-adv-x="1017" d="M102 1341q0 5 2.5 10.5t7.5 11t9.5 10.5t12.5 10t13.5 9t14.5 8.5l13 6.5l12 6l8 4q12 6 24 6q41 0 88.5 -76.5t83 -170.5t73.5 -186.5t60 -115.5l8 27q44 143 81.5 245t63 156.5t49.5 85t38.5 37.5t32.5 7q22 0 37.5 -2t36.5 -8t32.5 -23t11.5 -43q0 -10 -2 -21 t-4 -18.5t-6 -20.5t-6 -20q-50 -160 -104 -283t-94 -205t-60 -153q7 -129 16 -256.5t14 -198t5 -106.5q0 -16 -1 -28t-2 -22t-5.5 -17t-6.5 -12t-10.5 -8t-11.5 -5t-15.5 -3.5t-17.5 -2t-22.5 -1t-24.5 -0.5q-3 0 -8.5 -1t-7.5 -1q-48 0 -66 59.5t-18 166.5q0 37 3 115 t3 116q0 149 -29 213v-2q-14 28 -76.5 146.5t-66.5 121.5q-56 94 -122.5 250t-66.5 182zM233 1622q0 27 31.5 60.5t89.5 33.5q36 0 65.5 -44t29.5 -75q0 -102 -115 -102q-52 0 -76.5 35.5t-24.5 91.5zM528 1630q0 32 31.5 68.5t65.5 36.5q69 0 101 -24t32 -105 q0 -39 -27 -75t-65 -36q-54 0 -96 42t-42 93z" />
<glyph unicode="&#x2000;" horiz-adv-x="973" />
<glyph unicode="&#x2001;" horiz-adv-x="1946" />
<glyph unicode="&#x2002;" horiz-adv-x="973" />
<glyph unicode="&#x2003;" horiz-adv-x="1946" />
<glyph unicode="&#x2004;" horiz-adv-x="648" />
<glyph unicode="&#x2005;" horiz-adv-x="486" />
<glyph unicode="&#x2006;" horiz-adv-x="324" />
<glyph unicode="&#x2007;" horiz-adv-x="324" />
<glyph unicode="&#x2008;" horiz-adv-x="243" />
<glyph unicode="&#x2009;" horiz-adv-x="389" />
<glyph unicode="&#x200a;" horiz-adv-x="108" />
<glyph unicode="&#x2010;" horiz-adv-x="1048" d="M102 397q0 68 50 82t244 17q121 2 198 4q168 4 256 4q42 0 69 -27.5t27 -89.5q0 -37 -19 -55.5t-42 -18.5q-115 0 -340 -3t-340 -3q-21 0 -34.5 2t-31.5 9.5t-27.5 27.5t-9.5 51z" />
<glyph unicode="&#x2011;" horiz-adv-x="1048" d="M102 397q0 68 50 82t244 17q121 2 198 4q168 4 256 4q42 0 69 -27.5t27 -89.5q0 -37 -19 -55.5t-42 -18.5q-115 0 -340 -3t-340 -3q-21 0 -34.5 2t-31.5 9.5t-27.5 27.5t-9.5 51z" />
<glyph unicode="&#x2012;" horiz-adv-x="1048" d="M102 397q0 68 50 82t244 17q121 2 198 4q168 4 256 4q42 0 69 -27.5t27 -89.5q0 -37 -19 -55.5t-42 -18.5q-115 0 -340 -3t-340 -3q-21 0 -34.5 2t-31.5 9.5t-27.5 27.5t-9.5 51z" />
<glyph unicode="&#x2013;" horiz-adv-x="1228" d="M102 397q0 68 60.5 82t296.5 17q147 2 240 4q204 4 311 4q50 0 83 -27.5t33 -89.5q0 -37 -23 -55.5t-51 -18.5q-140 0 -413 -3t-412 -3q-26 0 -42 2t-38 9.5t-33.5 27.5t-11.5 51z" />
<glyph unicode="&#x2014;" horiz-adv-x="2252" d="M102 397q0 68 121.5 82t591.5 17q294 2 481 4q408 4 621 4q102 0 167.5 -27.5t65.5 -89.5q0 -37 -46 -55.5t-102 -18.5q-279 0 -825 -3t-825 -3q-51 0 -84 2t-76.5 9.5t-66.5 27.5t-23 51z" />
<glyph unicode="&#x2018;" horiz-adv-x="421" d="M102 1280q0 8 1 24.5t1 24.5q0 3 -1 14t-1 17q0 34 23.5 55t93.5 21q38 0 57 -12t19 -29v-13q0 -20 -4 -55t-4 -51v-27q0 -24 10 -92l4 -14q16 -50 16 -84q0 -23 -18.5 -37t-75.5 -14q-47 0 -67.5 12.5t-31 49t-15.5 120.5l-5 65q0 4 -1 12.5t-1 12.5z" />
<glyph unicode="&#x2019;" horiz-adv-x="421" d="M104 1382q0 54 95 54q28 0 45 -4t30 -13.5t20 -31.5t11.5 -52.5t7.5 -81.5l4 -139q0 -4 1 -14t1 -17q0 -33 -23.5 -54t-92.5 -21q-38 0 -57 12t-19 29v12q0 20 4 55t4 51v27q0 24 -10 92l-4 14q-17 39 -17 82z" />
<glyph unicode="&#x201a;" horiz-adv-x="421" d="M104 154q0 24 19 38.5t76 14.5q47 0 67.5 -12.5t31 -49t15.5 -120.5l4 -140q0 -4 1 -13.5t1 -16.5q0 -33 -23.5 -54.5t-92.5 -21.5q-38 0 -57 12t-19 29v12q0 20 4 55.5t4 51.5v26q0 24 -10 92l-4 15q-17 39 -17 82z" />
<glyph unicode="&#x201c;" horiz-adv-x="684" d="M104 1360q0 34 23.5 55t93.5 21q38 0 57 -12t19 -29v-13q0 -20 -4 -55t-4 -51v-27q0 -24 10 -92l4 -14q16 -37 16 -82q0 -24 -18.5 -38.5t-75.5 -14.5q-66 -2 -86.5 29.5t-27.5 152.5l-5 139q0 3 -1 14t-1 17zM367 1364q0 34 23 55t93 21q38 0 57 -12t19 -29v-13 q0 -20 -4 -55t-4 -51v-27q0 -24 10 -92l4 -14q17 -39 17 -82q0 -24 -19 -38.5t-76 -14.5h-8q-60 0 -79 33t-27 149l-4 139q0 3 -1 14t-1 17z" />
<glyph unicode="&#x201d;" horiz-adv-x="684" d="M104 1382q0 54 95 54h8q60 0 79 -33.5t27 -149.5l4 -139q0 -4 1 -14t1 -17q0 -33 -23.5 -54t-92.5 -21q-38 0 -57 12t-19 29v12q0 20 4 55t4 51v27q0 24 -10 92l-4 14q-17 39 -17 82zM367 1386q0 15 5.5 25.5t27.5 19.5t61 9q66 2 86.5 -30.5t27.5 -152.5l5 -139 q0 -4 1 -14t1 -17q0 -33 -24 -54t-93 -21q-38 0 -57 12t-19 29v12q0 20 4 55t4 51v27q0 24 -10 92l-4 15q-16 37 -16 81z" />
<glyph unicode="&#x201e;" horiz-adv-x="681" d="M102 154q0 24 19 38.5t76 14.5h8q60 0 79 -33t27 -149l4 -140q0 -4 1 -13.5t1 -16.5q0 -33 -23.5 -54.5t-92.5 -21.5q-38 0 -57 12t-19 29v12q0 20 4 55.5t4 51.5v26q0 24 -10 92l-4 15q-17 39 -17 82zM365 158q0 24 18.5 38.5t75.5 14.5q66 2 86.5 -30t27.5 -152l5 -140 q0 -3 1 -13t1 -17q0 -76 -117 -76q-38 0 -57 12t-19 29v12q0 20 4 55.5t4 51.5v26q0 24 -10 92l-4 15q-16 37 -16 82z" />
<glyph unicode="&#x202f;" horiz-adv-x="389" />
<glyph unicode="&#x2039;" horiz-adv-x="806" d="M104 578q0 29 62 85.5t194 155.5l205 154q13 8 37 8q32 0 63 -25.5t31 -48.5q0 -16 -8 -35q-50 -48 -137 -112t-149 -110.5t-72 -65.5q6 -11 65.5 -56t127.5 -94.5t124.5 -102.5t57.5 -79q-4 -12 -17 -25t-30.5 -25.5t-22.5 -17.5q-2 -2 -10 -2q-35 0 -142.5 68.5 t-219 162.5t-150.5 156q-9 6 -9 9z" />
<glyph unicode="&#x203a;" horiz-adv-x="806" d="M102 252q1 26 57.5 79t124 102.5t127.5 94.5t66 56q-4 9 -28.5 28.5t-67 53t-72.5 59.5q-16 13 -74.5 52.5t-92 71.5t-33.5 58q0 23 31 48.5t63 25.5q23 0 39 -8l204 -154q128 -95 192 -153.5t64 -87.5q0 -4 -8 -9q-39 -62 -150.5 -156t-219 -162.5t-142.5 -68.5 q-8 0 -10 2q-5 5 -22.5 17.5t-30.5 25.5t-17 25z" />
<glyph unicode="&#x205f;" horiz-adv-x="486" />
<glyph unicode="&#x20ac;" horiz-adv-x="1325" d="M102 541q0 92 146 92h18q25 3 30 14.5t5 63.5l-2 2q-166 0 -166 116q0 31 15 51.5t42.5 29t50.5 11.5t54 3q2 0 7 -1t7 -1h41q101 212 296.5 340.5t440.5 128.5q28 0 47 -2t42 -8.5t35 -22.5t12 -41q0 -44 -34.5 -72t-98.5 -28q-21 0 -40.5 -1t-39 -4.5t-33 -6t-32 -9 t-26.5 -9t-27 -11t-23 -10.5t-24.5 -12t-21.5 -11q-75 -40 -147.5 -100t-104.5 -130h154q39 0 66.5 -35.5t27.5 -72.5q0 -32 -33.5 -59t-64.5 -27q-111 0 -158.5 -6t-57 -15.5t-9.5 -35.5q0 -7 4 -11q43 0 131.5 10.5t138.5 10.5q55 0 75.5 -26t20.5 -81q0 -21 -7 -36.5 t-24.5 -25.5t-33 -16t-46 -9t-50 -4.5t-56.5 -2.5h-14q-81 -4 -111 -12q93 -124 225 -196.5t259 -72.5q19 0 62.5 6.5t64.5 6.5q25 0 52 -30.5t27 -53.5q0 -27 -9 -47t-28.5 -32t-37 -19.5t-48.5 -10.5t-48 -4t-50 -2h-16q-142 11 -228 31.5t-162 83t-116.5 116 t-133.5 192.5q-9 13 -13 19l-9 3q-18 0 -63.5 -2.5t-67.5 -2.5q-38 0 -60 29.5t-22 67.5z" />
<glyph unicode="&#xe000;" horiz-adv-x="849" d="M0 0v850h850v-850h-850z" />
</font>
</defs>
</svg>
